LIBERTA-uno.ufo
<glyph name="exclam" format="1">
  <advance width="333.33333333333337"/>
  <unicode hex="0021"/>
  <outline>
    <contour>
      <point x="111" y="111" type="line"/>
      <point x="222" y="111" type="line"/>
      <point x="222" y="49"/>
      <point x="173" y="0"/>
      <point x="111" y="0" type="curve"/>
    </contour>
    <contour>
      <point x="111" y="222" type="line"/>
      <point x="111" y="333" type="line"/>
      <point x="222" y="333" type="line"/>
      <point x="222" y="222" type="line"/>
    </contour>
    <contour>
      <point x="167" y="444" type="line"/>
      <point x="167" y="444"/>
      <point x="222" y="389"/>
      <point x="222" y="389" type="curve"/>
      <point x="222" y="389"/>
      <point x="167" y="333"/>
      <point x="167" y="333" type="curve"/>
      <point x="167" y="389" type="line"/>
      <point x="167" y="389"/>
      <point x="111" y="333"/>
      <point x="111" y="333" type="curve"/>
      <point x="111" y="444" type="line"/>
      <point x="111" y="444"/>
      <point x="167" y="389"/>
      <point x="167" y="389" type="curve"/>
    </contour>
    <contour>
      <point x="111" y="444" type="line"/>
      <point x="111" y="556" type="line"/>
      <point x="222" y="556" type="line"/>
      <point x="222" y="444" type="line"/>
    </contour>
    <contour>
      <point x="222" y="556" type="line"/>
      <point x="111" y="556" type="line"/>
      <point x="111" y="618"/>
      <point x="160" y="667"/>
      <point x="222" y="667" type="curve"/>
    </contour>
    <contour>
      <point x="111" y="722" type="curve" smooth="yes"/>
      <point x="111" y="753"/>
      <point x="136" y="778"/>
      <point x="167" y="778" type="curve" smooth="yes"/>
      <point x="198" y="778"/>
      <point x="222" y="753"/>
      <point x="222" y="722" type="curve" smooth="yes"/>
      <point x="222" y="691"/>
      <point x="198" y="667"/>
      <point x="167" y="667" type="curve" smooth="yes"/>
      <point x="136" y="667"/>
      <point x="111" y="691"/>
    </contour>
  </outline>
</glyph>
<glyph name="quotesingle" format="1">
  <advance width="333"/>
  <unicode hex="0027"/>
  <outline>
    <contour>
      <point x="167" y="444" type="line"/>
      <point x="167" y="444"/>
      <point x="111" y="500"/>
      <point x="111" y="500" type="curve"/>
      <point x="111" y="500"/>
      <point x="167" y="556"/>
      <point x="167" y="556" type="curve"/>
      <point x="167" y="500" type="line"/>
      <point x="167" y="500"/>
      <point x="222" y="556"/>
      <point x="222" y="556" type="curve"/>
      <point x="222" y="444" type="line"/>
      <point x="222" y="444"/>
      <point x="167" y="500"/>
      <point x="167" y="500" type="curve"/>
    </contour>
    <contour>
      <point x="222" y="667" type="line"/>
      <point x="222" y="556" type="line"/>
      <point x="160" y="556"/>
      <point x="111" y="604"/>
      <point x="111" y="667" type="curve"/>
    </contour>
    <contour>
      <point x="111" y="667" type="line"/>
      <point x="111" y="778" type="line"/>
      <point x="222" y="778" type="line"/>
      <point x="222" y="667" type="line"/>
    </contour>
  </outline>
</glyph>
<glyph name="parenleft" format="1">
  <advance width="555.5555555555555"/>
  <unicode hex="0028"/>
  <outline>
    <contour>
      <point x="222" y="56" type="curve" smooth="yes"/>
      <point x="222" y="87"/>
      <point x="247" y="111"/>
      <point x="278" y="111" type="curve" smooth="yes"/>
      <point x="309" y="111"/>
      <point x="333" y="87"/>
      <point x="333" y="56" type="curve" smooth="yes"/>
      <point x="333" y="24"/>
      <point x="309" y="0"/>
      <point x="278" y="0" type="curve" smooth="yes"/>
      <point x="247" y="0"/>
      <point x="222" y="24"/>
    </contour>
    <contour>
      <point x="333" y="0" type="line"/>
      <point x="333" y="111" type="line"/>
      <point x="444" y="111" type="line"/>
      <point x="444" y="0" type="line"/>
    </contour>
    <contour>
      <point x="111" y="111" type="line"/>
      <point x="111" y="222" type="line"/>
      <point x="222" y="222" type="line"/>
      <point x="222" y="111" type="line"/>
    </contour>
    <contour>
      <point x="111" y="278" type="line"/>
      <point x="111" y="278"/>
      <point x="167" y="333"/>
      <point x="167" y="333" type="curve"/>
      <point x="167" y="333"/>
      <point x="222" y="278"/>
      <point x="222" y="278" type="curve"/>
      <point x="167" y="278" type="line"/>
      <point x="167" y="278"/>
      <point x="222" y="222"/>
      <point x="222" y="222" type="curve"/>
      <point x="111" y="222" type="line"/>
      <point x="111" y="222"/>
      <point x="167" y="278"/>
      <point x="167" y="278" type="curve"/>
    </contour>
    <contour>
      <point x="167" y="444" type="line"/>
      <point x="198" y="444"/>
      <point x="222" y="420"/>
      <point x="222" y="389" type="curve" smooth="yes"/>
      <point x="222" y="358"/>
      <point x="198" y="333"/>
      <point x="167" y="333" type="curve"/>
      <point x="167" y="389" type="line"/>
      <point x="167" y="358"/>
      <point x="142" y="333"/>
      <point x="111" y="333" type="curve"/>
      <point x="111" y="444" type="line"/>
      <point x="142" y="444"/>
      <point x="167" y="420"/>
      <point x="167" y="389" type="curve"/>
    </contour>
    <contour>
      <point x="167" y="556" type="line"/>
      <point x="198" y="556"/>
      <point x="222" y="531"/>
      <point x="222" y="500" type="curve" smooth="yes"/>
      <point x="222" y="469"/>
      <point x="198" y="444"/>
      <point x="167" y="444" type="curve"/>
      <point x="167" y="500" type="line"/>
      <point x="167" y="469"/>
      <point x="142" y="444"/>
      <point x="111" y="444" type="curve"/>
      <point x="111" y="556" type="line"/>
      <point x="142" y="556"/>
      <point x="167" y="531"/>
      <point x="167" y="500" type="curve"/>
    </contour>
    <contour>
      <point x="111" y="611" type="curve" smooth="yes"/>
      <point x="111" y="642"/>
      <point x="136" y="667"/>
      <point x="167" y="667" type="curve" smooth="yes"/>
      <point x="198" y="667"/>
      <point x="222" y="642"/>
      <point x="222" y="611" type="curve" smooth="yes"/>
      <point x="222" y="580"/>
      <point x="198" y="556"/>
      <point x="167" y="556" type="curve" smooth="yes"/>
      <point x="136" y="556"/>
      <point x="111" y="580"/>
    </contour>
    <contour>
      <point x="222" y="722" type="curve" smooth="yes"/>
      <point x="222" y="753"/>
      <point x="247" y="778"/>
      <point x="278" y="778" type="curve" smooth="yes"/>
      <point x="309" y="778"/>
      <point x="333" y="753"/>
      <point x="333" y="722" type="curve" smooth="yes"/>
      <point x="333" y="691"/>
      <point x="309" y="667"/>
      <point x="278" y="667" type="curve" smooth="yes"/>
      <point x="247" y="667"/>
      <point x="222" y="691"/>
    </contour>
    <contour>
      <point x="333" y="722" type="curve" smooth="yes"/>
      <point x="333" y="753"/>
      <point x="358" y="778"/>
      <point x="389" y="778" type="curve" smooth="yes"/>
      <point x="420" y="778"/>
      <point x="444" y="753"/>
      <point x="444" y="722" type="curve" smooth="yes"/>
      <point x="444" y="691"/>
      <point x="420" y="667"/>
      <point x="389" y="667" type="curve" smooth="yes"/>
      <point x="358" y="667"/>
      <point x="333" y="691"/>
    </contour>
  </outline>
</glyph>
<glyph name="parenright" format="1">
  <advance width="555.5555555555555"/>
  <unicode hex="0029"/>
  <outline>
    <contour>
      <point x="167" y="111" type="line"/>
      <point x="198" y="111"/>
      <point x="222" y="87"/>
      <point x="222" y="56" type="curve" smooth="yes"/>
      <point x="222" y="24"/>
      <point x="198" y="0"/>
      <point x="167" y="0" type="curve"/>
      <point x="167" y="56" type="line"/>
      <point x="167" y="24"/>
      <point x="142" y="0"/>
      <point x="111" y="0" type="curve"/>
      <point x="111" y="111" type="line"/>
      <point x="142" y="111"/>
      <point x="167" y="87"/>
      <point x="167" y="56" type="curve"/>
    </contour>
    <contour>
      <point x="222" y="56" type="curve"/>
      <point x="278" y="56" type="line"/>
      <point x="278" y="56"/>
      <point x="222" y="111"/>
      <point x="222" y="111" type="curve"/>
      <point x="333" y="111" type="line"/>
      <point x="333" y="111"/>
      <point x="278" y="56"/>
      <point x="278" y="56" type="curve"/>
      <point x="333" y="56" type="line"/>
      <point x="333" y="56"/>
      <point x="278" y="0"/>
      <point x="278" y="0" type="curve"/>
      <point x="278" y="0"/>
      <point x="222" y="56"/>
    </contour>
    <contour>
      <point x="333" y="111" type="line"/>
      <point x="333" y="222" type="line"/>
      <point x="444" y="222" type="line"/>
      <point x="444" y="111" type="line"/>
    </contour>
    <contour>
      <point x="333" y="222" type="line"/>
      <point x="333" y="333" type="line"/>
      <point x="444" y="333" type="line"/>
      <point x="444" y="222" type="line"/>
    </contour>
    <contour>
      <point x="333" y="444" type="line"/>
      <point x="444" y="444" type="line"/>
      <point x="444" y="382"/>
      <point x="396" y="333"/>
      <point x="333" y="333" type="curve"/>
    </contour>
    <contour>
      <point x="333" y="444" type="line"/>
      <point x="333" y="556" type="line"/>
      <point x="444" y="556" type="line"/>
      <point x="444" y="444" type="line"/>
    </contour>
    <contour>
      <point x="333" y="611" type="line"/>
      <point x="333" y="642"/>
      <point x="358" y="667"/>
      <point x="389" y="667" type="curve" smooth="yes"/>
      <point x="420" y="667"/>
      <point x="444" y="642"/>
      <point x="444" y="611" type="curve"/>
      <point x="389" y="611" type="line"/>
      <point x="420" y="611"/>
      <point x="444" y="587"/>
      <point x="444" y="556" type="curve"/>
      <point x="333" y="556" type="line"/>
      <point x="333" y="587"/>
      <point x="358" y="611"/>
      <point x="389" y="611" type="curve"/>
    </contour>
    <contour>
      <point x="111" y="722" type="line"/>
      <point x="111" y="753"/>
      <point x="136" y="778"/>
      <point x="167" y="778" type="curve" smooth="yes"/>
      <point x="198" y="778"/>
      <point x="222" y="753"/>
      <point x="222" y="722" type="curve"/>
      <point x="167" y="722" type="line"/>
      <point x="198" y="722"/>
      <point x="222" y="698"/>
      <point x="222" y="667" type="curve"/>
      <point x="111" y="667" type="line"/>
      <point x="111" y="698"/>
      <point x="136" y="722"/>
      <point x="167" y="722" type="curve"/>
    </contour>
    <contour>
      <point x="222" y="722" type="line"/>
      <point x="222" y="722"/>
      <point x="278" y="778"/>
      <point x="278" y="778" type="curve"/>
      <point x="278" y="778"/>
      <point x="333" y="722"/>
      <point x="333" y="722" type="curve"/>
      <point x="278" y="722" type="line"/>
      <point x="278" y="722"/>
      <point x="333" y="667"/>
      <point x="333" y="667" type="curve"/>
      <point x="222" y="667" type="line"/>
      <point x="222" y="667"/>
      <point x="278" y="722"/>
      <point x="278" y="722" type="curve"/>
    </contour>
  </outline>
</glyph>
<glyph name="plus" format="1">
  <advance width="555.5555555555555"/>
  <unicode hex="002B"/>
  <outline>
    <contour>
      <point x="222" y="167" type="line"/>
      <point x="222" y="198"/>
      <point x="247" y="222"/>
      <point x="278" y="222" type="curve" smooth="yes"/>
      <point x="309" y="222"/>
      <point x="333" y="198"/>
      <point x="333" y="167" type="curve"/>
      <point x="278" y="167" type="line"/>
      <point x="309" y="167"/>
      <point x="333" y="142"/>
      <point x="333" y="111" type="curve"/>
      <point x="222" y="111" type="line"/>
      <point x="222" y="142"/>
      <point x="247" y="167"/>
      <point x="278" y="167" type="curve"/>
    </contour>
    <contour>
      <point x="111" y="222" type="line"/>
      <point x="111" y="333" type="line"/>
      <point x="222" y="333" type="line"/>
      <point x="222" y="222" type="line"/>
    </contour>
    <contour>
      <point x="278" y="222" type="line"/>
      <point x="247" y="222"/>
      <point x="222" y="247"/>
      <point x="222" y="278" type="curve" smooth="yes"/>
      <point x="222" y="309"/>
      <point x="247" y="333"/>
      <point x="278" y="333" type="curve"/>
      <point x="278" y="278" type="line"/>
      <point x="278" y="309"/>
      <point x="302" y="333"/>
      <point x="333" y="333" type="curve"/>
      <point x="333" y="222" type="line"/>
      <point x="302" y="222"/>
      <point x="278" y="247"/>
      <point x="278" y="278" type="curve"/>
    </contour>
    <contour>
      <point x="333" y="222" type="line"/>
      <point x="333" y="333" type="line"/>
      <point x="444" y="333" type="line"/>
      <point x="444" y="222" type="line"/>
    </contour>
    <contour>
      <point x="278" y="333" type="line"/>
      <point x="278" y="333"/>
      <point x="222" y="389"/>
      <point x="222" y="389" type="curve"/>
      <point x="222" y="389"/>
      <point x="278" y="444"/>
      <point x="278" y="444" type="curve"/>
      <point x="278" y="389" type="line"/>
      <point x="278" y="389"/>
      <point x="333" y="444"/>
      <point x="333" y="444" type="curve"/>
      <point x="333" y="333" type="line"/>
      <point x="333" y="333"/>
      <point x="278" y="389"/>
      <point x="278" y="389" type="curve"/>
    </contour>
  </outline>
</glyph>
<glyph name="hyphen" format="1">
  <advance width="555.5555555555555"/>
  <unicode hex="002D"/>
  <outline>
    <contour>
      <point x="111" y="278" type="curve"/>
      <point x="167" y="278" type="line"/>
      <point x="136" y="278"/>
      <point x="111" y="302"/>
      <point x="111" y="333" type="curve"/>
      <point x="222" y="333" type="line"/>
      <point x="222" y="302"/>
      <point x="198" y="278"/>
      <point x="167" y="278" type="curve"/>
      <point x="222" y="278" type="line"/>
      <point x="222" y="247"/>
      <point x="198" y="222"/>
      <point x="167" y="222" type="curve" smooth="yes"/>
      <point x="136" y="222"/>
      <point x="111" y="247"/>
    </contour>
    <contour>
      <point x="278" y="222" type="line"/>
      <point x="247" y="222"/>
      <point x="222" y="247"/>
      <point x="222" y="278" type="curve" smooth="yes"/>
      <point x="222" y="309"/>
      <point x="247" y="333"/>
      <point x="278" y="333" type="curve"/>
      <point x="278" y="278" type="line"/>
      <point x="278" y="309"/>
      <point x="302" y="333"/>
      <point x="333" y="333" type="curve"/>
      <point x="333" y="222" type="line"/>
      <point x="302" y="222"/>
      <point x="278" y="247"/>
      <point x="278" y="278" type="curve"/>
    </contour>
    <contour>
      <point x="333" y="278" type="curve" smooth="yes"/>
      <point x="333" y="309"/>
      <point x="358" y="333"/>
      <point x="389" y="333" type="curve" smooth="yes"/>
      <point x="420" y="333"/>
      <point x="444" y="309"/>
      <point x="444" y="278" type="curve" smooth="yes"/>
      <point x="444" y="247"/>
      <point x="420" y="222"/>
      <point x="389" y="222" type="curve" smooth="yes"/>
      <point x="358" y="222"/>
      <point x="333" y="247"/>
    </contour>
  </outline>
</glyph>
<glyph name="period" format="1">
  <advance width="333.33333333333337"/>
  <unicode hex="002E"/>
  <outline>
    <contour>
      <point x="111" y="56" type="curve" smooth="yes"/>
      <point x="111" y="87"/>
      <point x="136" y="111"/>
      <point x="167" y="111" type="curve" smooth="yes"/>
      <point x="198" y="111"/>
      <point x="222" y="87"/>
      <point x="222" y="56" type="curve" smooth="yes"/>
      <point x="222" y="24"/>
      <point x="198" y="0"/>
      <point x="167" y="0" type="curve" smooth="yes"/>
      <point x="136" y="0"/>
      <point x="111" y="24"/>
    </contour>
  </outline>
</glyph>
<glyph name="slash" format="1">
  <advance width="1000"/>
  <unicode hex="002F"/>
  <outline>
    <contour>
      <point x="111" y="0" type="line"/>
      <point x="111" y="111" type="line"/>
      <point x="222" y="111" type="line"/>
      <point x="222" y="0" type="line"/>
    </contour>
    <contour>
      <point x="278" y="222" type="line"/>
      <point x="278" y="222"/>
      <point x="333" y="167"/>
      <point x="333" y="167" type="curve"/>
      <point x="333" y="167"/>
      <point x="278" y="111"/>
      <point x="278" y="111" type="curve"/>
      <point x="278" y="167" type="line"/>
      <point x="278" y="167"/>
      <point x="222" y="111"/>
      <point x="222" y="111" type="curve"/>
      <point x="222" y="222" type="line"/>
      <point x="222" y="222"/>
      <point x="278" y="167"/>
      <point x="278" y="167" type="curve"/>
    </contour>
    <contour>
      <point x="333" y="333" type="line"/>
      <point x="444" y="333" type="line"/>
      <point x="444" y="271"/>
      <point x="396" y="222"/>
      <point x="333" y="222" type="curve"/>
    </contour>
    <contour>
      <point x="500" y="444" type="line"/>
      <point x="500" y="444"/>
      <point x="556" y="389"/>
      <point x="556" y="389" type="curve"/>
      <point x="556" y="389"/>
      <point x="500" y="333"/>
      <point x="500" y="333" type="curve"/>
      <point x="500" y="389" type="line"/>
      <point x="500" y="389"/>
      <point x="444" y="333"/>
      <point x="444" y="333" type="curve"/>
      <point x="444" y="444" type="line"/>
      <point x="444" y="444"/>
      <point x="500" y="389"/>
      <point x="500" y="389" type="curve"/>
    </contour>
    <contour>
      <point x="611" y="556" type="line"/>
      <point x="642" y="556"/>
      <point x="667" y="531"/>
      <point x="667" y="500" type="curve" smooth="yes"/>
      <point x="667" y="469"/>
      <point x="642" y="444"/>
      <point x="611" y="444" type="curve"/>
      <point x="611" y="500" type="line"/>
      <point x="611" y="469"/>
      <point x="587" y="444"/>
      <point x="556" y="444" type="curve"/>
      <point x="556" y="556" type="line"/>
      <point x="587" y="556"/>
      <point x="611" y="531"/>
      <point x="611" y="500" type="curve"/>
    </contour>
    <contour>
      <point x="722" y="556" type="line"/>
      <point x="691" y="556"/>
      <point x="667" y="580"/>
      <point x="667" y="611" type="curve" smooth="yes"/>
      <point x="667" y="642"/>
      <point x="691" y="667"/>
      <point x="722" y="667" type="curve"/>
      <point x="722" y="611" type="line"/>
      <point x="722" y="642"/>
      <point x="747" y="667"/>
      <point x="778" y="667" type="curve"/>
      <point x="778" y="556" type="line"/>
      <point x="747" y="556"/>
      <point x="722" y="580"/>
      <point x="722" y="611" type="curve"/>
    </contour>
    <contour>
      <point x="778" y="667" type="line"/>
      <point x="778" y="778" type="line"/>
      <point x="840" y="778"/>
      <point x="889" y="729"/>
      <point x="889" y="667" type="curve"/>
    </contour>
  </outline>
</glyph>
<glyph name="one" format="1">
  <advance width="777.7777777777778"/>
  <unicode hex="0031"/>
  <outline>
    <contour>
      <point x="111" y="56" type="curve"/>
      <point x="167" y="56" type="line"/>
      <point x="167" y="56"/>
      <point x="111" y="111"/>
      <point x="111" y="111" type="curve"/>
      <point x="222" y="111" type="line"/>
      <point x="222" y="111"/>
      <point x="167" y="56"/>
      <point x="167" y="56" type="curve"/>
      <point x="222" y="56" type="line"/>
      <point x="222" y="56"/>
      <point x="167" y="0"/>
      <point x="167" y="0" type="curve"/>
      <point x="167" y="0"/>
      <point x="111" y="56"/>
    </contour>
    <contour>
      <point x="222" y="56" type="line"/>
      <point x="222" y="87"/>
      <point x="247" y="111"/>
      <point x="278" y="111" type="curve" smooth="yes"/>
      <point x="309" y="111"/>
      <point x="333" y="87"/>
      <point x="333" y="56" type="curve"/>
      <point x="278" y="56" type="line"/>
      <point x="309" y="56"/>
      <point x="333" y="31"/>
      <point x="333" y="0" type="curve"/>
      <point x="222" y="0" type="line"/>
      <point x="222" y="31"/>
      <point x="247" y="56"/>
      <point x="278" y="56" type="curve"/>
    </contour>
    <contour>
      <point x="333" y="0" type="line"/>
      <point x="333" y="111" type="line"/>
      <point x="444" y="111" type="line"/>
      <point x="444" y="0" type="line"/>
    </contour>
    <contour>
      <point x="444" y="56" type="curve" smooth="yes"/>
      <point x="444" y="87"/>
      <point x="469" y="111"/>
      <point x="500" y="111" type="curve" smooth="yes"/>
      <point x="531" y="111"/>
      <point x="556" y="87"/>
      <point x="556" y="56" type="curve" smooth="yes"/>
      <point x="556" y="24"/>
      <point x="531" y="0"/>
      <point x="500" y="0" type="curve" smooth="yes"/>
      <point x="469" y="0"/>
      <point x="444" y="24"/>
    </contour>
    <contour>
      <point x="556" y="111" type="line"/>
      <point x="667" y="111" type="line"/>
      <point x="667" y="49"/>
      <point x="618" y="0"/>
      <point x="556" y="0" type="curve"/>
    </contour>
    <contour>
      <point x="333" y="111" type="line"/>
      <point x="333" y="222" type="line"/>
      <point x="396" y="222"/>
      <point x="444" y="173"/>
      <point x="444" y="111" type="curve"/>
    </contour>
    <contour>
      <point x="444" y="333" type="line"/>
      <point x="444" y="222" type="line"/>
      <point x="382" y="222"/>
      <point x="333" y="271"/>
      <point x="333" y="333" type="curve"/>
    </contour>
    <contour>
      <point x="333" y="389" type="curve" smooth="yes"/>
      <point x="333" y="420"/>
      <point x="358" y="444"/>
      <point x="389" y="444" type="curve" smooth="yes"/>
      <point x="420" y="444"/>
      <point x="444" y="420"/>
      <point x="444" y="389" type="curve" smooth="yes"/>
      <point x="444" y="358"/>
      <point x="420" y="333"/>
      <point x="389" y="333" type="curve" smooth="yes"/>
      <point x="358" y="333"/>
      <point x="333" y="358"/>
    </contour>
    <contour>
      <point x="389" y="556" type="line"/>
      <point x="389" y="556"/>
      <point x="444" y="500"/>
      <point x="444" y="500" type="curve"/>
      <point x="444" y="500"/>
      <point x="389" y="444"/>
      <point x="389" y="444" type="curve"/>
      <point x="389" y="500" type="line"/>
      <point x="389" y="500"/>
      <point x="333" y="444"/>
      <point x="333" y="444" type="curve"/>
      <point x="333" y="556" type="line"/>
      <point x="333" y="556"/>
      <point x="389" y="500"/>
      <point x="389" y="500" type="curve"/>
    </contour>
    <contour>
      <point x="333" y="667" type="line"/>
      <point x="444" y="667" type="line"/>
      <point x="444" y="604"/>
      <point x="396" y="556"/>
      <point x="333" y="556" type="curve"/>
    </contour>
    <contour>
      <point x="167" y="778" type="line"/>
      <point x="198" y="778"/>
      <point x="222" y="753"/>
      <point x="222" y="722" type="curve" smooth="yes"/>
      <point x="222" y="691"/>
      <point x="198" y="667"/>
      <point x="167" y="667" type="curve"/>
      <point x="167" y="722" type="line"/>
      <point x="167" y="691"/>
      <point x="142" y="667"/>
      <point x="111" y="667" type="curve"/>
      <point x="111" y="778" type="line"/>
      <point x="142" y="778"/>
      <point x="167" y="753"/>
      <point x="167" y="722" type="curve"/>
    </contour>
    <contour>
      <point x="333" y="667" type="line"/>
      <point x="222" y="667" type="line"/>
      <point x="222" y="729"/>
      <point x="271" y="778"/>
      <point x="333" y="778" type="curve"/>
    </contour>
    <contour>
      <point x="333" y="722" type="line"/>
      <point x="333" y="722"/>
      <point x="389" y="778"/>
      <point x="389" y="778" type="curve"/>
      <point x="389" y="778"/>
      <point x="444" y="722"/>
      <point x="444" y="722" type="curve"/>
      <point x="389" y="722" type="line"/>
      <point x="389" y="722"/>
      <point x="444" y="667"/>
      <point x="444" y="667" type="curve"/>
      <point x="333" y="667" type="line"/>
      <point x="333" y="667"/>
      <point x="389" y="722"/>
      <point x="389" y="722" type="curve"/>
    </contour>
  </outline>
</glyph>
<glyph name="two" format="1">
  <advance width="777.7777777777778"/>
  <unicode hex="0032"/>
  <outline>
    <contour>
      <point x="111" y="0" type="line"/>
      <point x="111" y="111" type="line"/>
      <point x="222" y="111" type="line"/>
      <point x="222" y="0" type="line"/>
    </contour>
    <contour>
      <point x="222" y="0" type="line"/>
      <point x="222" y="111" type="line"/>
      <point x="284" y="111"/>
      <point x="333" y="62"/>
      <point x="333" y="0" type="curve"/>
    </contour>
    <contour>
      <point x="333" y="0" type="line"/>
      <point x="333" y="111" type="line"/>
      <point x="444" y="111" type="line"/>
      <point x="444" y="0" type="line"/>
    </contour>
    <contour>
      <point x="444" y="56" type="curve" smooth="yes"/>
      <point x="444" y="87"/>
      <point x="469" y="111"/>
      <point x="500" y="111" type="curve" smooth="yes"/>
      <point x="531" y="111"/>
      <point x="556" y="87"/>
      <point x="556" y="56" type="curve" smooth="yes"/>
      <point x="556" y="24"/>
      <point x="531" y="0"/>
      <point x="500" y="0" type="curve" smooth="yes"/>
      <point x="469" y="0"/>
      <point x="444" y="24"/>
    </contour>
    <contour>
      <point x="667" y="111" type="line"/>
      <point x="667" y="0" type="line"/>
      <point x="604" y="0"/>
      <point x="556" y="49"/>
      <point x="556" y="111" type="curve"/>
    </contour>
    <contour>
      <point x="111" y="167" type="curve" smooth="yes"/>
      <point x="111" y="198"/>
      <point x="136" y="222"/>
      <point x="167" y="222" type="curve" smooth="yes"/>
      <point x="198" y="222"/>
      <point x="222" y="198"/>
      <point x="222" y="167" type="curve" smooth="yes"/>
      <point x="222" y="136"/>
      <point x="198" y="111"/>
      <point x="167" y="111" type="curve" smooth="yes"/>
      <point x="136" y="111"/>
      <point x="111" y="136"/>
    </contour>
    <contour>
      <point x="611" y="111" type="line"/>
      <point x="611" y="111"/>
      <point x="556" y="167"/>
      <point x="556" y="167" type="curve"/>
      <point x="556" y="167"/>
      <point x="611" y="222"/>
      <point x="611" y="222" type="curve"/>
      <point x="611" y="167" type="line"/>
      <point x="611" y="167"/>
      <point x="667" y="222"/>
      <point x="667" y="222" type="curve"/>
      <point x="667" y="111" type="line"/>
      <point x="667" y="111"/>
      <point x="611" y="167"/>
      <point x="611" y="167" type="curve"/>
    </contour>
    <contour>
      <point x="222" y="278" type="line"/>
      <point x="222" y="309"/>
      <point x="247" y="333"/>
      <point x="278" y="333" type="curve" smooth="yes"/>
      <point x="309" y="333"/>
      <point x="333" y="309"/>
      <point x="333" y="278" type="curve"/>
      <point x="278" y="278" type="line"/>
      <point x="309" y="278"/>
      <point x="333" y="253"/>
      <point x="333" y="222" type="curve"/>
      <point x="222" y="222" type="line"/>
      <point x="222" y="253"/>
      <point x="247" y="278"/>
      <point x="278" y="278" type="curve"/>
    </contour>
    <contour>
      <point x="444" y="333" type="line"/>
      <point x="333" y="333" type="line"/>
      <point x="333" y="396"/>
      <point x="382" y="444"/>
      <point x="444" y="444" type="curve"/>
    </contour>
    <contour>
      <point x="444" y="444" type="line"/>
      <point x="444" y="556" type="line"/>
      <point x="556" y="556" type="line"/>
      <point x="556" y="444" type="line"/>
    </contour>
    <contour>
      <point x="167" y="556" type="line"/>
      <point x="136" y="556"/>
      <point x="111" y="580"/>
      <point x="111" y="611" type="curve" smooth="yes"/>
      <point x="111" y="642"/>
      <point x="136" y="667"/>
      <point x="167" y="667" type="curve"/>
      <point x="167" y="611" type="line"/>
      <point x="167" y="642"/>
      <point x="191" y="667"/>
      <point x="222" y="667" type="curve"/>
      <point x="222" y="556" type="line"/>
      <point x="191" y="556"/>
      <point x="167" y="580"/>
      <point x="167" y="611" type="curve"/>
    </contour>
    <contour>
      <point x="556" y="556" type="line"/>
      <point x="556" y="667" type="line"/>
      <point x="667" y="667" type="line"/>
      <point x="667" y="556" type="line"/>
    </contour>
    <contour>
      <point x="278" y="778" type="line"/>
      <point x="309" y="778"/>
      <point x="333" y="753"/>
      <point x="333" y="722" type="curve" smooth="yes"/>
      <point x="333" y="691"/>
      <point x="309" y="667"/>
      <point x="278" y="667" type="curve"/>
      <point x="278" y="722" type="line"/>
      <point x="278" y="691"/>
      <point x="253" y="667"/>
      <point x="222" y="667" type="curve"/>
      <point x="222" y="778" type="line"/>
      <point x="253" y="778"/>
      <point x="278" y="753"/>
      <point x="278" y="722" type="curve"/>
    </contour>
    <contour>
      <point x="389" y="667" type="line"/>
      <point x="358" y="667"/>
      <point x="333" y="691"/>
      <point x="333" y="722" type="curve" smooth="yes"/>
      <point x="333" y="753"/>
      <point x="358" y="778"/>
      <point x="389" y="778" type="curve"/>
      <point x="389" y="722" type="line"/>
      <point x="389" y="753"/>
      <point x="413" y="778"/>
      <point x="444" y="778" type="curve"/>
      <point x="444" y="667" type="line"/>
      <point x="413" y="667"/>
      <point x="389" y="691"/>
      <point x="389" y="722" type="curve"/>
    </contour>
    <contour>
      <point x="444" y="722" type="line"/>
      <point x="444" y="753"/>
      <point x="469" y="778"/>
      <point x="500" y="778" type="curve" smooth="yes"/>
      <point x="531" y="778"/>
      <point x="556" y="753"/>
      <point x="556" y="722" type="curve"/>
      <point x="500" y="722" type="line"/>
      <point x="531" y="722"/>
      <point x="556" y="698"/>
      <point x="556" y="667" type="curve"/>
      <point x="444" y="667" type="line"/>
      <point x="444" y="698"/>
      <point x="469" y="722"/>
      <point x="500" y="722" type="curve"/>
    </contour>
  </outline>
</glyph>
<glyph name="five" format="1">
  <advance width="777.7777777777778"/>
  <unicode hex="0035"/>
  <outline>
    <contour>
      <point x="167" y="0" type="line"/>
      <point x="167" y="0"/>
      <point x="111" y="56"/>
      <point x="111" y="56" type="curve"/>
      <point x="111" y="56"/>
      <point x="167" y="111"/>
      <point x="167" y="111" type="curve"/>
      <point x="167" y="56" type="line"/>
      <point x="167" y="56"/>
      <point x="222" y="111"/>
      <point x="222" y="111" type="curve"/>
      <point x="222" y="0" type="line"/>
      <point x="222" y="0"/>
      <point x="167" y="56"/>
      <point x="167" y="56" type="curve"/>
    </contour>
    <contour>
      <point x="278" y="0" type="line"/>
      <point x="278" y="0"/>
      <point x="222" y="56"/>
      <point x="222" y="56" type="curve"/>
      <point x="222" y="56"/>
      <point x="278" y="111"/>
      <point x="278" y="111" type="curve"/>
      <point x="278" y="56" type="line"/>
      <point x="278" y="56"/>
      <point x="333" y="111"/>
      <point x="333" y="111" type="curve"/>
      <point x="333" y="0" type="line"/>
      <point x="333" y="0"/>
      <point x="278" y="56"/>
      <point x="278" y="56" type="curve"/>
    </contour>
    <contour>
      <point x="444" y="111" type="line"/>
      <point x="444" y="0" type="line"/>
      <point x="382" y="0"/>
      <point x="333" y="49"/>
      <point x="333" y="111" type="curve"/>
    </contour>
    <contour>
      <point x="444" y="56" type="curve"/>
      <point x="500" y="56" type="line"/>
      <point x="469" y="56"/>
      <point x="444" y="80"/>
      <point x="444" y="111" type="curve"/>
      <point x="556" y="111" type="line"/>
      <point x="556" y="80"/>
      <point x="531" y="56"/>
      <point x="500" y="56" type="curve"/>
      <point x="556" y="56" type="line"/>
      <point x="556" y="24"/>
      <point x="531" y="0"/>
      <point x="500" y="0" type="curve" smooth="yes"/>
      <point x="469" y="0"/>
      <point x="444" y="24"/>
    </contour>
    <contour>
      <point x="111" y="167" type="curve" smooth="yes"/>
      <point x="111" y="198"/>
      <point x="136" y="222"/>
      <point x="167" y="222" type="curve" smooth="yes"/>
      <point x="198" y="222"/>
      <point x="222" y="198"/>
      <point x="222" y="167" type="curve" smooth="yes"/>
      <point x="222" y="136"/>
      <point x="198" y="111"/>
      <point x="167" y="111" type="curve" smooth="yes"/>
      <point x="136" y="111"/>
      <point x="111" y="136"/>
    </contour>
    <contour>
      <point x="556" y="111" type="line"/>
      <point x="556" y="222" type="line"/>
      <point x="618" y="222"/>
      <point x="667" y="173"/>
      <point x="667" y="111" type="curve"/>
    </contour>
    <contour>
      <point x="556" y="278" type="line"/>
      <point x="556" y="309"/>
      <point x="580" y="333"/>
      <point x="611" y="333" type="curve" smooth="yes"/>
      <point x="642" y="333"/>
      <point x="667" y="309"/>
      <point x="667" y="278" type="curve"/>
      <point x="611" y="278" type="line"/>
      <point x="642" y="278"/>
      <point x="667" y="253"/>
      <point x="667" y="222" type="curve"/>
      <point x="556" y="222" type="line"/>
      <point x="556" y="253"/>
      <point x="580" y="278"/>
      <point x="611" y="278" type="curve"/>
    </contour>
    <contour>
      <point x="222" y="333" type="line"/>
      <point x="111" y="333" type="line"/>
      <point x="111" y="396"/>
      <point x="160" y="444"/>
      <point x="222" y="444" type="curve"/>
    </contour>
    <contour>
      <point x="222" y="333" type="line"/>
      <point x="222" y="444" type="line"/>
      <point x="333" y="444" type="line"/>
      <point x="333" y="333" type="line"/>
    </contour>
    <contour>
      <point x="444" y="333" type="line"/>
      <point x="333" y="333" type="line"/>
      <point x="333" y="396"/>
      <point x="382" y="444"/>
      <point x="444" y="444" type="curve"/>
    </contour>
    <contour>
      <point x="500" y="333" type="line"/>
      <point x="469" y="333"/>
      <point x="444" y="358"/>
      <point x="444" y="389" type="curve" smooth="yes"/>
      <point x="444" y="420"/>
      <point x="469" y="444"/>
      <point x="500" y="444" type="curve"/>
      <point x="500" y="389" type="line"/>
      <point x="500" y="420"/>
      <point x="524" y="444"/>
      <point x="556" y="444" type="curve"/>
      <point x="556" y="333" type="line"/>
      <point x="524" y="333"/>
      <point x="500" y="358"/>
      <point x="500" y="389" type="curve"/>
    </contour>
    <contour>
      <point x="167" y="444" type="line"/>
      <point x="167" y="444"/>
      <point x="111" y="500"/>
      <point x="111" y="500" type="curve"/>
      <point x="111" y="500"/>
      <point x="167" y="556"/>
      <point x="167" y="556" type="curve"/>
      <point x="167" y="500" type="line"/>
      <point x="167" y="500"/>
      <point x="222" y="556"/>
      <point x="222" y="556" type="curve"/>
      <point x="222" y="444" type="line"/>
      <point x="222" y="444"/>
      <point x="167" y="500"/>
      <point x="167" y="500" type="curve"/>
    </contour>
    <contour>
      <point x="167" y="556" type="line"/>
      <point x="167" y="556"/>
      <point x="111" y="611"/>
      <point x="111" y="611" type="curve"/>
      <point x="111" y="611"/>
      <point x="167" y="667"/>
      <point x="167" y="667" type="curve"/>
      <point x="167" y="611" type="line"/>
      <point x="167" y="611"/>
      <point x="222" y="667"/>
      <point x="222" y="667" type="curve"/>
      <point x="222" y="556" type="line"/>
      <point x="222" y="556"/>
      <point x="167" y="611"/>
      <point x="167" y="611" type="curve"/>
    </contour>
    <contour>
      <point x="556" y="556" type="line"/>
      <point x="556" y="667" type="line"/>
      <point x="667" y="667" type="line"/>
      <point x="667" y="556" type="line"/>
    </contour>
    <contour>
      <point x="111" y="667" type="line"/>
      <point x="111" y="778" type="line"/>
      <point x="222" y="778" type="line"/>
      <point x="222" y="667" type="line"/>
    </contour>
    <contour>
      <point x="222" y="722" type="curve" smooth="yes"/>
      <point x="222" y="753"/>
      <point x="247" y="778"/>
      <point x="278" y="778" type="curve" smooth="yes"/>
      <point x="309" y="778"/>
      <point x="333" y="753"/>
      <point x="333" y="722" type="curve" smooth="yes"/>
      <point x="333" y="691"/>
      <point x="309" y="667"/>
      <point x="278" y="667" type="curve" smooth="yes"/>
      <point x="247" y="667"/>
      <point x="222" y="691"/>
    </contour>
    <contour>
      <point x="333" y="722" type="curve" smooth="yes"/>
      <point x="333" y="753"/>
      <point x="358" y="778"/>
      <point x="389" y="778" type="curve" smooth="yes"/>
      <point x="420" y="778"/>
      <point x="444" y="753"/>
      <point x="444" y="722" type="curve" smooth="yes"/>
      <point x="444" y="691"/>
      <point x="420" y="667"/>
      <point x="389" y="667" type="curve" smooth="yes"/>
      <point x="358" y="667"/>
      <point x="333" y="691"/>
    </contour>
    <contour>
      <point x="556" y="778" type="line"/>
      <point x="556" y="667" type="line"/>
      <point x="493" y="667"/>
      <point x="444" y="716"/>
      <point x="444" y="778" type="curve"/>
    </contour>
    <contour>
      <point x="611" y="778" type="line"/>
      <point x="642" y="778"/>
      <point x="667" y="753"/>
      <point x="667" y="722" type="curve" smooth="yes"/>
      <point x="667" y="691"/>
      <point x="642" y="667"/>
      <point x="611" y="667" type="curve"/>
      <point x="611" y="722" type="line"/>
      <point x="611" y="691"/>
      <point x="587" y="667"/>
      <point x="556" y="667" type="curve"/>
      <point x="556" y="778" type="line"/>
      <point x="587" y="778"/>
      <point x="611" y="753"/>
      <point x="611" y="722" type="curve"/>
    </contour>
  </outline>
</glyph>
<glyph name="colon" format="1">
  <advance width="333.33333333333337"/>
  <unicode hex="003A"/>
  <outline>
    <contour>
      <point x="111" y="56" type="curve"/>
      <point x="167" y="56" type="line"/>
      <point x="167" y="56"/>
      <point x="111" y="111"/>
      <point x="111" y="111" type="curve"/>
      <point x="222" y="111" type="line"/>
      <point x="222" y="111"/>
      <point x="167" y="56"/>
      <point x="167" y="56" type="curve"/>
      <point x="222" y="56" type="line"/>
      <point x="222" y="56"/>
      <point x="167" y="0"/>
      <point x="167" y="0" type="curve"/>
      <point x="167" y="0"/>
      <point x="111" y="56"/>
    </contour>
    <contour>
      <point x="111" y="500" type="line"/>
      <point x="111" y="500"/>
      <point x="167" y="556"/>
      <point x="167" y="556" type="curve"/>
      <point x="167" y="556"/>
      <point x="222" y="500"/>
      <point x="222" y="500" type="curve"/>
      <point x="167" y="500" type="line"/>
      <point x="167" y="500"/>
      <point x="222" y="444"/>
      <point x="222" y="444" type="curve"/>
      <point x="111" y="444" type="line"/>
      <point x="111" y="444"/>
      <point x="167" y="500"/>
      <point x="167" y="500" type="curve"/>
    </contour>
  </outline>
</glyph>
<glyph name="semicolon" format="1">
  <advance width="444.44444444444446"/>
  <unicode hex="003B"/>
  <outline>
    <contour>
      <point x="167" y="-111" type="line"/>
      <point x="167" y="-111"/>
      <point x="222" y="-167"/>
      <point x="222" y="-167" type="curve"/>
      <point x="222" y="-167"/>
      <point x="167" y="-222"/>
      <point x="167" y="-222" type="curve"/>
      <point x="167" y="-167" type="line"/>
      <point x="167" y="-167"/>
      <point x="111" y="-222"/>
      <point x="111" y="-222" type="curve"/>
      <point x="111" y="-111" type="line"/>
      <point x="111" y="-111"/>
      <point x="167" y="-167"/>
      <point x="167" y="-167" type="curve"/>
    </contour>
    <contour>
      <point x="222" y="-222" type="line"/>
      <point x="222" y="-111" type="line"/>
      <point x="333" y="-111" type="line"/>
      <point x="333" y="-222" type="line"/>
    </contour>
    <contour>
      <point x="333" y="0" type="line"/>
      <point x="333" y="-111" type="line"/>
      <point x="271" y="-111"/>
      <point x="222" y="-62"/>
      <point x="222" y="0" type="curve"/>
    </contour>
    <contour>
      <point x="222" y="56" type="curve" smooth="yes"/>
      <point x="222" y="87"/>
      <point x="247" y="111"/>
      <point x="278" y="111" type="curve" smooth="yes"/>
      <point x="309" y="111"/>
      <point x="333" y="87"/>
      <point x="333" y="56" type="curve" smooth="yes"/>
      <point x="333" y="24"/>
      <point x="309" y="0"/>
      <point x="278" y="0" type="curve" smooth="yes"/>
      <point x="247" y="0"/>
      <point x="222" y="24"/>
    </contour>
    <contour>
      <point x="222" y="333" type="line"/>
      <point x="222" y="444" type="line"/>
      <point x="333" y="444" type="line"/>
      <point x="333" y="333" type="line"/>
    </contour>
  </outline>
</glyph>
<glyph name="question" format="1">
  <advance width="778"/>
  <unicode hex="003F"/>
  <outline>
    <contour>
      <point x="333" y="56" type="curve" smooth="yes"/>
      <point x="333" y="87"/>
      <point x="358" y="111"/>
      <point x="389" y="111" type="curve" smooth="yes"/>
      <point x="420" y="111"/>
      <point x="444" y="87"/>
      <point x="444" y="56" type="curve" smooth="yes"/>
      <point x="444" y="24"/>
      <point x="420" y="0"/>
      <point x="389" y="0" type="curve" smooth="yes"/>
      <point x="358" y="0"/>
      <point x="333" y="24"/>
    </contour>
    <contour>
      <point x="444" y="222" type="line"/>
      <point x="333" y="222" type="line"/>
      <point x="333" y="284"/>
      <point x="382" y="333"/>
      <point x="444" y="333" type="curve"/>
    </contour>
    <contour>
      <point x="444" y="333" type="line"/>
      <point x="444" y="444" type="line"/>
      <point x="556" y="444" type="line"/>
      <point x="556" y="333" type="line"/>
    </contour>
    <contour>
      <point x="611" y="444" type="line"/>
      <point x="580" y="444"/>
      <point x="556" y="469"/>
      <point x="556" y="500" type="curve" smooth="yes"/>
      <point x="556" y="531"/>
      <point x="580" y="556"/>
      <point x="611" y="556" type="curve"/>
      <point x="611" y="500" type="line"/>
      <point x="611" y="531"/>
      <point x="636" y="556"/>
      <point x="667" y="556" type="curve"/>
      <point x="667" y="444" type="line"/>
      <point x="636" y="444"/>
      <point x="611" y="469"/>
      <point x="611" y="500" type="curve"/>
    </contour>
    <contour>
      <point x="111" y="556" type="line"/>
      <point x="111" y="667" type="line"/>
      <point x="222" y="667" type="line"/>
      <point x="222" y="556" type="line"/>
    </contour>
    <contour>
      <point x="556" y="556" type="line"/>
      <point x="556" y="667" type="line"/>
      <point x="667" y="667" type="line"/>
      <point x="667" y="556" type="line"/>
    </contour>
    <contour>
      <point x="222" y="722" type="curve"/>
      <point x="278" y="722" type="line"/>
      <point x="247" y="722"/>
      <point x="222" y="747"/>
      <point x="222" y="778" type="curve"/>
      <point x="333" y="778" type="line"/>
      <point x="333" y="747"/>
      <point x="309" y="722"/>
      <point x="278" y="722" type="curve"/>
      <point x="333" y="722" type="line"/>
      <point x="333" y="691"/>
      <point x="309" y="667"/>
      <point x="278" y="667" type="curve" smooth="yes"/>
      <point x="247" y="667"/>
      <point x="222" y="691"/>
    </contour>
    <contour>
      <point x="333" y="667" type="line"/>
      <point x="333" y="778" type="line"/>
      <point x="444" y="778" type="line"/>
      <point x="444" y="667" type="line"/>
    </contour>
    <contour>
      <point x="556" y="667" type="line"/>
      <point x="444" y="667" type="line"/>
      <point x="444" y="729"/>
      <point x="493" y="778"/>
      <point x="556" y="778" type="curve"/>
    </contour>
  </outline>
</glyph>
<glyph name="at" format="1">
  <advance width="1333"/>
  <unicode hex="0040"/>
  <outline>
    <contour>
      <point x="222" y="-222" type="line"/>
      <point x="222" y="-111" type="line"/>
      <point x="333" y="-111" type="line"/>
      <point x="333" y="-222" type="line"/>
    </contour>
    <contour>
      <point x="333" y="-167" type="curve"/>
      <point x="389" y="-167" type="line"/>
      <point x="389" y="-167"/>
      <point x="333" y="-111"/>
      <point x="333" y="-111" type="curve"/>
      <point x="444" y="-111" type="line"/>
      <point x="444" y="-111"/>
      <point x="389" y="-167"/>
      <point x="389" y="-167" type="curve"/>
      <point x="444" y="-167" type="line"/>
      <point x="444" y="-167"/>
      <point x="389" y="-222"/>
      <point x="389" y="-222" type="curve"/>
      <point x="389" y="-222"/>
      <point x="333" y="-167"/>
    </contour>
    <contour>
      <point x="444" y="-167" type="curve"/>
      <point x="500" y="-167" type="line"/>
      <point x="500" y="-167"/>
      <point x="444" y="-111"/>
      <point x="444" y="-111" type="curve"/>
      <point x="556" y="-111" type="line"/>
      <point x="556" y="-111"/>
      <point x="500" y="-167"/>
      <point x="500" y="-167" type="curve"/>
      <point x="556" y="-167" type="line"/>
      <point x="556" y="-167"/>
      <point x="500" y="-222"/>
      <point x="500" y="-222" type="curve"/>
      <point x="500" y="-222"/>
      <point x="444" y="-167"/>
    </contour>
    <contour>
      <point x="556" y="-222" type="line"/>
      <point x="556" y="-111" type="line"/>
      <point x="667" y="-111" type="line"/>
      <point x="667" y="-222" type="line"/>
    </contour>
    <contour>
      <point x="667" y="-222" type="line"/>
      <point x="667" y="-111" type="line"/>
      <point x="778" y="-111" type="line"/>
      <point x="778" y="-222" type="line"/>
    </contour>
    <contour>
      <point x="778" y="-222" type="line"/>
      <point x="778" y="-111" type="line"/>
      <point x="889" y="-111" type="line"/>
      <point x="889" y="-222" type="line"/>
    </contour>
    <contour>
      <point x="889" y="-167" type="curve" smooth="yes"/>
      <point x="889" y="-136"/>
      <point x="913" y="-111"/>
      <point x="944" y="-111" type="curve" smooth="yes"/>
      <point x="976" y="-111"/>
      <point x="1000" y="-136"/>
      <point x="1000" y="-167" type="curve" smooth="yes"/>
      <point x="1000" y="-198"/>
      <point x="976" y="-222"/>
      <point x="944" y="-222" type="curve" smooth="yes"/>
      <point x="913" y="-222"/>
      <point x="889" y="-198"/>
    </contour>
    <contour>
      <point x="1000" y="-222" type="line"/>
      <point x="1000" y="-111" type="line"/>
      <point x="1111" y="-111" type="line"/>
      <point x="1111" y="-222" type="line"/>
    </contour>
    <contour>
      <point x="1111" y="-167" type="line"/>
      <point x="1111" y="-167"/>
      <point x="1167" y="-111"/>
      <point x="1167" y="-111" type="curve"/>
      <point x="1167" y="-111"/>
      <point x="1222" y="-167"/>
      <point x="1222" y="-167" type="curve"/>
      <point x="1167" y="-167" type="line"/>
      <point x="1167" y="-167"/>
      <point x="1222" y="-222"/>
      <point x="1222" y="-222" type="curve"/>
      <point x="1111" y="-222" type="line"/>
      <point x="1111" y="-222"/>
      <point x="1167" y="-167"/>
      <point x="1167" y="-167" type="curve"/>
    </contour>
    <contour>
      <point x="111" y="-111" type="line"/>
      <point x="111" y="0" type="line"/>
      <point x="222" y="0" type="line"/>
      <point x="222" y="-111" type="line"/>
    </contour>
    <contour>
      <point x="167" y="111" type="line"/>
      <point x="167" y="111"/>
      <point x="222" y="56"/>
      <point x="222" y="56" type="curve"/>
      <point x="222" y="56"/>
      <point x="167" y="0"/>
      <point x="167" y="0" type="curve"/>
      <point x="167" y="56" type="line"/>
      <point x="167" y="56"/>
      <point x="111" y="0"/>
      <point x="111" y="0" type="curve"/>
      <point x="111" y="111" type="line"/>
      <point x="111" y="111"/>
      <point x="167" y="56"/>
      <point x="167" y="56" type="curve"/>
    </contour>
    <contour>
      <point x="444" y="0" type="line"/>
      <point x="444" y="111" type="line"/>
      <point x="556" y="111" type="line"/>
      <point x="556" y="0" type="line"/>
    </contour>
    <contour>
      <point x="556" y="0" type="line"/>
      <point x="556" y="111" type="line"/>
      <point x="667" y="111" type="line"/>
      <point x="667" y="0" type="line"/>
    </contour>
    <contour>
      <point x="667" y="56" type="curve"/>
      <point x="722" y="56" type="line"/>
      <point x="722" y="56"/>
      <point x="667" y="111"/>
      <point x="667" y="111" type="curve"/>
      <point x="778" y="111" type="line"/>
      <point x="778" y="111"/>
      <point x="722" y="56"/>
      <point x="722" y="56" type="curve"/>
      <point x="778" y="56" type="line"/>
      <point x="778" y="56"/>
      <point x="722" y="0"/>
      <point x="722" y="0" type="curve"/>
      <point x="722" y="0"/>
      <point x="667" y="56"/>
    </contour>
    <contour>
      <point x="833" y="111" type="line"/>
      <point x="864" y="111"/>
      <point x="889" y="87"/>
      <point x="889" y="56" type="curve" smooth="yes"/>
      <point x="889" y="24"/>
      <point x="864" y="0"/>
      <point x="833" y="0" type="curve"/>
      <point x="833" y="56" type="line"/>
      <point x="833" y="24"/>
      <point x="809" y="0"/>
      <point x="778" y="0" type="curve"/>
      <point x="778" y="111" type="line"/>
      <point x="809" y="111"/>
      <point x="833" y="87"/>
      <point x="833" y="56" type="curve"/>
    </contour>
    <contour>
      <point x="889" y="111" type="line"/>
      <point x="1000" y="111" type="line"/>
      <point x="1000" y="49"/>
      <point x="951" y="0"/>
      <point x="889" y="0" type="curve"/>
    </contour>
    <contour>
      <point x="1000" y="0" type="line"/>
      <point x="1000" y="111" type="line"/>
      <point x="1062" y="111"/>
      <point x="1111" y="62"/>
      <point x="1111" y="0" type="curve"/>
    </contour>
    <contour>
      <point x="167" y="111" type="line"/>
      <point x="167" y="111"/>
      <point x="111" y="167"/>
      <point x="111" y="167" type="curve"/>
      <point x="111" y="167"/>
      <point x="167" y="222"/>
      <point x="167" y="222" type="curve"/>
      <point x="167" y="167" type="line"/>
      <point x="167" y="167"/>
      <point x="222" y="222"/>
      <point x="222" y="222" type="curve"/>
      <point x="222" y="111" type="line"/>
      <point x="222" y="111"/>
      <point x="167" y="167"/>
      <point x="167" y="167" type="curve"/>
    </contour>
    <contour>
      <point x="444" y="167" type="curve" smooth="yes"/>
      <point x="444" y="198"/>
      <point x="469" y="222"/>
      <point x="500" y="222" type="curve" smooth="yes"/>
      <point x="531" y="222"/>
      <point x="556" y="198"/>
      <point x="556" y="167" type="curve" smooth="yes"/>
      <point x="556" y="136"/>
      <point x="531" y="111"/>
      <point x="500" y="111" type="curve" smooth="yes"/>
      <point x="469" y="111"/>
      <point x="444" y="136"/>
    </contour>
    <contour>
      <point x="833" y="222" type="line"/>
      <point x="864" y="222"/>
      <point x="889" y="198"/>
      <point x="889" y="167" type="curve" smooth="yes"/>
      <point x="889" y="136"/>
      <point x="864" y="111"/>
      <point x="833" y="111" type="curve"/>
      <point x="833" y="167" type="line"/>
      <point x="833" y="136"/>
      <point x="809" y="111"/>
      <point x="778" y="111" type="curve"/>
      <point x="778" y="222" type="line"/>
      <point x="809" y="222"/>
      <point x="833" y="198"/>
      <point x="833" y="167" type="curve"/>
    </contour>
    <contour>
      <point x="1111" y="111" type="line"/>
      <point x="1111" y="222" type="line"/>
      <point x="1222" y="222" type="line"/>
      <point x="1222" y="111" type="line"/>
    </contour>
    <contour>
      <point x="111" y="278" type="curve"/>
      <point x="167" y="278" type="line"/>
      <point x="136" y="278"/>
      <point x="111" y="302"/>
      <point x="111" y="333" type="curve"/>
      <point x="222" y="333" type="line"/>
      <point x="222" y="302"/>
      <point x="198" y="278"/>
      <point x="167" y="278" type="curve"/>
      <point x="222" y="278" type="line"/>
      <point x="222" y="247"/>
      <point x="198" y="222"/>
      <point x="167" y="222" type="curve" smooth="yes"/>
      <point x="136" y="222"/>
      <point x="111" y="247"/>
    </contour>
    <contour>
      <point x="444" y="278" type="line"/>
      <point x="444" y="309"/>
      <point x="469" y="333"/>
      <point x="500" y="333" type="curve" smooth="yes"/>
      <point x="531" y="333"/>
      <point x="556" y="309"/>
      <point x="556" y="278" type="curve"/>
      <point x="500" y="278" type="line"/>
      <point x="531" y="278"/>
      <point x="556" y="253"/>
      <point x="556" y="222" type="curve"/>
      <point x="444" y="222" type="line"/>
      <point x="444" y="253"/>
      <point x="469" y="278"/>
      <point x="500" y="278" type="curve"/>
    </contour>
    <contour>
      <point x="556" y="333" type="line"/>
      <point x="667" y="333" type="line"/>
      <point x="667" y="271"/>
      <point x="618" y="222"/>
      <point x="556" y="222" type="curve"/>
    </contour>
    <contour>
      <point x="667" y="278" type="line"/>
      <point x="667" y="278"/>
      <point x="722" y="333"/>
      <point x="722" y="333" type="curve"/>
      <point x="722" y="333"/>
      <point x="778" y="278"/>
      <point x="778" y="278" type="curve"/>
      <point x="722" y="278" type="line"/>
      <point x="722" y="278"/>
      <point x="778" y="222"/>
      <point x="778" y="222" type="curve"/>
      <point x="667" y="222" type="line"/>
      <point x="667" y="222"/>
      <point x="722" y="278"/>
      <point x="722" y="278" type="curve"/>
    </contour>
    <contour>
      <point x="833" y="222" type="line"/>
      <point x="833" y="222"/>
      <point x="778" y="278"/>
      <point x="778" y="278" type="curve"/>
      <point x="778" y="278"/>
      <point x="833" y="333"/>
      <point x="833" y="333" type="curve"/>
      <point x="833" y="278" type="line"/>
      <point x="833" y="278"/>
      <point x="889" y="333"/>
      <point x="889" y="333" type="curve"/>
      <point x="889" y="222" type="line"/>
      <point x="889" y="222"/>
      <point x="833" y="278"/>
      <point x="833" y="278" type="curve"/>
    </contour>
    <contour>
      <point x="1111" y="278" type="curve" smooth="yes"/>
      <point x="1111" y="309"/>
      <point x="1136" y="333"/>
      <point x="1167" y="333" type="curve" smooth="yes"/>
      <point x="1198" y="333"/>
      <point x="1222" y="309"/>
      <point x="1222" y="278" type="curve" smooth="yes"/>
      <point x="1222" y="247"/>
      <point x="1198" y="222"/>
      <point x="1167" y="222" type="curve" smooth="yes"/>
      <point x="1136" y="222"/>
      <point x="1111" y="247"/>
    </contour>
    <contour>
      <point x="111" y="333" type="line"/>
      <point x="111" y="444" type="line"/>
      <point x="173" y="444"/>
      <point x="222" y="396"/>
      <point x="222" y="333" type="curve"/>
    </contour>
    <contour>
      <point x="889" y="444" type="line"/>
      <point x="889" y="333" type="line"/>
      <point x="827" y="333"/>
      <point x="778" y="382"/>
      <point x="778" y="444" type="curve"/>
    </contour>
    <contour>
      <point x="1111" y="333" type="line"/>
      <point x="1111" y="444" type="line"/>
      <point x="1222" y="444" type="line"/>
      <point x="1222" y="333" type="line"/>
    </contour>
    <contour>
      <point x="111" y="500" type="curve" smooth="yes"/>
      <point x="111" y="531"/>
      <point x="136" y="556"/>
      <point x="167" y="556" type="curve" smooth="yes"/>
      <point x="198" y="556"/>
      <point x="222" y="531"/>
      <point x="222" y="500" type="curve" smooth="yes"/>
      <point x="222" y="469"/>
      <point x="198" y="444"/>
      <point x="167" y="444" type="curve" smooth="yes"/>
      <point x="136" y="444"/>
      <point x="111" y="469"/>
    </contour>
    <contour>
      <point x="444" y="500" type="curve" smooth="yes"/>
      <point x="444" y="531"/>
      <point x="469" y="556"/>
      <point x="500" y="556" type="curve" smooth="yes"/>
      <point x="531" y="556"/>
      <point x="556" y="531"/>
      <point x="556" y="500" type="curve" smooth="yes"/>
      <point x="556" y="469"/>
      <point x="531" y="444"/>
      <point x="500" y="444" type="curve" smooth="yes"/>
      <point x="469" y="444"/>
      <point x="444" y="469"/>
    </contour>
    <contour>
      <point x="611" y="444" type="line"/>
      <point x="611" y="444"/>
      <point x="556" y="500"/>
      <point x="556" y="500" type="curve"/>
      <point x="556" y="500"/>
      <point x="611" y="556"/>
      <point x="611" y="556" type="curve"/>
      <point x="611" y="500" type="line"/>
      <point x="611" y="500"/>
      <point x="667" y="556"/>
      <point x="667" y="556" type="curve"/>
      <point x="667" y="444" type="line"/>
      <point x="667" y="444"/>
      <point x="611" y="500"/>
      <point x="611" y="500" type="curve"/>
    </contour>
    <contour>
      <point x="667" y="444" type="line"/>
      <point x="667" y="556" type="line"/>
      <point x="729" y="556"/>
      <point x="778" y="507"/>
      <point x="778" y="444" type="curve"/>
    </contour>
    <contour>
      <point x="1111" y="444" type="line"/>
      <point x="1111" y="556" type="line"/>
      <point x="1222" y="556" type="line"/>
      <point x="1222" y="444" type="line"/>
    </contour>
    <contour>
      <point x="222" y="667" type="line"/>
      <point x="222" y="556" type="line"/>
      <point x="160" y="556"/>
      <point x="111" y="604"/>
      <point x="111" y="667" type="curve"/>
    </contour>
    <contour>
      <point x="1111" y="611" type="curve" smooth="yes"/>
      <point x="1111" y="642"/>
      <point x="1136" y="667"/>
      <point x="1167" y="667" type="curve" smooth="yes"/>
      <point x="1198" y="667"/>
      <point x="1222" y="642"/>
      <point x="1222" y="611" type="curve" smooth="yes"/>
      <point x="1222" y="580"/>
      <point x="1198" y="556"/>
      <point x="1167" y="556" type="curve" smooth="yes"/>
      <point x="1136" y="556"/>
      <point x="1111" y="580"/>
    </contour>
    <contour>
      <point x="222" y="667" type="line"/>
      <point x="222" y="778" type="line"/>
      <point x="333" y="778" type="line"/>
      <point x="333" y="667" type="line"/>
    </contour>
    <contour>
      <point x="389" y="667" type="line"/>
      <point x="358" y="667"/>
      <point x="333" y="691"/>
      <point x="333" y="722" type="curve" smooth="yes"/>
      <point x="333" y="753"/>
      <point x="358" y="778"/>
      <point x="389" y="778" type="curve"/>
      <point x="389" y="722" type="line"/>
      <point x="389" y="753"/>
      <point x="413" y="778"/>
      <point x="444" y="778" type="curve"/>
      <point x="444" y="667" type="line"/>
      <point x="413" y="667"/>
      <point x="389" y="691"/>
      <point x="389" y="722" type="curve"/>
    </contour>
    <contour>
      <point x="444" y="667" type="line"/>
      <point x="444" y="778" type="line"/>
      <point x="507" y="778"/>
      <point x="556" y="729"/>
      <point x="556" y="667" type="curve"/>
    </contour>
    <contour>
      <point x="611" y="778" type="line"/>
      <point x="611" y="778"/>
      <point x="667" y="722"/>
      <point x="667" y="722" type="curve"/>
      <point x="667" y="722"/>
      <point x="611" y="667"/>
      <point x="611" y="667" type="curve"/>
      <point x="611" y="722" type="line"/>
      <point x="611" y="722"/>
      <point x="556" y="667"/>
      <point x="556" y="667" type="curve"/>
      <point x="556" y="778" type="line"/>
      <point x="556" y="778"/>
      <point x="611" y="722"/>
      <point x="611" y="722" type="curve"/>
    </contour>
    <contour>
      <point x="722" y="778" type="line"/>
      <point x="722" y="778"/>
      <point x="778" y="722"/>
      <point x="778" y="722" type="curve"/>
      <point x="778" y="722"/>
      <point x="722" y="667"/>
      <point x="722" y="667" type="curve"/>
      <point x="722" y="722" type="line"/>
      <point x="722" y="722"/>
      <point x="667" y="667"/>
      <point x="667" y="667" type="curve"/>
      <point x="667" y="778" type="line"/>
      <point x="667" y="778"/>
      <point x="722" y="722"/>
      <point x="722" y="722" type="curve"/>
    </contour>
    <contour>
      <point x="833" y="667" type="line"/>
      <point x="833" y="667"/>
      <point x="778" y="722"/>
      <point x="778" y="722" type="curve"/>
      <point x="778" y="722"/>
      <point x="833" y="778"/>
      <point x="833" y="778" type="curve"/>
      <point x="833" y="722" type="line"/>
      <point x="833" y="722"/>
      <point x="889" y="778"/>
      <point x="889" y="778" type="curve"/>
      <point x="889" y="667" type="line"/>
      <point x="889" y="667"/>
      <point x="833" y="722"/>
      <point x="833" y="722" type="curve"/>
    </contour>
    <contour>
      <point x="944" y="667" type="line"/>
      <point x="913" y="667"/>
      <point x="889" y="691"/>
      <point x="889" y="722" type="curve" smooth="yes"/>
      <point x="889" y="753"/>
      <point x="913" y="778"/>
      <point x="944" y="778" type="curve"/>
      <point x="944" y="722" type="line"/>
      <point x="944" y="753"/>
      <point x="969" y="778"/>
      <point x="1000" y="778" type="curve"/>
      <point x="1000" y="667" type="line"/>
      <point x="969" y="667"/>
      <point x="944" y="691"/>
      <point x="944" y="722" type="curve"/>
    </contour>
    <contour>
      <point x="1000" y="778" type="line"/>
      <point x="1111" y="778" type="line"/>
      <point x="1111" y="716"/>
      <point x="1062" y="667"/>
      <point x="1000" y="667" type="curve"/>
    </contour>
  </outline>
</glyph>
<glyph name="A" format="1">
  <advance width="1000"/>
  <unicode hex="0041"/>
  <outline>
    <contour>
      <point x="111" y="56" type="line"/>
      <point x="111" y="87"/>
      <point x="136" y="111"/>
      <point x="167" y="111" type="curve" smooth="yes"/>
      <point x="198" y="111"/>
      <point x="222" y="87"/>
      <point x="222" y="56" type="curve"/>
      <point x="167" y="56" type="line"/>
      <point x="198" y="56"/>
      <point x="222" y="31"/>
      <point x="222" y="0" type="curve"/>
      <point x="111" y="0" type="line"/>
      <point x="111" y="31"/>
      <point x="136" y="56"/>
      <point x="167" y="56" type="curve"/>
    </contour>
    <contour>
      <point x="222" y="0" type="line"/>
      <point x="222" y="111" type="line"/>
      <point x="284" y="111"/>
      <point x="333" y="62"/>
      <point x="333" y="0" type="curve"/>
    </contour>
    <contour>
      <point x="667" y="111" type="line"/>
      <point x="778" y="111" type="line"/>
      <point x="778" y="49"/>
      <point x="729" y="0"/>
      <point x="667" y="0" type="curve"/>
    </contour>
    <contour>
      <point x="778" y="56" type="curve" smooth="yes"/>
      <point x="778" y="87"/>
      <point x="802" y="111"/>
      <point x="833" y="111" type="curve" smooth="yes"/>
      <point x="864" y="111"/>
      <point x="889" y="87"/>
      <point x="889" y="56" type="curve" smooth="yes"/>
      <point x="889" y="24"/>
      <point x="864" y="0"/>
      <point x="833" y="0" type="curve" smooth="yes"/>
      <point x="802" y="0"/>
      <point x="778" y="24"/>
    </contour>
    <contour>
      <point x="222" y="111" type="line"/>
      <point x="222" y="222" type="line"/>
      <point x="284" y="222"/>
      <point x="333" y="173"/>
      <point x="333" y="111" type="curve"/>
    </contour>
    <contour>
      <point x="778" y="111" type="line"/>
      <point x="667" y="111" type="line"/>
      <point x="667" y="173"/>
      <point x="716" y="222"/>
      <point x="778" y="222" type="curve"/>
    </contour>
    <contour>
      <point x="222" y="222" type="line"/>
      <point x="222" y="333" type="line"/>
      <point x="333" y="333" type="line"/>
      <point x="333" y="222" type="line"/>
    </contour>
    <contour>
      <point x="389" y="222" type="line"/>
      <point x="389" y="222"/>
      <point x="333" y="278"/>
      <point x="333" y="278" type="curve"/>
      <point x="333" y="278"/>
      <point x="389" y="333"/>
      <point x="389" y="333" type="curve"/>
      <point x="389" y="278" type="line"/>
      <point x="389" y="278"/>
      <point x="444" y="333"/>
      <point x="444" y="333" type="curve"/>
      <point x="444" y="222" type="line"/>
      <point x="444" y="222"/>
      <point x="389" y="278"/>
      <point x="389" y="278" type="curve"/>
    </contour>
    <contour>
      <point x="444" y="278" type="line"/>
      <point x="444" y="278"/>
      <point x="500" y="333"/>
      <point x="500" y="333" type="curve"/>
      <point x="500" y="333"/>
      <point x="556" y="278"/>
      <point x="556" y="278" type="curve"/>
      <point x="500" y="278" type="line"/>
      <point x="500" y="278"/>
      <point x="556" y="222"/>
      <point x="556" y="222" type="curve"/>
      <point x="444" y="222" type="line"/>
      <point x="444" y="222"/>
      <point x="500" y="278"/>
      <point x="500" y="278" type="curve"/>
    </contour>
    <contour>
      <point x="556" y="278" type="curve"/>
      <point x="611" y="278" type="line"/>
      <point x="611" y="278"/>
      <point x="556" y="333"/>
      <point x="556" y="333" type="curve"/>
      <point x="667" y="333" type="line"/>
      <point x="667" y="333"/>
      <point x="611" y="278"/>
      <point x="611" y="278" type="curve"/>
      <point x="667" y="278" type="line"/>
      <point x="667" y="278"/>
      <point x="611" y="222"/>
      <point x="611" y="222" type="curve"/>
      <point x="611" y="222"/>
      <point x="556" y="278"/>
    </contour>
    <contour>
      <point x="667" y="333" type="line"/>
      <point x="778" y="333" type="line"/>
      <point x="778" y="271"/>
      <point x="729" y="222"/>
      <point x="667" y="222" type="curve"/>
    </contour>
    <contour>
      <point x="278" y="444" type="line"/>
      <point x="309" y="444"/>
      <point x="333" y="420"/>
      <point x="333" y="389" type="curve" smooth="yes"/>
      <point x="333" y="358"/>
      <point x="309" y="333"/>
      <point x="278" y="333" type="curve"/>
      <point x="278" y="389" type="line"/>
      <point x="278" y="358"/>
      <point x="253" y="333"/>
      <point x="222" y="333" type="curve"/>
      <point x="222" y="444" type="line"/>
      <point x="253" y="444"/>
      <point x="278" y="420"/>
      <point x="278" y="389" type="curve"/>
    </contour>
    <contour>
      <point x="667" y="389" type="line"/>
      <point x="667" y="420"/>
      <point x="691" y="444"/>
      <point x="722" y="444" type="curve" smooth="yes"/>
      <point x="753" y="444"/>
      <point x="778" y="420"/>
      <point x="778" y="389" type="curve"/>
      <point x="722" y="389" type="line"/>
      <point x="753" y="389"/>
      <point x="778" y="364"/>
      <point x="778" y="333" type="curve"/>
      <point x="667" y="333" type="line"/>
      <point x="667" y="364"/>
      <point x="691" y="389"/>
      <point x="722" y="389" type="curve"/>
    </contour>
    <contour>
      <point x="222" y="500" type="curve"/>
      <point x="278" y="500" type="line"/>
      <point x="247" y="500"/>
      <point x="222" y="524"/>
      <point x="222" y="556" type="curve"/>
      <point x="333" y="556" type="line"/>
      <point x="333" y="524"/>
      <point x="309" y="500"/>
      <point x="278" y="500" type="curve"/>
      <point x="333" y="500" type="line"/>
      <point x="333" y="469"/>
      <point x="309" y="444"/>
      <point x="278" y="444" type="curve" smooth="yes"/>
      <point x="247" y="444"/>
      <point x="222" y="469"/>
    </contour>
    <contour>
      <point x="667" y="500" type="curve" smooth="yes"/>
      <point x="667" y="531"/>
      <point x="691" y="556"/>
      <point x="722" y="556" type="curve" smooth="yes"/>
      <point x="753" y="556"/>
      <point x="778" y="531"/>
      <point x="778" y="500" type="curve" smooth="yes"/>
      <point x="778" y="469"/>
      <point x="753" y="444"/>
      <point x="722" y="444" type="curve" smooth="yes"/>
      <point x="691" y="444"/>
      <point x="667" y="469"/>
    </contour>
    <contour>
      <point x="222" y="611" type="curve"/>
      <point x="278" y="611" type="line"/>
      <point x="247" y="611"/>
      <point x="222" y="636"/>
      <point x="222" y="667" type="curve"/>
      <point x="333" y="667" type="line"/>
      <point x="333" y="636"/>
      <point x="309" y="611"/>
      <point x="278" y="611" type="curve"/>
      <point x="333" y="611" type="line"/>
      <point x="333" y="580"/>
      <point x="309" y="556"/>
      <point x="278" y="556" type="curve" smooth="yes"/>
      <point x="247" y="556"/>
      <point x="222" y="580"/>
    </contour>
    <contour>
      <point x="667" y="611" type="curve" smooth="yes"/>
      <point x="667" y="642"/>
      <point x="691" y="667"/>
      <point x="722" y="667" type="curve" smooth="yes"/>
      <point x="753" y="667"/>
      <point x="778" y="642"/>
      <point x="778" y="611" type="curve" smooth="yes"/>
      <point x="778" y="580"/>
      <point x="753" y="556"/>
      <point x="722" y="556" type="curve" smooth="yes"/>
      <point x="691" y="556"/>
      <point x="667" y="580"/>
    </contour>
    <contour>
      <point x="333" y="667" type="line"/>
      <point x="333" y="778" type="line"/>
      <point x="444" y="778" type="line"/>
      <point x="444" y="667" type="line"/>
    </contour>
    <contour>
      <point x="444" y="778" type="line"/>
      <point x="556" y="778" type="line"/>
      <point x="556" y="716"/>
      <point x="507" y="667"/>
      <point x="444" y="667" type="curve"/>
    </contour>
    <contour>
      <point x="556" y="667" type="line"/>
      <point x="556" y="778" type="line"/>
      <point x="667" y="778" type="line"/>
      <point x="667" y="667" type="line"/>
    </contour>
  </outline>
</glyph>
<glyph name="E" format="1">
  <advance width="888.8888888888889"/>
  <unicode hex="0045"/>
  <outline>
    <contour>
      <point x="111" y="0" type="line"/>
      <point x="111" y="111" type="line"/>
      <point x="222" y="111" type="line"/>
      <point x="222" y="0" type="line"/>
    </contour>
    <contour>
      <point x="222" y="56" type="curve" smooth="yes"/>
      <point x="222" y="87"/>
      <point x="247" y="111"/>
      <point x="278" y="111" type="curve" smooth="yes"/>
      <point x="309" y="111"/>
      <point x="333" y="87"/>
      <point x="333" y="56" type="curve" smooth="yes"/>
      <point x="333" y="24"/>
      <point x="309" y="0"/>
      <point x="278" y="0" type="curve" smooth="yes"/>
      <point x="247" y="0"/>
      <point x="222" y="24"/>
    </contour>
    <contour>
      <point x="444" y="111" type="line"/>
      <point x="444" y="0" type="line"/>
      <point x="382" y="0"/>
      <point x="333" y="49"/>
      <point x="333" y="111" type="curve"/>
    </contour>
    <contour>
      <point x="444" y="56" type="curve"/>
      <point x="500" y="56" type="line"/>
      <point x="500" y="56"/>
      <point x="444" y="111"/>
      <point x="444" y="111" type="curve"/>
      <point x="556" y="111" type="line"/>
      <point x="556" y="111"/>
      <point x="500" y="56"/>
      <point x="500" y="56" type="curve"/>
      <point x="556" y="56" type="line"/>
      <point x="556" y="56"/>
      <point x="500" y="0"/>
      <point x="500" y="0" type="curve"/>
      <point x="500" y="0"/>
      <point x="444" y="56"/>
    </contour>
    <contour>
      <point x="556" y="0" type="line"/>
      <point x="556" y="111" type="line"/>
      <point x="667" y="111" type="line"/>
      <point x="667" y="0" type="line"/>
    </contour>
    <contour>
      <point x="778" y="111" type="line"/>
      <point x="778" y="0" type="line"/>
      <point x="716" y="0"/>
      <point x="667" y="49"/>
      <point x="667" y="111" type="curve"/>
    </contour>
    <contour>
      <point x="278" y="111" type="line"/>
      <point x="278" y="111"/>
      <point x="222" y="167"/>
      <point x="222" y="167" type="curve"/>
      <point x="222" y="167"/>
      <point x="278" y="222"/>
      <point x="278" y="222" type="curve"/>
      <point x="278" y="167" type="line"/>
      <point x="278" y="167"/>
      <point x="333" y="222"/>
      <point x="333" y="222" type="curve"/>
      <point x="333" y="111" type="line"/>
      <point x="333" y="111"/>
      <point x="278" y="167"/>
      <point x="278" y="167" type="curve"/>
    </contour>
    <contour>
      <point x="667" y="111" type="line"/>
      <point x="667" y="222" type="line"/>
      <point x="778" y="222" type="line"/>
      <point x="778" y="111" type="line"/>
    </contour>
    <contour>
      <point x="278" y="333" type="line"/>
      <point x="278" y="333"/>
      <point x="333" y="278"/>
      <point x="333" y="278" type="curve"/>
      <point x="333" y="278"/>
      <point x="278" y="222"/>
      <point x="278" y="222" type="curve"/>
      <point x="278" y="278" type="line"/>
      <point x="278" y="278"/>
      <point x="222" y="222"/>
      <point x="222" y="222" type="curve"/>
      <point x="222" y="333" type="line"/>
      <point x="222" y="333"/>
      <point x="278" y="278"/>
      <point x="278" y="278" type="curve"/>
    </contour>
    <contour>
      <point x="222" y="389" type="curve" smooth="yes"/>
      <point x="222" y="420"/>
      <point x="247" y="444"/>
      <point x="278" y="444" type="curve" smooth="yes"/>
      <point x="309" y="444"/>
      <point x="333" y="420"/>
      <point x="333" y="389" type="curve" smooth="yes"/>
      <point x="333" y="358"/>
      <point x="309" y="333"/>
      <point x="278" y="333" type="curve" smooth="yes"/>
      <point x="247" y="333"/>
      <point x="222" y="358"/>
    </contour>
    <contour>
      <point x="333" y="389" type="line"/>
      <point x="333" y="389"/>
      <point x="389" y="444"/>
      <point x="389" y="444" type="curve"/>
      <point x="389" y="444"/>
      <point x="444" y="389"/>
      <point x="444" y="389" type="curve"/>
      <point x="389" y="389" type="line"/>
      <point x="389" y="389"/>
      <point x="444" y="333"/>
      <point x="444" y="333" type="curve"/>
      <point x="333" y="333" type="line"/>
      <point x="333" y="333"/>
      <point x="389" y="389"/>
      <point x="389" y="389" type="curve"/>
    </contour>
    <contour>
      <point x="444" y="389" type="line"/>
      <point x="444" y="420"/>
      <point x="469" y="444"/>
      <point x="500" y="444" type="curve" smooth="yes"/>
      <point x="531" y="444"/>
      <point x="556" y="420"/>
      <point x="556" y="389" type="curve"/>
      <point x="500" y="389" type="line"/>
      <point x="531" y="389"/>
      <point x="556" y="364"/>
      <point x="556" y="333" type="curve"/>
      <point x="444" y="333" type="line"/>
      <point x="444" y="364"/>
      <point x="469" y="389"/>
      <point x="500" y="389" type="curve"/>
    </contour>
    <contour>
      <point x="667" y="333" type="line"/>
      <point x="556" y="333" type="line"/>
      <point x="556" y="396"/>
      <point x="604" y="444"/>
      <point x="667" y="444" type="curve"/>
    </contour>
    <contour>
      <point x="222" y="500" type="line"/>
      <point x="222" y="500"/>
      <point x="278" y="556"/>
      <point x="278" y="556" type="curve"/>
      <point x="278" y="556"/>
      <point x="333" y="500"/>
      <point x="333" y="500" type="curve"/>
      <point x="278" y="500" type="line"/>
      <point x="278" y="500"/>
      <point x="333" y="444"/>
      <point x="333" y="444" type="curve"/>
      <point x="222" y="444" type="line"/>
      <point x="222" y="444"/>
      <point x="278" y="500"/>
      <point x="278" y="500" type="curve"/>
    </contour>
    <contour>
      <point x="222" y="556" type="line"/>
      <point x="222" y="667" type="line"/>
      <point x="333" y="667" type="line"/>
      <point x="333" y="556" type="line"/>
    </contour>
    <contour>
      <point x="667" y="611" type="curve" smooth="yes"/>
      <point x="667" y="642"/>
      <point x="691" y="667"/>
      <point x="722" y="667" type="curve" smooth="yes"/>
      <point x="753" y="667"/>
      <point x="778" y="642"/>
      <point x="778" y="611" type="curve" smooth="yes"/>
      <point x="778" y="580"/>
      <point x="753" y="556"/>
      <point x="722" y="556" type="curve" smooth="yes"/>
      <point x="691" y="556"/>
      <point x="667" y="580"/>
    </contour>
    <contour>
      <point x="111" y="667" type="line"/>
      <point x="111" y="778" type="line"/>
      <point x="222" y="778" type="line"/>
      <point x="222" y="667" type="line"/>
    </contour>
    <contour>
      <point x="278" y="778" type="line"/>
      <point x="278" y="778"/>
      <point x="333" y="722"/>
      <point x="333" y="722" type="curve"/>
      <point x="333" y="722"/>
      <point x="278" y="667"/>
      <point x="278" y="667" type="curve"/>
      <point x="278" y="722" type="line"/>
      <point x="278" y="722"/>
      <point x="222" y="667"/>
      <point x="222" y="667" type="curve"/>
      <point x="222" y="778" type="line"/>
      <point x="222" y="778"/>
      <point x="278" y="722"/>
      <point x="278" y="722" type="curve"/>
    </contour>
    <contour>
      <point x="333" y="722" type="curve"/>
      <point x="389" y="722" type="line"/>
      <point x="389" y="722"/>
      <point x="333" y="778"/>
      <point x="333" y="778" type="curve"/>
      <point x="444" y="778" type="line"/>
      <point x="444" y="778"/>
      <point x="389" y="722"/>
      <point x="389" y="722" type="curve"/>
      <point x="444" y="722" type="line"/>
      <point x="444" y="722"/>
      <point x="389" y="667"/>
      <point x="389" y="667" type="curve"/>
      <point x="389" y="667"/>
      <point x="333" y="722"/>
    </contour>
    <contour>
      <point x="444" y="722" type="curve" smooth="yes"/>
      <point x="444" y="753"/>
      <point x="469" y="778"/>
      <point x="500" y="778" type="curve" smooth="yes"/>
      <point x="531" y="778"/>
      <point x="556" y="753"/>
      <point x="556" y="722" type="curve" smooth="yes"/>
      <point x="556" y="691"/>
      <point x="531" y="667"/>
      <point x="500" y="667" type="curve" smooth="yes"/>
      <point x="469" y="667"/>
      <point x="444" y="691"/>
    </contour>
    <contour>
      <point x="611" y="778" type="line"/>
      <point x="642" y="778"/>
      <point x="667" y="753"/>
      <point x="667" y="722" type="curve" smooth="yes"/>
      <point x="667" y="691"/>
      <point x="642" y="667"/>
      <point x="611" y="667" type="curve"/>
      <point x="611" y="722" type="line"/>
      <point x="611" y="691"/>
      <point x="587" y="667"/>
      <point x="556" y="667" type="curve"/>
      <point x="556" y="778" type="line"/>
      <point x="587" y="778"/>
      <point x="611" y="753"/>
      <point x="611" y="722" type="curve"/>
    </contour>
    <contour>
      <point x="667" y="667" type="line"/>
      <point x="667" y="778" type="line"/>
      <point x="778" y="778" type="line"/>
      <point x="778" y="667" type="line"/>
    </contour>
  </outline>
</glyph>
<glyph name="F" format="1">
  <advance width="888.8888888888889"/>
  <unicode hex="0046"/>
  <outline>
    <contour>
      <point x="167" y="111" type="line"/>
      <point x="198" y="111"/>
      <point x="222" y="87"/>
      <point x="222" y="56" type="curve" smooth="yes"/>
      <point x="222" y="24"/>
      <point x="198" y="0"/>
      <point x="167" y="0" type="curve"/>
      <point x="167" y="56" type="line"/>
      <point x="167" y="24"/>
      <point x="142" y="0"/>
      <point x="111" y="0" type="curve"/>
      <point x="111" y="111" type="line"/>
      <point x="142" y="111"/>
      <point x="167" y="87"/>
      <point x="167" y="56" type="curve"/>
    </contour>
    <contour>
      <point x="278" y="111" type="line"/>
      <point x="278" y="111"/>
      <point x="333" y="56"/>
      <point x="333" y="56" type="curve"/>
      <point x="333" y="56"/>
      <point x="278" y="0"/>
      <point x="278" y="0" type="curve"/>
      <point x="278" y="56" type="line"/>
      <point x="278" y="56"/>
      <point x="222" y="0"/>
      <point x="222" y="0" type="curve"/>
      <point x="222" y="111" type="line"/>
      <point x="222" y="111"/>
      <point x="278" y="56"/>
      <point x="278" y="56" type="curve"/>
    </contour>
    <contour>
      <point x="389" y="111" type="line"/>
      <point x="420" y="111"/>
      <point x="444" y="87"/>
      <point x="444" y="56" type="curve" smooth="yes"/>
      <point x="444" y="24"/>
      <point x="420" y="0"/>
      <point x="389" y="0" type="curve"/>
      <point x="389" y="56" type="line"/>
      <point x="389" y="24"/>
      <point x="364" y="0"/>
      <point x="333" y="0" type="curve"/>
      <point x="333" y="111" type="line"/>
      <point x="364" y="111"/>
      <point x="389" y="87"/>
      <point x="389" y="56" type="curve"/>
    </contour>
    <contour>
      <point x="222" y="111" type="line"/>
      <point x="222" y="222" type="line"/>
      <point x="333" y="222" type="line"/>
      <point x="333" y="111" type="line"/>
    </contour>
    <contour>
      <point x="222" y="278" type="curve" smooth="yes"/>
      <point x="222" y="309"/>
      <point x="247" y="333"/>
      <point x="278" y="333" type="curve" smooth="yes"/>
      <point x="309" y="333"/>
      <point x="333" y="309"/>
      <point x="333" y="278" type="curve" smooth="yes"/>
      <point x="333" y="247"/>
      <point x="309" y="222"/>
      <point x="278" y="222" type="curve" smooth="yes"/>
      <point x="247" y="222"/>
      <point x="222" y="247"/>
    </contour>
    <contour>
      <point x="222" y="389" type="curve" smooth="yes"/>
      <point x="222" y="420"/>
      <point x="247" y="444"/>
      <point x="278" y="444" type="curve" smooth="yes"/>
      <point x="309" y="444"/>
      <point x="333" y="420"/>
      <point x="333" y="389" type="curve" smooth="yes"/>
      <point x="333" y="358"/>
      <point x="309" y="333"/>
      <point x="278" y="333" type="curve" smooth="yes"/>
      <point x="247" y="333"/>
      <point x="222" y="358"/>
    </contour>
    <contour>
      <point x="389" y="444" type="line"/>
      <point x="389" y="444"/>
      <point x="444" y="389"/>
      <point x="444" y="389" type="curve"/>
      <point x="444" y="389"/>
      <point x="389" y="333"/>
      <point x="389" y="333" type="curve"/>
      <point x="389" y="389" type="line"/>
      <point x="389" y="389"/>
      <point x="333" y="333"/>
      <point x="333" y="333" type="curve"/>
      <point x="333" y="444" type="line"/>
      <point x="333" y="444"/>
      <point x="389" y="389"/>
      <point x="389" y="389" type="curve"/>
    </contour>
    <contour>
      <point x="444" y="333" type="line"/>
      <point x="444" y="444" type="line"/>
      <point x="556" y="444" type="line"/>
      <point x="556" y="333" type="line"/>
    </contour>
    <contour>
      <point x="556" y="333" type="line"/>
      <point x="556" y="444" type="line"/>
      <point x="667" y="444" type="line"/>
      <point x="667" y="333" type="line"/>
    </contour>
    <contour>
      <point x="333" y="556" type="line"/>
      <point x="333" y="444" type="line"/>
      <point x="271" y="444"/>
      <point x="222" y="493"/>
      <point x="222" y="556" type="curve"/>
    </contour>
    <contour>
      <point x="222" y="611" type="curve" smooth="yes"/>
      <point x="222" y="642"/>
      <point x="247" y="667"/>
      <point x="278" y="667" type="curve" smooth="yes"/>
      <point x="309" y="667"/>
      <point x="333" y="642"/>
      <point x="333" y="611" type="curve" smooth="yes"/>
      <point x="333" y="580"/>
      <point x="309" y="556"/>
      <point x="278" y="556" type="curve" smooth="yes"/>
      <point x="247" y="556"/>
      <point x="222" y="580"/>
    </contour>
    <contour>
      <point x="667" y="611" type="curve"/>
      <point x="722" y="611" type="line"/>
      <point x="691" y="611"/>
      <point x="667" y="636"/>
      <point x="667" y="667" type="curve"/>
      <point x="778" y="667" type="line"/>
      <point x="778" y="636"/>
      <point x="753" y="611"/>
      <point x="722" y="611" type="curve"/>
      <point x="778" y="611" type="line"/>
      <point x="778" y="580"/>
      <point x="753" y="556"/>
      <point x="722" y="556" type="curve" smooth="yes"/>
      <point x="691" y="556"/>
      <point x="667" y="580"/>
    </contour>
    <contour>
      <point x="222" y="778" type="line"/>
      <point x="222" y="667" type="line"/>
      <point x="160" y="667"/>
      <point x="111" y="716"/>
      <point x="111" y="778" type="curve"/>
    </contour>
    <contour>
      <point x="222" y="667" type="line"/>
      <point x="222" y="778" type="line"/>
      <point x="333" y="778" type="line"/>
      <point x="333" y="667" type="line"/>
    </contour>
    <contour>
      <point x="333" y="722" type="curve"/>
      <point x="389" y="722" type="line"/>
      <point x="358" y="722"/>
      <point x="333" y="747"/>
      <point x="333" y="778" type="curve"/>
      <point x="444" y="778" type="line"/>
      <point x="444" y="747"/>
      <point x="420" y="722"/>
      <point x="389" y="722" type="curve"/>
      <point x="444" y="722" type="line"/>
      <point x="444" y="691"/>
      <point x="420" y="667"/>
      <point x="389" y="667" type="curve" smooth="yes"/>
      <point x="358" y="667"/>
      <point x="333" y="691"/>
    </contour>
    <contour>
      <point x="444" y="722" type="line"/>
      <point x="444" y="722"/>
      <point x="500" y="778"/>
      <point x="500" y="778" type="curve"/>
      <point x="500" y="778"/>
      <point x="556" y="722"/>
      <point x="556" y="722" type="curve"/>
      <point x="500" y="722" type="line"/>
      <point x="500" y="722"/>
      <point x="556" y="667"/>
      <point x="556" y="667" type="curve"/>
      <point x="444" y="667" type="line"/>
      <point x="444" y="667"/>
      <point x="500" y="722"/>
      <point x="500" y="722" type="curve"/>
    </contour>
    <contour>
      <point x="556" y="722" type="curve" smooth="yes"/>
      <point x="556" y="753"/>
      <point x="580" y="778"/>
      <point x="611" y="778" type="curve" smooth="yes"/>
      <point x="642" y="778"/>
      <point x="667" y="753"/>
      <point x="667" y="722" type="curve" smooth="yes"/>
      <point x="667" y="691"/>
      <point x="642" y="667"/>
      <point x="611" y="667" type="curve" smooth="yes"/>
      <point x="580" y="667"/>
      <point x="556" y="691"/>
    </contour>
    <contour>
      <point x="667" y="722" type="line"/>
      <point x="667" y="753"/>
      <point x="691" y="778"/>
      <point x="722" y="778" type="curve" smooth="yes"/>
      <point x="753" y="778"/>
      <point x="778" y="753"/>
      <point x="778" y="722" type="curve"/>
      <point x="722" y="722" type="line"/>
      <point x="753" y="722"/>
      <point x="778" y="698"/>
      <point x="778" y="667" type="curve"/>
      <point x="667" y="667" type="line"/>
      <point x="667" y="698"/>
      <point x="691" y="722"/>
      <point x="722" y="722" type="curve"/>
    </contour>
  </outline>
</glyph>
<glyph name="G" format="1">
  <advance width="778"/>
  <unicode hex="0047"/>
  <outline>
    <contour>
      <point x="222" y="56" type="curve" smooth="yes"/>
      <point x="222" y="87"/>
      <point x="247" y="111"/>
      <point x="278" y="111" type="curve" smooth="yes"/>
      <point x="309" y="111"/>
      <point x="333" y="87"/>
      <point x="333" y="56" type="curve" smooth="yes"/>
      <point x="333" y="24"/>
      <point x="309" y="0"/>
      <point x="278" y="0" type="curve" smooth="yes"/>
      <point x="247" y="0"/>
      <point x="222" y="24"/>
    </contour>
    <contour>
      <point x="333" y="56" type="line"/>
      <point x="333" y="87"/>
      <point x="358" y="111"/>
      <point x="389" y="111" type="curve" smooth="yes"/>
      <point x="420" y="111"/>
      <point x="444" y="87"/>
      <point x="444" y="56" type="curve"/>
      <point x="389" y="56" type="line"/>
      <point x="420" y="56"/>
      <point x="444" y="31"/>
      <point x="444" y="0" type="curve"/>
      <point x="333" y="0" type="line"/>
      <point x="333" y="31"/>
      <point x="358" y="56"/>
      <point x="389" y="56" type="curve"/>
    </contour>
    <contour>
      <point x="444" y="111" type="line"/>
      <point x="556" y="111" type="line"/>
      <point x="556" y="49"/>
      <point x="507" y="0"/>
      <point x="444" y="0" type="curve"/>
    </contour>
    <contour>
      <point x="556" y="56" type="line"/>
      <point x="556" y="87"/>
      <point x="580" y="111"/>
      <point x="611" y="111" type="curve" smooth="yes"/>
      <point x="642" y="111"/>
      <point x="667" y="87"/>
      <point x="667" y="56" type="curve"/>
      <point x="611" y="56" type="line"/>
      <point x="642" y="56"/>
      <point x="667" y="31"/>
      <point x="667" y="0" type="curve"/>
      <point x="556" y="0" type="line"/>
      <point x="556" y="31"/>
      <point x="580" y="56"/>
      <point x="611" y="56" type="curve"/>
    </contour>
    <contour>
      <point x="222" y="222" type="line"/>
      <point x="222" y="111" type="line"/>
      <point x="160" y="111"/>
      <point x="111" y="160"/>
      <point x="111" y="222" type="curve"/>
    </contour>
    <contour>
      <point x="556" y="167" type="line"/>
      <point x="556" y="198"/>
      <point x="580" y="222"/>
      <point x="611" y="222" type="curve" smooth="yes"/>
      <point x="642" y="222"/>
      <point x="667" y="198"/>
      <point x="667" y="167" type="curve"/>
      <point x="611" y="167" type="line"/>
      <point x="642" y="167"/>
      <point x="667" y="142"/>
      <point x="667" y="111" type="curve"/>
      <point x="556" y="111" type="line"/>
      <point x="556" y="142"/>
      <point x="580" y="167"/>
      <point x="611" y="167" type="curve"/>
    </contour>
    <contour>
      <point x="111" y="278" type="line"/>
      <point x="111" y="278"/>
      <point x="167" y="333"/>
      <point x="167" y="333" type="curve"/>
      <point x="167" y="333"/>
      <point x="222" y="278"/>
      <point x="222" y="278" type="curve"/>
      <point x="167" y="278" type="line"/>
      <point x="167" y="278"/>
      <point x="222" y="222"/>
      <point x="222" y="222" type="curve"/>
      <point x="111" y="222" type="line"/>
      <point x="111" y="222"/>
      <point x="167" y="278"/>
      <point x="167" y="278" type="curve"/>
    </contour>
    <contour>
      <point x="556" y="333" type="line"/>
      <point x="667" y="333" type="line"/>
      <point x="667" y="271"/>
      <point x="618" y="222"/>
      <point x="556" y="222" type="curve"/>
    </contour>
    <contour>
      <point x="167" y="444" type="line"/>
      <point x="198" y="444"/>
      <point x="222" y="420"/>
      <point x="222" y="389" type="curve" smooth="yes"/>
      <point x="222" y="358"/>
      <point x="198" y="333"/>
      <point x="167" y="333" type="curve"/>
      <point x="167" y="389" type="line"/>
      <point x="167" y="358"/>
      <point x="142" y="333"/>
      <point x="111" y="333" type="curve"/>
      <point x="111" y="444" type="line"/>
      <point x="142" y="444"/>
      <point x="167" y="420"/>
      <point x="167" y="389" type="curve"/>
    </contour>
    <contour>
      <point x="444" y="444" type="line"/>
      <point x="556" y="444" type="line"/>
      <point x="556" y="382"/>
      <point x="507" y="333"/>
      <point x="444" y="333" type="curve"/>
    </contour>
    <contour>
      <point x="556" y="389" type="line"/>
      <point x="556" y="389"/>
      <point x="611" y="444"/>
      <point x="611" y="444" type="curve"/>
      <point x="611" y="444"/>
      <point x="667" y="389"/>
      <point x="667" y="389" type="curve"/>
      <point x="611" y="389" type="line"/>
      <point x="611" y="389"/>
      <point x="667" y="333"/>
      <point x="667" y="333" type="curve"/>
      <point x="556" y="333" type="line"/>
      <point x="556" y="333"/>
      <point x="611" y="389"/>
      <point x="611" y="389" type="curve"/>
    </contour>
    <contour>
      <point x="167" y="556" type="line"/>
      <point x="167" y="556"/>
      <point x="222" y="500"/>
      <point x="222" y="500" type="curve"/>
      <point x="222" y="500"/>
      <point x="167" y="444"/>
      <point x="167" y="444" type="curve"/>
      <point x="167" y="500" type="line"/>
      <point x="167" y="500"/>
      <point x="111" y="444"/>
      <point x="111" y="444" type="curve"/>
      <point x="111" y="556" type="line"/>
      <point x="111" y="556"/>
      <point x="167" y="500"/>
      <point x="167" y="500" type="curve"/>
    </contour>
    <contour>
      <point x="111" y="556" type="line"/>
      <point x="111" y="667" type="line"/>
      <point x="222" y="667" type="line"/>
      <point x="222" y="556" type="line"/>
    </contour>
    <contour>
      <point x="611" y="667" type="line"/>
      <point x="611" y="667"/>
      <point x="667" y="611"/>
      <point x="667" y="611" type="curve"/>
      <point x="667" y="611"/>
      <point x="611" y="556"/>
      <point x="611" y="556" type="curve"/>
      <point x="611" y="611" type="line"/>
      <point x="611" y="611"/>
      <point x="556" y="556"/>
      <point x="556" y="556" type="curve"/>
      <point x="556" y="667" type="line"/>
      <point x="556" y="667"/>
      <point x="611" y="611"/>
      <point x="611" y="611" type="curve"/>
    </contour>
    <contour>
      <point x="278" y="667" type="line"/>
      <point x="278" y="667"/>
      <point x="222" y="722"/>
      <point x="222" y="722" type="curve"/>
      <point x="222" y="722"/>
      <point x="278" y="778"/>
      <point x="278" y="778" type="curve"/>
      <point x="278" y="722" type="line"/>
      <point x="278" y="722"/>
      <point x="333" y="778"/>
      <point x="333" y="778" type="curve"/>
      <point x="333" y="667" type="line"/>
      <point x="333" y="667"/>
      <point x="278" y="722"/>
      <point x="278" y="722" type="curve"/>
    </contour>
    <contour>
      <point x="333" y="722" type="line"/>
      <point x="333" y="722"/>
      <point x="389" y="778"/>
      <point x="389" y="778" type="curve"/>
      <point x="389" y="778"/>
      <point x="444" y="722"/>
      <point x="444" y="722" type="curve"/>
      <point x="389" y="722" type="line"/>
      <point x="389" y="722"/>
      <point x="444" y="667"/>
      <point x="444" y="667" type="curve"/>
      <point x="333" y="667" type="line"/>
      <point x="333" y="667"/>
      <point x="389" y="722"/>
      <point x="389" y="722" type="curve"/>
    </contour>
    <contour>
      <point x="444" y="667" type="line"/>
      <point x="444" y="778" type="line"/>
      <point x="556" y="778" type="line"/>
      <point x="556" y="667" type="line"/>
    </contour>
    <contour>
      <point x="667" y="778" type="line"/>
      <point x="667" y="667" type="line"/>
      <point x="604" y="667"/>
      <point x="556" y="716"/>
      <point x="556" y="778" type="curve"/>
    </contour>
  </outline>
</glyph>
<glyph name="H" format="1">
  <advance width="1000.0"/>
  <unicode hex="0048"/>
  <outline>
    <contour>
      <point x="111" y="56" type="curve"/>
      <point x="167" y="56" type="line"/>
      <point x="136" y="56"/>
      <point x="111" y="80"/>
      <point x="111" y="111" type="curve"/>
      <point x="222" y="111" type="line"/>
      <point x="222" y="80"/>
      <point x="198" y="56"/>
      <point x="167" y="56" type="curve"/>
      <point x="222" y="56" type="line"/>
      <point x="222" y="24"/>
      <point x="198" y="0"/>
      <point x="167" y="0" type="curve" smooth="yes"/>
      <point x="136" y="0"/>
      <point x="111" y="24"/>
    </contour>
    <contour>
      <point x="222" y="0" type="line"/>
      <point x="222" y="111" type="line"/>
      <point x="333" y="111" type="line"/>
      <point x="333" y="0" type="line"/>
    </contour>
    <contour>
      <point x="667" y="56" type="curve" smooth="yes"/>
      <point x="667" y="87"/>
      <point x="691" y="111"/>
      <point x="722" y="111" type="curve" smooth="yes"/>
      <point x="753" y="111"/>
      <point x="778" y="87"/>
      <point x="778" y="56" type="curve" smooth="yes"/>
      <point x="778" y="24"/>
      <point x="753" y="0"/>
      <point x="722" y="0" type="curve" smooth="yes"/>
      <point x="691" y="0"/>
      <point x="667" y="24"/>
    </contour>
    <contour>
      <point x="889" y="111" type="line"/>
      <point x="889" y="0" type="line"/>
      <point x="827" y="0"/>
      <point x="778" y="49"/>
      <point x="778" y="111" type="curve"/>
    </contour>
    <contour>
      <point x="278" y="111" type="line"/>
      <point x="278" y="111"/>
      <point x="222" y="167"/>
      <point x="222" y="167" type="curve"/>
      <point x="222" y="167"/>
      <point x="278" y="222"/>
      <point x="278" y="222" type="curve"/>
      <point x="278" y="167" type="line"/>
      <point x="278" y="167"/>
      <point x="333" y="222"/>
      <point x="333" y="222" type="curve"/>
      <point x="333" y="111" type="line"/>
      <point x="333" y="111"/>
      <point x="278" y="167"/>
      <point x="278" y="167" type="curve"/>
    </contour>
    <contour>
      <point x="778" y="111" type="line"/>
      <point x="667" y="111" type="line"/>
      <point x="667" y="173"/>
      <point x="716" y="222"/>
      <point x="778" y="222" type="curve"/>
    </contour>
    <contour>
      <point x="333" y="222" type="line"/>
      <point x="222" y="222" type="line"/>
      <point x="222" y="284"/>
      <point x="271" y="333"/>
      <point x="333" y="333" type="curve"/>
    </contour>
    <contour>
      <point x="667" y="222" type="line"/>
      <point x="667" y="333" type="line"/>
      <point x="778" y="333" type="line"/>
      <point x="778" y="222" type="line"/>
    </contour>
    <contour>
      <point x="222" y="333" type="line"/>
      <point x="222" y="444" type="line"/>
      <point x="333" y="444" type="line"/>
      <point x="333" y="333" type="line"/>
    </contour>
    <contour>
      <point x="333" y="389" type="curve"/>
      <point x="389" y="389" type="line"/>
      <point x="358" y="389"/>
      <point x="333" y="413"/>
      <point x="333" y="444" type="curve"/>
      <point x="444" y="444" type="line"/>
      <point x="444" y="413"/>
      <point x="420" y="389"/>
      <point x="389" y="389" type="curve"/>
      <point x="444" y="389" type="line"/>
      <point x="444" y="358"/>
      <point x="420" y="333"/>
      <point x="389" y="333" type="curve" smooth="yes"/>
      <point x="358" y="333"/>
      <point x="333" y="358"/>
    </contour>
    <contour>
      <point x="444" y="333" type="line"/>
      <point x="444" y="444" type="line"/>
      <point x="507" y="444"/>
      <point x="556" y="396"/>
      <point x="556" y="333" type="curve"/>
    </contour>
    <contour>
      <point x="556" y="389" type="curve"/>
      <point x="611" y="389" type="line"/>
      <point x="611" y="389"/>
      <point x="556" y="444"/>
      <point x="556" y="444" type="curve"/>
      <point x="667" y="444" type="line"/>
      <point x="667" y="444"/>
      <point x="611" y="389"/>
      <point x="611" y="389" type="curve"/>
      <point x="667" y="389" type="line"/>
      <point x="667" y="389"/>
      <point x="611" y="333"/>
      <point x="611" y="333" type="curve"/>
      <point x="611" y="333"/>
      <point x="556" y="389"/>
    </contour>
    <contour>
      <point x="667" y="389" type="curve" smooth="yes"/>
      <point x="667" y="420"/>
      <point x="691" y="444"/>
      <point x="722" y="444" type="curve" smooth="yes"/>
      <point x="753" y="444"/>
      <point x="778" y="420"/>
      <point x="778" y="389" type="curve" smooth="yes"/>
      <point x="778" y="358"/>
      <point x="753" y="333"/>
      <point x="722" y="333" type="curve" smooth="yes"/>
      <point x="691" y="333"/>
      <point x="667" y="358"/>
    </contour>
    <contour>
      <point x="278" y="444" type="line"/>
      <point x="278" y="444"/>
      <point x="222" y="500"/>
      <point x="222" y="500" type="curve"/>
      <point x="222" y="500"/>
      <point x="278" y="556"/>
      <point x="278" y="556" type="curve"/>
      <point x="278" y="500" type="line"/>
      <point x="278" y="500"/>
      <point x="333" y="556"/>
      <point x="333" y="556" type="curve"/>
      <point x="333" y="444" type="line"/>
      <point x="333" y="444"/>
      <point x="278" y="500"/>
      <point x="278" y="500" type="curve"/>
    </contour>
    <contour>
      <point x="667" y="500" type="curve"/>
      <point x="722" y="500" type="line"/>
      <point x="722" y="500"/>
      <point x="667" y="556"/>
      <point x="667" y="556" type="curve"/>
      <point x="778" y="556" type="line"/>
      <point x="778" y="556"/>
      <point x="722" y="500"/>
      <point x="722" y="500" type="curve"/>
      <point x="778" y="500" type="line"/>
      <point x="778" y="500"/>
      <point x="722" y="444"/>
      <point x="722" y="444" type="curve"/>
      <point x="722" y="444"/>
      <point x="667" y="500"/>
    </contour>
    <contour>
      <point x="222" y="556" type="line"/>
      <point x="222" y="667" type="line"/>
      <point x="333" y="667" type="line"/>
      <point x="333" y="556" type="line"/>
    </contour>
    <contour>
      <point x="667" y="611" type="curve" smooth="yes"/>
      <point x="667" y="642"/>
      <point x="691" y="667"/>
      <point x="722" y="667" type="curve" smooth="yes"/>
      <point x="753" y="667"/>
      <point x="778" y="642"/>
      <point x="778" y="611" type="curve" smooth="yes"/>
      <point x="778" y="580"/>
      <point x="753" y="556"/>
      <point x="722" y="556" type="curve" smooth="yes"/>
      <point x="691" y="556"/>
      <point x="667" y="580"/>
    </contour>
    <contour>
      <point x="111" y="722" type="curve" smooth="yes"/>
      <point x="111" y="753"/>
      <point x="136" y="778"/>
      <point x="167" y="778" type="curve" smooth="yes"/>
      <point x="198" y="778"/>
      <point x="222" y="753"/>
      <point x="222" y="722" type="curve" smooth="yes"/>
      <point x="222" y="691"/>
      <point x="198" y="667"/>
      <point x="167" y="667" type="curve" smooth="yes"/>
      <point x="136" y="667"/>
      <point x="111" y="691"/>
    </contour>
    <contour>
      <point x="222" y="667" type="line"/>
      <point x="222" y="778" type="line"/>
      <point x="333" y="778" type="line"/>
      <point x="333" y="667" type="line"/>
    </contour>
    <contour>
      <point x="722" y="667" type="line"/>
      <point x="722" y="667"/>
      <point x="667" y="722"/>
      <point x="667" y="722" type="curve"/>
      <point x="667" y="722"/>
      <point x="722" y="778"/>
      <point x="722" y="778" type="curve"/>
      <point x="722" y="722" type="line"/>
      <point x="722" y="722"/>
      <point x="778" y="778"/>
      <point x="778" y="778" type="curve"/>
      <point x="778" y="667" type="line"/>
      <point x="778" y="667"/>
      <point x="722" y="722"/>
      <point x="722" y="722" type="curve"/>
    </contour>
    <contour>
      <point x="778" y="722" type="curve"/>
      <point x="833" y="722" type="line"/>
      <point x="802" y="722"/>
      <point x="778" y="747"/>
      <point x="778" y="778" type="curve"/>
      <point x="889" y="778" type="line"/>
      <point x="889" y="747"/>
      <point x="864" y="722"/>
      <point x="833" y="722" type="curve"/>
      <point x="889" y="722" type="line"/>
      <point x="889" y="691"/>
      <point x="864" y="667"/>
      <point x="833" y="667" type="curve" smooth="yes"/>
      <point x="802" y="667"/>
      <point x="778" y="691"/>
    </contour>
  </outline>
</glyph>
<glyph name="I" format="1">
  <advance width="555.5555555555555"/>
  <unicode hex="0049"/>
  <outline>
    <contour>
      <point x="111" y="56" type="curve" smooth="yes"/>
      <point x="111" y="87"/>
      <point x="136" y="111"/>
      <point x="167" y="111" type="curve" smooth="yes"/>
      <point x="198" y="111"/>
      <point x="222" y="87"/>
      <point x="222" y="56" type="curve" smooth="yes"/>
      <point x="222" y="24"/>
      <point x="198" y="0"/>
      <point x="167" y="0" type="curve" smooth="yes"/>
      <point x="136" y="0"/>
      <point x="111" y="24"/>
    </contour>
    <contour>
      <point x="333" y="0" type="line"/>
      <point x="222" y="0" type="line"/>
      <point x="222" y="62"/>
      <point x="271" y="111"/>
      <point x="333" y="111" type="curve"/>
    </contour>
    <contour>
      <point x="333" y="0" type="line"/>
      <point x="333" y="111" type="line"/>
      <point x="444" y="111" type="line"/>
      <point x="444" y="0" type="line"/>
    </contour>
    <contour>
      <point x="222" y="111" type="line"/>
      <point x="222" y="222" type="line"/>
      <point x="333" y="222" type="line"/>
      <point x="333" y="111" type="line"/>
    </contour>
    <contour>
      <point x="278" y="222" type="line"/>
      <point x="247" y="222"/>
      <point x="222" y="247"/>
      <point x="222" y="278" type="curve" smooth="yes"/>
      <point x="222" y="309"/>
      <point x="247" y="333"/>
      <point x="278" y="333" type="curve"/>
      <point x="278" y="278" type="line"/>
      <point x="278" y="309"/>
      <point x="302" y="333"/>
      <point x="333" y="333" type="curve"/>
      <point x="333" y="222" type="line"/>
      <point x="302" y="222"/>
      <point x="278" y="247"/>
      <point x="278" y="278" type="curve"/>
    </contour>
    <contour>
      <point x="222" y="333" type="line"/>
      <point x="222" y="444" type="line"/>
      <point x="284" y="444"/>
      <point x="333" y="396"/>
      <point x="333" y="333" type="curve"/>
    </contour>
    <contour>
      <point x="222" y="444" type="line"/>
      <point x="222" y="556" type="line"/>
      <point x="333" y="556" type="line"/>
      <point x="333" y="444" type="line"/>
    </contour>
    <contour>
      <point x="222" y="667" type="line"/>
      <point x="333" y="667" type="line"/>
      <point x="333" y="604"/>
      <point x="284" y="556"/>
      <point x="222" y="556" type="curve"/>
    </contour>
    <contour>
      <point x="111" y="722" type="curve"/>
      <point x="167" y="722" type="line"/>
      <point x="136" y="722"/>
      <point x="111" y="747"/>
      <point x="111" y="778" type="curve"/>
      <point x="222" y="778" type="line"/>
      <point x="222" y="747"/>
      <point x="198" y="722"/>
      <point x="167" y="722" type="curve"/>
      <point x="222" y="722" type="line"/>
      <point x="222" y="691"/>
      <point x="198" y="667"/>
      <point x="167" y="667" type="curve" smooth="yes"/>
      <point x="136" y="667"/>
      <point x="111" y="691"/>
    </contour>
    <contour>
      <point x="333" y="667" type="line"/>
      <point x="222" y="667" type="line"/>
      <point x="222" y="729"/>
      <point x="271" y="778"/>
      <point x="333" y="778" type="curve"/>
    </contour>
    <contour>
      <point x="444" y="778" type="line"/>
      <point x="444" y="667" type="line"/>
      <point x="382" y="667"/>
      <point x="333" y="716"/>
      <point x="333" y="778" type="curve"/>
    </contour>
  </outline>
</glyph>
<glyph name="J" format="1">
  <advance width="777.7777777777778"/>
  <unicode hex="004A"/>
  <outline>
    <contour>
      <point x="222" y="56" type="line"/>
      <point x="222" y="87"/>
      <point x="247" y="111"/>
      <point x="278" y="111" type="curve" smooth="yes"/>
      <point x="309" y="111"/>
      <point x="333" y="87"/>
      <point x="333" y="56" type="curve"/>
      <point x="278" y="56" type="line"/>
      <point x="309" y="56"/>
      <point x="333" y="31"/>
      <point x="333" y="0" type="curve"/>
      <point x="222" y="0" type="line"/>
      <point x="222" y="31"/>
      <point x="247" y="56"/>
      <point x="278" y="56" type="curve"/>
    </contour>
    <contour>
      <point x="444" y="111" type="line"/>
      <point x="444" y="0" type="line"/>
      <point x="382" y="0"/>
      <point x="333" y="49"/>
      <point x="333" y="111" type="curve"/>
    </contour>
    <contour>
      <point x="111" y="167" type="curve" smooth="yes"/>
      <point x="111" y="198"/>
      <point x="136" y="222"/>
      <point x="167" y="222" type="curve" smooth="yes"/>
      <point x="198" y="222"/>
      <point x="222" y="198"/>
      <point x="222" y="167" type="curve" smooth="yes"/>
      <point x="222" y="136"/>
      <point x="198" y="111"/>
      <point x="167" y="111" type="curve" smooth="yes"/>
      <point x="136" y="111"/>
      <point x="111" y="136"/>
    </contour>
    <contour>
      <point x="500" y="222" type="line"/>
      <point x="531" y="222"/>
      <point x="556" y="198"/>
      <point x="556" y="167" type="curve" smooth="yes"/>
      <point x="556" y="136"/>
      <point x="531" y="111"/>
      <point x="500" y="111" type="curve"/>
      <point x="500" y="167" type="line"/>
      <point x="500" y="136"/>
      <point x="476" y="111"/>
      <point x="444" y="111" type="curve"/>
      <point x="444" y="222" type="line"/>
      <point x="476" y="222"/>
      <point x="500" y="198"/>
      <point x="500" y="167" type="curve"/>
    </contour>
    <contour>
      <point x="500" y="222" type="line"/>
      <point x="500" y="222"/>
      <point x="444" y="278"/>
      <point x="444" y="278" type="curve"/>
      <point x="444" y="278"/>
      <point x="500" y="333"/>
      <point x="500" y="333" type="curve"/>
      <point x="500" y="278" type="line"/>
      <point x="500" y="278"/>
      <point x="556" y="333"/>
      <point x="556" y="333" type="curve"/>
      <point x="556" y="222" type="line"/>
      <point x="556" y="222"/>
      <point x="500" y="278"/>
      <point x="500" y="278" type="curve"/>
    </contour>
    <contour>
      <point x="500" y="444" type="line"/>
      <point x="500" y="444"/>
      <point x="556" y="389"/>
      <point x="556" y="389" type="curve"/>
      <point x="556" y="389"/>
      <point x="500" y="333"/>
      <point x="500" y="333" type="curve"/>
      <point x="500" y="389" type="line"/>
      <point x="500" y="389"/>
      <point x="444" y="333"/>
      <point x="444" y="333" type="curve"/>
      <point x="444" y="444" type="line"/>
      <point x="444" y="444"/>
      <point x="500" y="389"/>
      <point x="500" y="389" type="curve"/>
    </contour>
    <contour>
      <point x="444" y="556" type="line"/>
      <point x="556" y="556" type="line"/>
      <point x="556" y="493"/>
      <point x="507" y="444"/>
      <point x="444" y="444" type="curve"/>
    </contour>
    <contour>
      <point x="444" y="611" type="curve" smooth="yes"/>
      <point x="444" y="642"/>
      <point x="469" y="667"/>
      <point x="500" y="667" type="curve" smooth="yes"/>
      <point x="531" y="667"/>
      <point x="556" y="642"/>
      <point x="556" y="611" type="curve" smooth="yes"/>
      <point x="556" y="580"/>
      <point x="531" y="556"/>
      <point x="500" y="556" type="curve" smooth="yes"/>
      <point x="469" y="556"/>
      <point x="444" y="580"/>
    </contour>
    <contour>
      <point x="222" y="778" type="line"/>
      <point x="333" y="778" type="line"/>
      <point x="333" y="716"/>
      <point x="284" y="667"/>
      <point x="222" y="667" type="curve"/>
    </contour>
    <contour>
      <point x="389" y="778" type="line"/>
      <point x="420" y="778"/>
      <point x="444" y="753"/>
      <point x="444" y="722" type="curve" smooth="yes"/>
      <point x="444" y="691"/>
      <point x="420" y="667"/>
      <point x="389" y="667" type="curve"/>
      <point x="389" y="722" type="line"/>
      <point x="389" y="691"/>
      <point x="364" y="667"/>
      <point x="333" y="667" type="curve"/>
      <point x="333" y="778" type="line"/>
      <point x="364" y="778"/>
      <point x="389" y="753"/>
      <point x="389" y="722" type="curve"/>
    </contour>
    <contour>
      <point x="444" y="722" type="curve" smooth="yes"/>
      <point x="444" y="753"/>
      <point x="469" y="778"/>
      <point x="500" y="778" type="curve" smooth="yes"/>
      <point x="531" y="778"/>
      <point x="556" y="753"/>
      <point x="556" y="722" type="curve" smooth="yes"/>
      <point x="556" y="691"/>
      <point x="531" y="667"/>
      <point x="500" y="667" type="curve" smooth="yes"/>
      <point x="469" y="667"/>
      <point x="444" y="691"/>
    </contour>
    <contour>
      <point x="556" y="722" type="curve" smooth="yes"/>
      <point x="556" y="753"/>
      <point x="580" y="778"/>
      <point x="611" y="778" type="curve" smooth="yes"/>
      <point x="642" y="778"/>
      <point x="667" y="753"/>
      <point x="667" y="722" type="curve" smooth="yes"/>
      <point x="667" y="691"/>
      <point x="642" y="667"/>
      <point x="611" y="667" type="curve" smooth="yes"/>
      <point x="580" y="667"/>
      <point x="556" y="691"/>
    </contour>
  </outline>
</glyph>
<glyph name="K" format="1">
  <advance width="1000"/>
  <unicode hex="004B"/>
  <outline>
    <contour>
      <point x="111" y="0" type="line"/>
      <point x="111" y="111" type="line"/>
      <point x="222" y="111" type="line"/>
      <point x="222" y="0" type="line"/>
    </contour>
    <contour>
      <point x="222" y="56" type="curve" smooth="yes"/>
      <point x="222" y="87"/>
      <point x="247" y="111"/>
      <point x="278" y="111" type="curve" smooth="yes"/>
      <point x="309" y="111"/>
      <point x="333" y="87"/>
      <point x="333" y="56" type="curve" smooth="yes"/>
      <point x="333" y="24"/>
      <point x="309" y="0"/>
      <point x="278" y="0" type="curve" smooth="yes"/>
      <point x="247" y="0"/>
      <point x="222" y="24"/>
    </contour>
    <contour>
      <point x="667" y="56" type="line"/>
      <point x="667" y="87"/>
      <point x="691" y="111"/>
      <point x="722" y="111" type="curve" smooth="yes"/>
      <point x="753" y="111"/>
      <point x="778" y="87"/>
      <point x="778" y="56" type="curve"/>
      <point x="722" y="56" type="line"/>
      <point x="753" y="56"/>
      <point x="778" y="31"/>
      <point x="778" y="0" type="curve"/>
      <point x="667" y="0" type="line"/>
      <point x="667" y="31"/>
      <point x="691" y="56"/>
      <point x="722" y="56" type="curve"/>
    </contour>
    <contour>
      <point x="778" y="56" type="curve"/>
      <point x="833" y="56" type="line"/>
      <point x="802" y="56"/>
      <point x="778" y="80"/>
      <point x="778" y="111" type="curve"/>
      <point x="889" y="111" type="line"/>
      <point x="889" y="80"/>
      <point x="864" y="56"/>
      <point x="833" y="56" type="curve"/>
      <point x="889" y="56" type="line"/>
      <point x="889" y="24"/>
      <point x="864" y="0"/>
      <point x="833" y="0" type="curve" smooth="yes"/>
      <point x="802" y="0"/>
      <point x="778" y="24"/>
    </contour>
    <contour>
      <point x="222" y="167" type="curve" smooth="yes"/>
      <point x="222" y="198"/>
      <point x="247" y="222"/>
      <point x="278" y="222" type="curve" smooth="yes"/>
      <point x="309" y="222"/>
      <point x="333" y="198"/>
      <point x="333" y="167" type="curve" smooth="yes"/>
      <point x="333" y="136"/>
      <point x="309" y="111"/>
      <point x="278" y="111" type="curve" smooth="yes"/>
      <point x="247" y="111"/>
      <point x="222" y="136"/>
    </contour>
    <contour>
      <point x="556" y="167" type="curve" smooth="yes"/>
      <point x="556" y="198"/>
      <point x="580" y="222"/>
      <point x="611" y="222" type="curve" smooth="yes"/>
      <point x="642" y="222"/>
      <point x="667" y="198"/>
      <point x="667" y="167" type="curve" smooth="yes"/>
      <point x="667" y="136"/>
      <point x="642" y="111"/>
      <point x="611" y="111" type="curve" smooth="yes"/>
      <point x="580" y="111"/>
      <point x="556" y="136"/>
    </contour>
    <contour>
      <point x="222" y="222" type="line"/>
      <point x="222" y="333" type="line"/>
      <point x="333" y="333" type="line"/>
      <point x="333" y="222" type="line"/>
    </contour>
    <contour>
      <point x="444" y="278" type="curve"/>
      <point x="500" y="278" type="line"/>
      <point x="500" y="278"/>
      <point x="444" y="333"/>
      <point x="444" y="333" type="curve"/>
      <point x="556" y="333" type="line"/>
      <point x="556" y="333"/>
      <point x="500" y="278"/>
      <point x="500" y="278" type="curve"/>
      <point x="556" y="278" type="line"/>
      <point x="556" y="278"/>
      <point x="500" y="222"/>
      <point x="500" y="222" type="curve"/>
      <point x="500" y="222"/>
      <point x="444" y="278"/>
    </contour>
    <contour>
      <point x="278" y="444" type="line"/>
      <point x="309" y="444"/>
      <point x="333" y="420"/>
      <point x="333" y="389" type="curve" smooth="yes"/>
      <point x="333" y="358"/>
      <point x="309" y="333"/>
      <point x="278" y="333" type="curve"/>
      <point x="278" y="389" type="line"/>
      <point x="278" y="358"/>
      <point x="253" y="333"/>
      <point x="222" y="333" type="curve"/>
      <point x="222" y="444" type="line"/>
      <point x="253" y="444"/>
      <point x="278" y="420"/>
      <point x="278" y="389" type="curve"/>
    </contour>
    <contour>
      <point x="333" y="333" type="line"/>
      <point x="333" y="444" type="line"/>
      <point x="444" y="444" type="line"/>
      <point x="444" y="333" type="line"/>
    </contour>
    <contour>
      <point x="222" y="444" type="line"/>
      <point x="222" y="556" type="line"/>
      <point x="333" y="556" type="line"/>
      <point x="333" y="444" type="line"/>
    </contour>
    <contour>
      <point x="444" y="444" type="line"/>
      <point x="444" y="556" type="line"/>
      <point x="556" y="556" type="line"/>
      <point x="556" y="444" type="line"/>
    </contour>
    <contour>
      <point x="222" y="611" type="curve" smooth="yes"/>
      <point x="222" y="642"/>
      <point x="247" y="667"/>
      <point x="278" y="667" type="curve" smooth="yes"/>
      <point x="309" y="667"/>
      <point x="333" y="642"/>
      <point x="333" y="611" type="curve" smooth="yes"/>
      <point x="333" y="580"/>
      <point x="309" y="556"/>
      <point x="278" y="556" type="curve" smooth="yes"/>
      <point x="247" y="556"/>
      <point x="222" y="580"/>
    </contour>
    <contour>
      <point x="556" y="611" type="line"/>
      <point x="556" y="611"/>
      <point x="611" y="667"/>
      <point x="611" y="667" type="curve"/>
      <point x="611" y="667"/>
      <point x="667" y="611"/>
      <point x="667" y="611" type="curve"/>
      <point x="611" y="611" type="line"/>
      <point x="611" y="611"/>
      <point x="667" y="556"/>
      <point x="667" y="556" type="curve"/>
      <point x="556" y="556" type="line"/>
      <point x="556" y="556"/>
      <point x="611" y="611"/>
      <point x="611" y="611" type="curve"/>
    </contour>
    <contour>
      <point x="111" y="722" type="curve" smooth="yes"/>
      <point x="111" y="753"/>
      <point x="136" y="778"/>
      <point x="167" y="778" type="curve" smooth="yes"/>
      <point x="198" y="778"/>
      <point x="222" y="753"/>
      <point x="222" y="722" type="curve" smooth="yes"/>
      <point x="222" y="691"/>
      <point x="198" y="667"/>
      <point x="167" y="667" type="curve" smooth="yes"/>
      <point x="136" y="667"/>
      <point x="111" y="691"/>
    </contour>
    <contour>
      <point x="222" y="722" type="line"/>
      <point x="222" y="753"/>
      <point x="247" y="778"/>
      <point x="278" y="778" type="curve" smooth="yes"/>
      <point x="309" y="778"/>
      <point x="333" y="753"/>
      <point x="333" y="722" type="curve"/>
      <point x="278" y="722" type="line"/>
      <point x="309" y="722"/>
      <point x="333" y="698"/>
      <point x="333" y="667" type="curve"/>
      <point x="222" y="667" type="line"/>
      <point x="222" y="698"/>
      <point x="247" y="722"/>
      <point x="278" y="722" type="curve"/>
    </contour>
    <contour>
      <point x="667" y="667" type="line"/>
      <point x="667" y="778" type="line"/>
      <point x="778" y="778" type="line"/>
      <point x="778" y="667" type="line"/>
    </contour>
    <contour>
      <point x="833" y="778" type="line"/>
      <point x="833" y="778"/>
      <point x="889" y="722"/>
      <point x="889" y="722" type="curve"/>
      <point x="889" y="722"/>
      <point x="833" y="667"/>
      <point x="833" y="667" type="curve"/>
      <point x="833" y="722" type="line"/>
      <point x="833" y="722"/>
      <point x="778" y="667"/>
      <point x="778" y="667" type="curve"/>
      <point x="778" y="778" type="line"/>
      <point x="778" y="778"/>
      <point x="833" y="722"/>
      <point x="833" y="722" type="curve"/>
    </contour>
  </outline>
</glyph>
<glyph name="M" format="1">
  <advance width="1000"/>
  <unicode hex="004D"/>
  <outline>
    <contour>
      <point x="111" y="111" type="line"/>
      <point x="222" y="111" type="line"/>
      <point x="222" y="49"/>
      <point x="173" y="0"/>
      <point x="111" y="0" type="curve"/>
    </contour>
    <contour>
      <point x="278" y="0" type="line"/>
      <point x="247" y="0"/>
      <point x="222" y="24"/>
      <point x="222" y="56" type="curve" smooth="yes"/>
      <point x="222" y="87"/>
      <point x="247" y="111"/>
      <point x="278" y="111" type="curve"/>
      <point x="278" y="56" type="line"/>
      <point x="278" y="87"/>
      <point x="302" y="111"/>
      <point x="333" y="111" type="curve"/>
      <point x="333" y="0" type="line"/>
      <point x="302" y="0"/>
      <point x="278" y="24"/>
      <point x="278" y="56" type="curve"/>
    </contour>
    <contour>
      <point x="667" y="56" type="curve" smooth="yes"/>
      <point x="667" y="87"/>
      <point x="691" y="111"/>
      <point x="722" y="111" type="curve" smooth="yes"/>
      <point x="753" y="111"/>
      <point x="778" y="87"/>
      <point x="778" y="56" type="curve" smooth="yes"/>
      <point x="778" y="24"/>
      <point x="753" y="0"/>
      <point x="722" y="0" type="curve" smooth="yes"/>
      <point x="691" y="0"/>
      <point x="667" y="24"/>
    </contour>
    <contour>
      <point x="889" y="111" type="line"/>
      <point x="889" y="0" type="line"/>
      <point x="827" y="0"/>
      <point x="778" y="49"/>
      <point x="778" y="111" type="curve"/>
    </contour>
    <contour>
      <point x="222" y="167" type="curve" smooth="yes"/>
      <point x="222" y="198"/>
      <point x="247" y="222"/>
      <point x="278" y="222" type="curve" smooth="yes"/>
      <point x="309" y="222"/>
      <point x="333" y="198"/>
      <point x="333" y="167" type="curve" smooth="yes"/>
      <point x="333" y="136"/>
      <point x="309" y="111"/>
      <point x="278" y="111" type="curve" smooth="yes"/>
      <point x="247" y="111"/>
      <point x="222" y="136"/>
    </contour>
    <contour>
      <point x="722" y="111" type="line"/>
      <point x="722" y="111"/>
      <point x="667" y="167"/>
      <point x="667" y="167" type="curve"/>
      <point x="667" y="167"/>
      <point x="722" y="222"/>
      <point x="722" y="222" type="curve"/>
      <point x="722" y="167" type="line"/>
      <point x="722" y="167"/>
      <point x="778" y="222"/>
      <point x="778" y="222" type="curve"/>
      <point x="778" y="111" type="line"/>
      <point x="778" y="111"/>
      <point x="722" y="167"/>
      <point x="722" y="167" type="curve"/>
    </contour>
    <contour>
      <point x="222" y="278" type="curve" smooth="yes"/>
      <point x="222" y="309"/>
      <point x="247" y="333"/>
      <point x="278" y="333" type="curve" smooth="yes"/>
      <point x="309" y="333"/>
      <point x="333" y="309"/>
      <point x="333" y="278" type="curve" smooth="yes"/>
      <point x="333" y="247"/>
      <point x="309" y="222"/>
      <point x="278" y="222" type="curve" smooth="yes"/>
      <point x="247" y="222"/>
      <point x="222" y="247"/>
    </contour>
    <contour>
      <point x="722" y="333" type="line"/>
      <point x="722" y="333"/>
      <point x="778" y="278"/>
      <point x="778" y="278" type="curve"/>
      <point x="778" y="278"/>
      <point x="722" y="222"/>
      <point x="722" y="222" type="curve"/>
      <point x="722" y="278" type="line"/>
      <point x="722" y="278"/>
      <point x="667" y="222"/>
      <point x="667" y="222" type="curve"/>
      <point x="667" y="333" type="line"/>
      <point x="667" y="333"/>
      <point x="722" y="278"/>
      <point x="722" y="278" type="curve"/>
    </contour>
    <contour>
      <point x="222" y="333" type="line"/>
      <point x="222" y="444" type="line"/>
      <point x="333" y="444" type="line"/>
      <point x="333" y="333" type="line"/>
    </contour>
    <contour>
      <point x="556" y="444" type="line"/>
      <point x="556" y="333" type="line"/>
      <point x="493" y="333"/>
      <point x="444" y="382"/>
      <point x="444" y="444" type="curve"/>
    </contour>
    <contour>
      <point x="667" y="389" type="curve" smooth="yes"/>
      <point x="667" y="420"/>
      <point x="691" y="444"/>
      <point x="722" y="444" type="curve" smooth="yes"/>
      <point x="753" y="444"/>
      <point x="778" y="420"/>
      <point x="778" y="389" type="curve" smooth="yes"/>
      <point x="778" y="358"/>
      <point x="753" y="333"/>
      <point x="722" y="333" type="curve" smooth="yes"/>
      <point x="691" y="333"/>
      <point x="667" y="358"/>
    </contour>
    <contour>
      <point x="278" y="444" type="line"/>
      <point x="278" y="444"/>
      <point x="222" y="500"/>
      <point x="222" y="500" type="curve"/>
      <point x="222" y="500"/>
      <point x="278" y="556"/>
      <point x="278" y="556" type="curve"/>
      <point x="278" y="500" type="line"/>
      <point x="278" y="500"/>
      <point x="333" y="556"/>
      <point x="333" y="556" type="curve"/>
      <point x="333" y="444" type="line"/>
      <point x="333" y="444"/>
      <point x="278" y="500"/>
      <point x="278" y="500" type="curve"/>
    </contour>
    <contour>
      <point x="444" y="500" type="line"/>
      <point x="444" y="531"/>
      <point x="469" y="556"/>
      <point x="500" y="556" type="curve" smooth="yes"/>
      <point x="531" y="556"/>
      <point x="556" y="531"/>
      <point x="556" y="500" type="curve"/>
      <point x="500" y="500" type="line"/>
      <point x="531" y="500"/>
      <point x="556" y="476"/>
      <point x="556" y="444" type="curve"/>
      <point x="444" y="444" type="line"/>
      <point x="444" y="476"/>
      <point x="469" y="500"/>
      <point x="500" y="500" type="curve"/>
    </contour>
    <contour>
      <point x="667" y="500" type="curve" smooth="yes"/>
      <point x="667" y="531"/>
      <point x="691" y="556"/>
      <point x="722" y="556" type="curve" smooth="yes"/>
      <point x="753" y="556"/>
      <point x="778" y="531"/>
      <point x="778" y="500" type="curve" smooth="yes"/>
      <point x="778" y="469"/>
      <point x="753" y="444"/>
      <point x="722" y="444" type="curve" smooth="yes"/>
      <point x="691" y="444"/>
      <point x="667" y="469"/>
    </contour>
    <contour>
      <point x="278" y="556" type="line"/>
      <point x="278" y="556"/>
      <point x="222" y="611"/>
      <point x="222" y="611" type="curve"/>
      <point x="222" y="611"/>
      <point x="278" y="667"/>
      <point x="278" y="667" type="curve"/>
      <point x="278" y="611" type="line"/>
      <point x="278" y="611"/>
      <point x="333" y="667"/>
      <point x="333" y="667" type="curve"/>
      <point x="333" y="556" type="line"/>
      <point x="333" y="556"/>
      <point x="278" y="611"/>
      <point x="278" y="611" type="curve"/>
    </contour>
    <contour>
      <point x="500" y="556" type="line"/>
      <point x="500" y="556"/>
      <point x="444" y="611"/>
      <point x="444" y="611" type="curve"/>
      <point x="444" y="611"/>
      <point x="500" y="667"/>
      <point x="500" y="667" type="curve"/>
      <point x="500" y="611" type="line"/>
      <point x="500" y="611"/>
      <point x="556" y="667"/>
      <point x="556" y="667" type="curve"/>
      <point x="556" y="556" type="line"/>
      <point x="556" y="556"/>
      <point x="500" y="611"/>
      <point x="500" y="611" type="curve"/>
    </contour>
    <contour>
      <point x="722" y="667" type="line"/>
      <point x="753" y="667"/>
      <point x="778" y="642"/>
      <point x="778" y="611" type="curve" smooth="yes"/>
      <point x="778" y="580"/>
      <point x="753" y="556"/>
      <point x="722" y="556" type="curve"/>
      <point x="722" y="611" type="line"/>
      <point x="722" y="580"/>
      <point x="698" y="556"/>
      <point x="667" y="556" type="curve"/>
      <point x="667" y="667" type="line"/>
      <point x="698" y="667"/>
      <point x="722" y="642"/>
      <point x="722" y="611" type="curve"/>
    </contour>
    <contour>
      <point x="167" y="667" type="line"/>
      <point x="167" y="667"/>
      <point x="111" y="722"/>
      <point x="111" y="722" type="curve"/>
      <point x="111" y="722"/>
      <point x="167" y="778"/>
      <point x="167" y="778" type="curve"/>
      <point x="167" y="722" type="line"/>
      <point x="167" y="722"/>
      <point x="222" y="778"/>
      <point x="222" y="778" type="curve"/>
      <point x="222" y="667" type="line"/>
      <point x="222" y="667"/>
      <point x="167" y="722"/>
      <point x="167" y="722" type="curve"/>
    </contour>
    <contour>
      <point x="278" y="778" type="line"/>
      <point x="309" y="778"/>
      <point x="333" y="753"/>
      <point x="333" y="722" type="curve" smooth="yes"/>
      <point x="333" y="691"/>
      <point x="309" y="667"/>
      <point x="278" y="667" type="curve"/>
      <point x="278" y="722" type="line"/>
      <point x="278" y="691"/>
      <point x="253" y="667"/>
      <point x="222" y="667" type="curve"/>
      <point x="222" y="778" type="line"/>
      <point x="253" y="778"/>
      <point x="278" y="753"/>
      <point x="278" y="722" type="curve"/>
    </contour>
    <contour>
      <point x="333" y="667" type="line"/>
      <point x="333" y="778" type="line"/>
      <point x="444" y="778" type="line"/>
      <point x="444" y="667" type="line"/>
    </contour>
    <contour>
      <point x="444" y="667" type="line"/>
      <point x="444" y="778" type="line"/>
      <point x="556" y="778" type="line"/>
      <point x="556" y="667" type="line"/>
    </contour>
    <contour>
      <point x="667" y="778" type="line"/>
      <point x="667" y="667" type="line"/>
      <point x="604" y="667"/>
      <point x="556" y="716"/>
      <point x="556" y="778" type="curve"/>
    </contour>
    <contour>
      <point x="722" y="778" type="line"/>
      <point x="753" y="778"/>
      <point x="778" y="753"/>
      <point x="778" y="722" type="curve" smooth="yes"/>
      <point x="778" y="691"/>
      <point x="753" y="667"/>
      <point x="722" y="667" type="curve"/>
      <point x="722" y="722" type="line"/>
      <point x="722" y="691"/>
      <point x="698" y="667"/>
      <point x="667" y="667" type="curve"/>
      <point x="667" y="778" type="line"/>
      <point x="698" y="778"/>
      <point x="722" y="753"/>
      <point x="722" y="722" type="curve"/>
    </contour>
    <contour>
      <point x="778" y="722" type="line"/>
      <point x="778" y="753"/>
      <point x="802" y="778"/>
      <point x="833" y="778" type="curve" smooth="yes"/>
      <point x="864" y="778"/>
      <point x="889" y="753"/>
      <point x="889" y="722" type="curve"/>
      <point x="833" y="722" type="line"/>
      <point x="864" y="722"/>
      <point x="889" y="698"/>
      <point x="889" y="667" type="curve"/>
      <point x="778" y="667" type="line"/>
      <point x="778" y="698"/>
      <point x="802" y="722"/>
      <point x="833" y="722" type="curve"/>
    </contour>
  </outline>
</glyph>
<glyph name="O" format="1">
  <advance width="777.7777777777778"/>
  <unicode hex="004F"/>
  <outline>
    <contour>
      <point x="222" y="56" type="curve"/>
      <point x="278" y="56" type="line"/>
      <point x="278" y="56"/>
      <point x="222" y="111"/>
      <point x="222" y="111" type="curve"/>
      <point x="333" y="111" type="line"/>
      <point x="333" y="111"/>
      <point x="278" y="56"/>
      <point x="278" y="56" type="curve"/>
      <point x="333" y="56" type="line"/>
      <point x="333" y="56"/>
      <point x="278" y="0"/>
      <point x="278" y="0" type="curve"/>
      <point x="278" y="0"/>
      <point x="222" y="56"/>
    </contour>
    <contour>
      <point x="389" y="111" type="line"/>
      <point x="389" y="111"/>
      <point x="444" y="56"/>
      <point x="444" y="56" type="curve"/>
      <point x="444" y="56"/>
      <point x="389" y="0"/>
      <point x="389" y="0" type="curve"/>
      <point x="389" y="56" type="line"/>
      <point x="389" y="56"/>
      <point x="333" y="0"/>
      <point x="333" y="0" type="curve"/>
      <point x="333" y="111" type="line"/>
      <point x="333" y="111"/>
      <point x="389" y="56"/>
      <point x="389" y="56" type="curve"/>
    </contour>
    <contour>
      <point x="444" y="56" type="line"/>
      <point x="444" y="87"/>
      <point x="469" y="111"/>
      <point x="500" y="111" type="curve" smooth="yes"/>
      <point x="531" y="111"/>
      <point x="556" y="87"/>
      <point x="556" y="56" type="curve"/>
      <point x="500" y="56" type="line"/>
      <point x="531" y="56"/>
      <point x="556" y="31"/>
      <point x="556" y="0" type="curve"/>
      <point x="444" y="0" type="line"/>
      <point x="444" y="31"/>
      <point x="469" y="56"/>
      <point x="500" y="56" type="curve"/>
    </contour>
    <contour>
      <point x="111" y="111" type="line"/>
      <point x="111" y="222" type="line"/>
      <point x="222" y="222" type="line"/>
      <point x="222" y="111" type="line"/>
    </contour>
    <contour>
      <point x="556" y="222" type="line"/>
      <point x="667" y="222" type="line"/>
      <point x="667" y="160"/>
      <point x="618" y="111"/>
      <point x="556" y="111" type="curve"/>
    </contour>
    <contour>
      <point x="167" y="333" type="line"/>
      <point x="198" y="333"/>
      <point x="222" y="309"/>
      <point x="222" y="278" type="curve" smooth="yes"/>
      <point x="222" y="247"/>
      <point x="198" y="222"/>
      <point x="167" y="222" type="curve"/>
      <point x="167" y="278" type="line"/>
      <point x="167" y="247"/>
      <point x="142" y="222"/>
      <point x="111" y="222" type="curve"/>
      <point x="111" y="333" type="line"/>
      <point x="142" y="333"/>
      <point x="167" y="309"/>
      <point x="167" y="278" type="curve"/>
    </contour>
    <contour>
      <point x="556" y="278" type="curve"/>
      <point x="611" y="278" type="line"/>
      <point x="580" y="278"/>
      <point x="556" y="302"/>
      <point x="556" y="333" type="curve"/>
      <point x="667" y="333" type="line"/>
      <point x="667" y="302"/>
      <point x="642" y="278"/>
      <point x="611" y="278" type="curve"/>
      <point x="667" y="278" type="line"/>
      <point x="667" y="247"/>
      <point x="642" y="222"/>
      <point x="611" y="222" type="curve" smooth="yes"/>
      <point x="580" y="222"/>
      <point x="556" y="247"/>
    </contour>
    <contour>
      <point x="167" y="444" type="line"/>
      <point x="198" y="444"/>
      <point x="222" y="420"/>
      <point x="222" y="389" type="curve" smooth="yes"/>
      <point x="222" y="358"/>
      <point x="198" y="333"/>
      <point x="167" y="333" type="curve"/>
      <point x="167" y="389" type="line"/>
      <point x="167" y="358"/>
      <point x="142" y="333"/>
      <point x="111" y="333" type="curve"/>
      <point x="111" y="444" type="line"/>
      <point x="142" y="444"/>
      <point x="167" y="420"/>
      <point x="167" y="389" type="curve"/>
    </contour>
    <contour>
      <point x="556" y="333" type="line"/>
      <point x="556" y="444" type="line"/>
      <point x="618" y="444"/>
      <point x="667" y="396"/>
      <point x="667" y="333" type="curve"/>
    </contour>
    <contour>
      <point x="111" y="444" type="line"/>
      <point x="111" y="556" type="line"/>
      <point x="222" y="556" type="line"/>
      <point x="222" y="444" type="line"/>
    </contour>
    <contour>
      <point x="556" y="444" type="line"/>
      <point x="556" y="556" type="line"/>
      <point x="667" y="556" type="line"/>
      <point x="667" y="444" type="line"/>
    </contour>
    <contour>
      <point x="111" y="611" type="curve" smooth="yes"/>
      <point x="111" y="642"/>
      <point x="136" y="667"/>
      <point x="167" y="667" type="curve" smooth="yes"/>
      <point x="198" y="667"/>
      <point x="222" y="642"/>
      <point x="222" y="611" type="curve" smooth="yes"/>
      <point x="222" y="580"/>
      <point x="198" y="556"/>
      <point x="167" y="556" type="curve" smooth="yes"/>
      <point x="136" y="556"/>
      <point x="111" y="580"/>
    </contour>
    <contour>
      <point x="556" y="556" type="line"/>
      <point x="556" y="667" type="line"/>
      <point x="667" y="667" type="line"/>
      <point x="667" y="556" type="line"/>
    </contour>
    <contour>
      <point x="222" y="722" type="line"/>
      <point x="222" y="753"/>
      <point x="247" y="778"/>
      <point x="278" y="778" type="curve" smooth="yes"/>
      <point x="309" y="778"/>
      <point x="333" y="753"/>
      <point x="333" y="722" type="curve"/>
      <point x="278" y="722" type="line"/>
      <point x="309" y="722"/>
      <point x="333" y="698"/>
      <point x="333" y="667" type="curve"/>
      <point x="222" y="667" type="line"/>
      <point x="222" y="698"/>
      <point x="247" y="722"/>
      <point x="278" y="722" type="curve"/>
    </contour>
    <contour>
      <point x="389" y="778" type="line"/>
      <point x="389" y="778"/>
      <point x="444" y="722"/>
      <point x="444" y="722" type="curve"/>
      <point x="444" y="722"/>
      <point x="389" y="667"/>
      <point x="389" y="667" type="curve"/>
      <point x="389" y="722" type="line"/>
      <point x="389" y="722"/>
      <point x="333" y="667"/>
      <point x="333" y="667" type="curve"/>
      <point x="333" y="778" type="line"/>
      <point x="333" y="778"/>
      <point x="389" y="722"/>
      <point x="389" y="722" type="curve"/>
    </contour>
    <contour>
      <point x="444" y="722" type="curve"/>
      <point x="500" y="722" type="line"/>
      <point x="500" y="722"/>
      <point x="444" y="778"/>
      <point x="444" y="778" type="curve"/>
      <point x="556" y="778" type="line"/>
      <point x="556" y="778"/>
      <point x="500" y="722"/>
      <point x="500" y="722" type="curve"/>
      <point x="556" y="722" type="line"/>
      <point x="556" y="722"/>
      <point x="500" y="667"/>
      <point x="500" y="667" type="curve"/>
      <point x="500" y="667"/>
      <point x="444" y="722"/>
    </contour>
  </outline>
</glyph>
<glyph name="P" format="1">
  <advance width="889"/>
  <unicode hex="0050"/>
  <outline>
    <contour>
      <point x="111" y="56" type="curve"/>
      <point x="167" y="56" type="line"/>
      <point x="136" y="56"/>
      <point x="111" y="80"/>
      <point x="111" y="111" type="curve"/>
      <point x="222" y="111" type="line"/>
      <point x="222" y="80"/>
      <point x="198" y="56"/>
      <point x="167" y="56" type="curve"/>
      <point x="222" y="56" type="line"/>
      <point x="222" y="24"/>
      <point x="198" y="0"/>
      <point x="167" y="0" type="curve" smooth="yes"/>
      <point x="136" y="0"/>
      <point x="111" y="24"/>
    </contour>
    <contour>
      <point x="222" y="56" type="curve" smooth="yes"/>
      <point x="222" y="87"/>
      <point x="247" y="111"/>
      <point x="278" y="111" type="curve" smooth="yes"/>
      <point x="309" y="111"/>
      <point x="333" y="87"/>
      <point x="333" y="56" type="curve" smooth="yes"/>
      <point x="333" y="24"/>
      <point x="309" y="0"/>
      <point x="278" y="0" type="curve" smooth="yes"/>
      <point x="247" y="0"/>
      <point x="222" y="24"/>
    </contour>
    <contour>
      <point x="333" y="56" type="curve"/>
      <point x="389" y="56" type="line"/>
      <point x="389" y="56"/>
      <point x="333" y="111"/>
      <point x="333" y="111" type="curve"/>
      <point x="444" y="111" type="line"/>
      <point x="444" y="111"/>
      <point x="389" y="56"/>
      <point x="389" y="56" type="curve"/>
      <point x="444" y="56" type="line"/>
      <point x="444" y="56"/>
      <point x="389" y="0"/>
      <point x="389" y="0" type="curve"/>
      <point x="389" y="0"/>
      <point x="333" y="56"/>
    </contour>
    <contour>
      <point x="333" y="111" type="line"/>
      <point x="222" y="111" type="line"/>
      <point x="222" y="173"/>
      <point x="271" y="222"/>
      <point x="333" y="222" type="curve"/>
    </contour>
    <contour>
      <point x="278" y="222" type="line"/>
      <point x="247" y="222"/>
      <point x="222" y="247"/>
      <point x="222" y="278" type="curve" smooth="yes"/>
      <point x="222" y="309"/>
      <point x="247" y="333"/>
      <point x="278" y="333" type="curve"/>
      <point x="278" y="278" type="line"/>
      <point x="278" y="309"/>
      <point x="302" y="333"/>
      <point x="333" y="333" type="curve"/>
      <point x="333" y="222" type="line"/>
      <point x="302" y="222"/>
      <point x="278" y="247"/>
      <point x="278" y="278" type="curve"/>
    </contour>
    <contour>
      <point x="222" y="389" type="line"/>
      <point x="222" y="389"/>
      <point x="278" y="444"/>
      <point x="278" y="444" type="curve"/>
      <point x="278" y="444"/>
      <point x="333" y="389"/>
      <point x="333" y="389" type="curve"/>
      <point x="278" y="389" type="line"/>
      <point x="278" y="389"/>
      <point x="333" y="333"/>
      <point x="333" y="333" type="curve"/>
      <point x="222" y="333" type="line"/>
      <point x="222" y="333"/>
      <point x="278" y="389"/>
      <point x="278" y="389" type="curve"/>
    </contour>
    <contour>
      <point x="333" y="333" type="line"/>
      <point x="333" y="444" type="line"/>
      <point x="444" y="444" type="line"/>
      <point x="444" y="333" type="line"/>
    </contour>
    <contour>
      <point x="444" y="333" type="line"/>
      <point x="444" y="444" type="line"/>
      <point x="556" y="444" type="line"/>
      <point x="556" y="333" type="line"/>
    </contour>
    <contour>
      <point x="667" y="444" type="line"/>
      <point x="667" y="333" type="line"/>
      <point x="604" y="333"/>
      <point x="556" y="382"/>
      <point x="556" y="444" type="curve"/>
    </contour>
    <contour>
      <point x="222" y="556" type="line"/>
      <point x="333" y="556" type="line"/>
      <point x="333" y="493"/>
      <point x="284" y="444"/>
      <point x="222" y="444" type="curve"/>
    </contour>
    <contour>
      <point x="667" y="500" type="curve" smooth="yes"/>
      <point x="667" y="531"/>
      <point x="691" y="556"/>
      <point x="722" y="556" type="curve" smooth="yes"/>
      <point x="753" y="556"/>
      <point x="778" y="531"/>
      <point x="778" y="500" type="curve" smooth="yes"/>
      <point x="778" y="469"/>
      <point x="753" y="444"/>
      <point x="722" y="444" type="curve" smooth="yes"/>
      <point x="691" y="444"/>
      <point x="667" y="469"/>
    </contour>
    <contour>
      <point x="222" y="611" type="curve" smooth="yes"/>
      <point x="222" y="642"/>
      <point x="247" y="667"/>
      <point x="278" y="667" type="curve" smooth="yes"/>
      <point x="309" y="667"/>
      <point x="333" y="642"/>
      <point x="333" y="611" type="curve" smooth="yes"/>
      <point x="333" y="580"/>
      <point x="309" y="556"/>
      <point x="278" y="556" type="curve" smooth="yes"/>
      <point x="247" y="556"/>
      <point x="222" y="580"/>
    </contour>
    <contour>
      <point x="667" y="667" type="line"/>
      <point x="778" y="667" type="line"/>
      <point x="778" y="604"/>
      <point x="729" y="556"/>
      <point x="667" y="556" type="curve"/>
    </contour>
    <contour>
      <point x="222" y="667" type="line"/>
      <point x="111" y="667" type="line"/>
      <point x="111" y="729"/>
      <point x="160" y="778"/>
      <point x="222" y="778" type="curve"/>
    </contour>
    <contour>
      <point x="222" y="722" type="curve" smooth="yes"/>
      <point x="222" y="753"/>
      <point x="247" y="778"/>
      <point x="278" y="778" type="curve" smooth="yes"/>
      <point x="309" y="778"/>
      <point x="333" y="753"/>
      <point x="333" y="722" type="curve" smooth="yes"/>
      <point x="333" y="691"/>
      <point x="309" y="667"/>
      <point x="278" y="667" type="curve" smooth="yes"/>
      <point x="247" y="667"/>
      <point x="222" y="691"/>
    </contour>
    <contour>
      <point x="333" y="667" type="line"/>
      <point x="333" y="778" type="line"/>
      <point x="444" y="778" type="line"/>
      <point x="444" y="667" type="line"/>
    </contour>
    <contour>
      <point x="444" y="667" type="line"/>
      <point x="444" y="778" type="line"/>
      <point x="556" y="778" type="line"/>
      <point x="556" y="667" type="line"/>
    </contour>
    <contour>
      <point x="556" y="722" type="curve"/>
      <point x="611" y="722" type="line"/>
      <point x="611" y="722"/>
      <point x="556" y="778"/>
      <point x="556" y="778" type="curve"/>
      <point x="667" y="778" type="line"/>
      <point x="667" y="778"/>
      <point x="611" y="722"/>
      <point x="611" y="722" type="curve"/>
      <point x="667" y="722" type="line"/>
      <point x="667" y="722"/>
      <point x="611" y="667"/>
      <point x="611" y="667" type="curve"/>
      <point x="611" y="667"/>
      <point x="556" y="722"/>
    </contour>
  </outline>
</glyph>
<glyph name="R" format="1">
  <advance width="888.8888888888889"/>
  <unicode hex="0052"/>
  <outline>
    <contour>
      <point x="111" y="56" type="curve" smooth="yes"/>
      <point x="111" y="87"/>
      <point x="136" y="111"/>
      <point x="167" y="111" type="curve" smooth="yes"/>
      <point x="198" y="111"/>
      <point x="222" y="87"/>
      <point x="222" y="56" type="curve" smooth="yes"/>
      <point x="222" y="24"/>
      <point x="198" y="0"/>
      <point x="167" y="0" type="curve" smooth="yes"/>
      <point x="136" y="0"/>
      <point x="111" y="24"/>
    </contour>
    <contour>
      <point x="278" y="111" type="line"/>
      <point x="309" y="111"/>
      <point x="333" y="87"/>
      <point x="333" y="56" type="curve" smooth="yes"/>
      <point x="333" y="24"/>
      <point x="309" y="0"/>
      <point x="278" y="0" type="curve"/>
      <point x="278" y="56" type="line"/>
      <point x="278" y="24"/>
      <point x="253" y="0"/>
      <point x="222" y="0" type="curve"/>
      <point x="222" y="111" type="line"/>
      <point x="253" y="111"/>
      <point x="278" y="87"/>
      <point x="278" y="56" type="curve"/>
    </contour>
    <contour>
      <point x="667" y="0" type="line"/>
      <point x="667" y="111" type="line"/>
      <point x="778" y="111" type="line"/>
      <point x="778" y="0" type="line"/>
    </contour>
    <contour>
      <point x="833" y="0" type="line"/>
      <point x="833" y="0"/>
      <point x="778" y="56"/>
      <point x="778" y="56" type="curve"/>
      <point x="778" y="56"/>
      <point x="833" y="111"/>
      <point x="833" y="111" type="curve"/>
      <point x="833" y="56" type="line"/>
      <point x="833" y="56"/>
      <point x="889" y="111"/>
      <point x="889" y="111" type="curve"/>
      <point x="889" y="0" type="line"/>
      <point x="889" y="0"/>
      <point x="833" y="56"/>
      <point x="833" y="56" type="curve"/>
    </contour>
    <contour>
      <point x="278" y="222" type="line"/>
      <point x="309" y="222"/>
      <point x="333" y="198"/>
      <point x="333" y="167" type="curve" smooth="yes"/>
      <point x="333" y="136"/>
      <point x="309" y="111"/>
      <point x="278" y="111" type="curve"/>
      <point x="278" y="167" type="line"/>
      <point x="278" y="136"/>
      <point x="253" y="111"/>
      <point x="222" y="111" type="curve"/>
      <point x="222" y="222" type="line"/>
      <point x="253" y="222"/>
      <point x="278" y="198"/>
      <point x="278" y="167" type="curve"/>
    </contour>
    <contour>
      <point x="556" y="167" type="line"/>
      <point x="556" y="167"/>
      <point x="611" y="222"/>
      <point x="611" y="222" type="curve"/>
      <point x="611" y="222"/>
      <point x="667" y="167"/>
      <point x="667" y="167" type="curve"/>
      <point x="611" y="167" type="line"/>
      <point x="611" y="167"/>
      <point x="667" y="111"/>
      <point x="667" y="111" type="curve"/>
      <point x="556" y="111" type="line"/>
      <point x="556" y="111"/>
      <point x="611" y="167"/>
      <point x="611" y="167" type="curve"/>
    </contour>
    <contour>
      <point x="278" y="333" type="line"/>
      <point x="278" y="333"/>
      <point x="333" y="278"/>
      <point x="333" y="278" type="curve"/>
      <point x="333" y="278"/>
      <point x="278" y="222"/>
      <point x="278" y="222" type="curve"/>
      <point x="278" y="278" type="line"/>
      <point x="278" y="278"/>
      <point x="222" y="222"/>
      <point x="222" y="222" type="curve"/>
      <point x="222" y="333" type="line"/>
      <point x="222" y="333"/>
      <point x="278" y="278"/>
      <point x="278" y="278" type="curve"/>
    </contour>
    <contour>
      <point x="444" y="278" type="curve" smooth="yes"/>
      <point x="444" y="309"/>
      <point x="469" y="333"/>
      <point x="500" y="333" type="curve" smooth="yes"/>
      <point x="531" y="333"/>
      <point x="556" y="309"/>
      <point x="556" y="278" type="curve" smooth="yes"/>
      <point x="556" y="247"/>
      <point x="531" y="222"/>
      <point x="500" y="222" type="curve" smooth="yes"/>
      <point x="469" y="222"/>
      <point x="444" y="247"/>
    </contour>
    <contour>
      <point x="222" y="389" type="curve" smooth="yes"/>
      <point x="222" y="420"/>
      <point x="247" y="444"/>
      <point x="278" y="444" type="curve" smooth="yes"/>
      <point x="309" y="444"/>
      <point x="333" y="420"/>
      <point x="333" y="389" type="curve" smooth="yes"/>
      <point x="333" y="358"/>
      <point x="309" y="333"/>
      <point x="278" y="333" type="curve" smooth="yes"/>
      <point x="247" y="333"/>
      <point x="222" y="358"/>
    </contour>
    <contour>
      <point x="389" y="444" type="line"/>
      <point x="420" y="444"/>
      <point x="444" y="420"/>
      <point x="444" y="389" type="curve" smooth="yes"/>
      <point x="444" y="358"/>
      <point x="420" y="333"/>
      <point x="389" y="333" type="curve"/>
      <point x="389" y="389" type="line"/>
      <point x="389" y="358"/>
      <point x="364" y="333"/>
      <point x="333" y="333" type="curve"/>
      <point x="333" y="444" type="line"/>
      <point x="364" y="444"/>
      <point x="389" y="420"/>
      <point x="389" y="389" type="curve"/>
    </contour>
    <contour>
      <point x="500" y="444" type="line"/>
      <point x="531" y="444"/>
      <point x="556" y="420"/>
      <point x="556" y="389" type="curve" smooth="yes"/>
      <point x="556" y="358"/>
      <point x="531" y="333"/>
      <point x="500" y="333" type="curve"/>
      <point x="500" y="389" type="line"/>
      <point x="500" y="358"/>
      <point x="476" y="333"/>
      <point x="444" y="333" type="curve"/>
      <point x="444" y="444" type="line"/>
      <point x="476" y="444"/>
      <point x="500" y="420"/>
      <point x="500" y="389" type="curve"/>
    </contour>
    <contour>
      <point x="556" y="389" type="line"/>
      <point x="556" y="420"/>
      <point x="580" y="444"/>
      <point x="611" y="444" type="curve" smooth="yes"/>
      <point x="642" y="444"/>
      <point x="667" y="420"/>
      <point x="667" y="389" type="curve"/>
      <point x="611" y="389" type="line"/>
      <point x="642" y="389"/>
      <point x="667" y="364"/>
      <point x="667" y="333" type="curve"/>
      <point x="556" y="333" type="line"/>
      <point x="556" y="364"/>
      <point x="580" y="389"/>
      <point x="611" y="389" type="curve"/>
    </contour>
    <contour>
      <point x="222" y="444" type="line"/>
      <point x="222" y="556" type="line"/>
      <point x="333" y="556" type="line"/>
      <point x="333" y="444" type="line"/>
    </contour>
    <contour>
      <point x="722" y="556" type="line"/>
      <point x="722" y="556"/>
      <point x="778" y="500"/>
      <point x="778" y="500" type="curve"/>
      <point x="778" y="500"/>
      <point x="722" y="444"/>
      <point x="722" y="444" type="curve"/>
      <point x="722" y="500" type="line"/>
      <point x="722" y="500"/>
      <point x="667" y="444"/>
      <point x="667" y="444" type="curve"/>
      <point x="667" y="556" type="line"/>
      <point x="667" y="556"/>
      <point x="722" y="500"/>
      <point x="722" y="500" type="curve"/>
    </contour>
    <contour>
      <point x="222" y="611" type="line"/>
      <point x="222" y="642"/>
      <point x="247" y="667"/>
      <point x="278" y="667" type="curve" smooth="yes"/>
      <point x="309" y="667"/>
      <point x="333" y="642"/>
      <point x="333" y="611" type="curve"/>
      <point x="278" y="611" type="line"/>
      <point x="309" y="611"/>
      <point x="333" y="587"/>
      <point x="333" y="556" type="curve"/>
      <point x="222" y="556" type="line"/>
      <point x="222" y="587"/>
      <point x="247" y="611"/>
      <point x="278" y="611" type="curve"/>
    </contour>
    <contour>
      <point x="667" y="556" type="line"/>
      <point x="667" y="667" type="line"/>
      <point x="778" y="667" type="line"/>
      <point x="778" y="556" type="line"/>
    </contour>
    <contour>
      <point x="167" y="778" type="line"/>
      <point x="198" y="778"/>
      <point x="222" y="753"/>
      <point x="222" y="722" type="curve" smooth="yes"/>
      <point x="222" y="691"/>
      <point x="198" y="667"/>
      <point x="167" y="667" type="curve"/>
      <point x="167" y="722" type="line"/>
      <point x="167" y="691"/>
      <point x="142" y="667"/>
      <point x="111" y="667" type="curve"/>
      <point x="111" y="778" type="line"/>
      <point x="142" y="778"/>
      <point x="167" y="753"/>
      <point x="167" y="722" type="curve"/>
    </contour>
    <contour>
      <point x="222" y="722" type="curve"/>
      <point x="278" y="722" type="line"/>
      <point x="278" y="722"/>
      <point x="222" y="778"/>
      <point x="222" y="778" type="curve"/>
      <point x="333" y="778" type="line"/>
      <point x="333" y="778"/>
      <point x="278" y="722"/>
      <point x="278" y="722" type="curve"/>
      <point x="333" y="722" type="line"/>
      <point x="333" y="722"/>
      <point x="278" y="667"/>
      <point x="278" y="667" type="curve"/>
      <point x="278" y="667"/>
      <point x="222" y="722"/>
    </contour>
    <contour>
      <point x="444" y="667" type="line"/>
      <point x="333" y="667" type="line"/>
      <point x="333" y="729"/>
      <point x="382" y="778"/>
      <point x="444" y="778" type="curve"/>
    </contour>
    <contour>
      <point x="444" y="722" type="curve"/>
      <point x="500" y="722" type="line"/>
      <point x="469" y="722"/>
      <point x="444" y="747"/>
      <point x="444" y="778" type="curve"/>
      <point x="556" y="778" type="line"/>
      <point x="556" y="747"/>
      <point x="531" y="722"/>
      <point x="500" y="722" type="curve"/>
      <point x="556" y="722" type="line"/>
      <point x="556" y="691"/>
      <point x="531" y="667"/>
      <point x="500" y="667" type="curve" smooth="yes"/>
      <point x="469" y="667"/>
      <point x="444" y="691"/>
    </contour>
    <contour>
      <point x="556" y="667" type="line"/>
      <point x="556" y="778" type="line"/>
      <point x="618" y="778"/>
      <point x="667" y="729"/>
      <point x="667" y="667" type="curve"/>
    </contour>
  </outline>
</glyph>
<glyph name="T" format="1">
  <advance width="1000.0"/>
  <unicode hex="0054"/>
  <outline>
    <contour>
      <point x="333" y="0" type="line"/>
      <point x="333" y="111" type="line"/>
      <point x="396" y="111"/>
      <point x="444" y="62"/>
      <point x="444" y="0" type="curve"/>
    </contour>
    <contour>
      <point x="444" y="0" type="line"/>
      <point x="444" y="111" type="line"/>
      <point x="556" y="111" type="line"/>
      <point x="556" y="0" type="line"/>
    </contour>
    <contour>
      <point x="611" y="0" type="line"/>
      <point x="580" y="0"/>
      <point x="556" y="24"/>
      <point x="556" y="56" type="curve" smooth="yes"/>
      <point x="556" y="87"/>
      <point x="580" y="111"/>
      <point x="611" y="111" type="curve"/>
      <point x="611" y="56" type="line"/>
      <point x="611" y="87"/>
      <point x="636" y="111"/>
      <point x="667" y="111" type="curve"/>
      <point x="667" y="0" type="line"/>
      <point x="636" y="0"/>
      <point x="611" y="24"/>
      <point x="611" y="56" type="curve"/>
    </contour>
    <contour>
      <point x="444" y="111" type="line"/>
      <point x="444" y="222" type="line"/>
      <point x="507" y="222"/>
      <point x="556" y="173"/>
      <point x="556" y="111" type="curve"/>
    </contour>
    <contour>
      <point x="444" y="222" type="line"/>
      <point x="444" y="333" type="line"/>
      <point x="556" y="333" type="line"/>
      <point x="556" y="222" type="line"/>
    </contour>
    <contour>
      <point x="444" y="333" type="line"/>
      <point x="444" y="444" type="line"/>
      <point x="556" y="444" type="line"/>
      <point x="556" y="333" type="line"/>
    </contour>
    <contour>
      <point x="444" y="444" type="line"/>
      <point x="444" y="556" type="line"/>
      <point x="507" y="556"/>
      <point x="556" y="507"/>
      <point x="556" y="444" type="curve"/>
    </contour>
    <contour>
      <point x="222" y="556" type="line"/>
      <point x="111" y="556" type="line"/>
      <point x="111" y="618"/>
      <point x="160" y="667"/>
      <point x="222" y="667" type="curve"/>
    </contour>
    <contour>
      <point x="444" y="556" type="line"/>
      <point x="444" y="667" type="line"/>
      <point x="556" y="667" type="line"/>
      <point x="556" y="556" type="line"/>
    </contour>
    <contour>
      <point x="889" y="667" type="line"/>
      <point x="889" y="556" type="line"/>
      <point x="827" y="556"/>
      <point x="778" y="604"/>
      <point x="778" y="667" type="curve"/>
    </contour>
    <contour>
      <point x="111" y="722" type="curve" smooth="yes"/>
      <point x="111" y="753"/>
      <point x="136" y="778"/>
      <point x="167" y="778" type="curve" smooth="yes"/>
      <point x="198" y="778"/>
      <point x="222" y="753"/>
      <point x="222" y="722" type="curve" smooth="yes"/>
      <point x="222" y="691"/>
      <point x="198" y="667"/>
      <point x="167" y="667" type="curve" smooth="yes"/>
      <point x="136" y="667"/>
      <point x="111" y="691"/>
    </contour>
    <contour>
      <point x="222" y="722" type="curve" smooth="yes"/>
      <point x="222" y="753"/>
      <point x="247" y="778"/>
      <point x="278" y="778" type="curve" smooth="yes"/>
      <point x="309" y="778"/>
      <point x="333" y="753"/>
      <point x="333" y="722" type="curve" smooth="yes"/>
      <point x="333" y="691"/>
      <point x="309" y="667"/>
      <point x="278" y="667" type="curve" smooth="yes"/>
      <point x="247" y="667"/>
      <point x="222" y="691"/>
    </contour>
    <contour>
      <point x="333" y="722" type="curve" smooth="yes"/>
      <point x="333" y="753"/>
      <point x="358" y="778"/>
      <point x="389" y="778" type="curve" smooth="yes"/>
      <point x="420" y="778"/>
      <point x="444" y="753"/>
      <point x="444" y="722" type="curve" smooth="yes"/>
      <point x="444" y="691"/>
      <point x="420" y="667"/>
      <point x="389" y="667" type="curve" smooth="yes"/>
      <point x="358" y="667"/>
      <point x="333" y="691"/>
    </contour>
    <contour>
      <point x="444" y="722" type="curve" smooth="yes"/>
      <point x="444" y="753"/>
      <point x="469" y="778"/>
      <point x="500" y="778" type="curve" smooth="yes"/>
      <point x="531" y="778"/>
      <point x="556" y="753"/>
      <point x="556" y="722" type="curve" smooth="yes"/>
      <point x="556" y="691"/>
      <point x="531" y="667"/>
      <point x="500" y="667" type="curve" smooth="yes"/>
      <point x="469" y="667"/>
      <point x="444" y="691"/>
    </contour>
    <contour>
      <point x="556" y="722" type="curve" smooth="yes"/>
      <point x="556" y="753"/>
      <point x="580" y="778"/>
      <point x="611" y="778" type="curve" smooth="yes"/>
      <point x="642" y="778"/>
      <point x="667" y="753"/>
      <point x="667" y="722" type="curve" smooth="yes"/>
      <point x="667" y="691"/>
      <point x="642" y="667"/>
      <point x="611" y="667" type="curve" smooth="yes"/>
      <point x="580" y="667"/>
      <point x="556" y="691"/>
    </contour>
    <contour>
      <point x="722" y="667" type="line"/>
      <point x="691" y="667"/>
      <point x="667" y="691"/>
      <point x="667" y="722" type="curve" smooth="yes"/>
      <point x="667" y="753"/>
      <point x="691" y="778"/>
      <point x="722" y="778" type="curve"/>
      <point x="722" y="722" type="line"/>
      <point x="722" y="753"/>
      <point x="747" y="778"/>
      <point x="778" y="778" type="curve"/>
      <point x="778" y="667" type="line"/>
      <point x="747" y="667"/>
      <point x="722" y="691"/>
      <point x="722" y="722" type="curve"/>
    </contour>
    <contour>
      <point x="778" y="667" type="line"/>
      <point x="778" y="778" type="line"/>
      <point x="889" y="778" type="line"/>
      <point x="889" y="667" type="line"/>
    </contour>
  </outline>
</glyph>
<glyph name="U" format="1">
  <advance width="1000"/>
  <unicode hex="0055"/>
  <outline>
    <contour>
      <point x="333" y="56" type="curve" smooth="yes"/>
      <point x="333" y="87"/>
      <point x="358" y="111"/>
      <point x="389" y="111" type="curve" smooth="yes"/>
      <point x="420" y="111"/>
      <point x="444" y="87"/>
      <point x="444" y="56" type="curve" smooth="yes"/>
      <point x="444" y="24"/>
      <point x="420" y="0"/>
      <point x="389" y="0" type="curve" smooth="yes"/>
      <point x="358" y="0"/>
      <point x="333" y="24"/>
    </contour>
    <contour>
      <point x="500" y="111" type="line"/>
      <point x="531" y="111"/>
      <point x="556" y="87"/>
      <point x="556" y="56" type="curve" smooth="yes"/>
      <point x="556" y="24"/>
      <point x="531" y="0"/>
      <point x="500" y="0" type="curve"/>
      <point x="500" y="56" type="line"/>
      <point x="500" y="24"/>
      <point x="476" y="0"/>
      <point x="444" y="0" type="curve"/>
      <point x="444" y="111" type="line"/>
      <point x="476" y="111"/>
      <point x="500" y="87"/>
      <point x="500" y="56" type="curve"/>
    </contour>
    <contour>
      <point x="667" y="0" type="line"/>
      <point x="556" y="0" type="line"/>
      <point x="556" y="62"/>
      <point x="604" y="111"/>
      <point x="667" y="111" type="curve"/>
    </contour>
    <contour>
      <point x="222" y="167" type="curve"/>
      <point x="278" y="167" type="line"/>
      <point x="278" y="167"/>
      <point x="222" y="222"/>
      <point x="222" y="222" type="curve"/>
      <point x="333" y="222" type="line"/>
      <point x="333" y="222"/>
      <point x="278" y="167"/>
      <point x="278" y="167" type="curve"/>
      <point x="333" y="167" type="line"/>
      <point x="333" y="167"/>
      <point x="278" y="111"/>
      <point x="278" y="111" type="curve"/>
      <point x="278" y="111"/>
      <point x="222" y="167"/>
    </contour>
    <contour>
      <point x="667" y="111" type="line"/>
      <point x="667" y="222" type="line"/>
      <point x="778" y="222" type="line"/>
      <point x="778" y="111" type="line"/>
    </contour>
    <contour>
      <point x="222" y="278" type="curve" smooth="yes"/>
      <point x="222" y="309"/>
      <point x="247" y="333"/>
      <point x="278" y="333" type="curve" smooth="yes"/>
      <point x="309" y="333"/>
      <point x="333" y="309"/>
      <point x="333" y="278" type="curve" smooth="yes"/>
      <point x="333" y="247"/>
      <point x="309" y="222"/>
      <point x="278" y="222" type="curve" smooth="yes"/>
      <point x="247" y="222"/>
      <point x="222" y="247"/>
    </contour>
    <contour>
      <point x="667" y="222" type="line"/>
      <point x="667" y="333" type="line"/>
      <point x="729" y="333"/>
      <point x="778" y="284"/>
      <point x="778" y="222" type="curve"/>
    </contour>
    <contour>
      <point x="222" y="389" type="curve" smooth="yes"/>
      <point x="222" y="420"/>
      <point x="247" y="444"/>
      <point x="278" y="444" type="curve" smooth="yes"/>
      <point x="309" y="444"/>
      <point x="333" y="420"/>
      <point x="333" y="389" type="curve" smooth="yes"/>
      <point x="333" y="358"/>
      <point x="309" y="333"/>
      <point x="278" y="333" type="curve" smooth="yes"/>
      <point x="247" y="333"/>
      <point x="222" y="358"/>
    </contour>
    <contour>
      <point x="722" y="333" type="line"/>
      <point x="691" y="333"/>
      <point x="667" y="358"/>
      <point x="667" y="389" type="curve" smooth="yes"/>
      <point x="667" y="420"/>
      <point x="691" y="444"/>
      <point x="722" y="444" type="curve"/>
      <point x="722" y="389" type="line"/>
      <point x="722" y="420"/>
      <point x="747" y="444"/>
      <point x="778" y="444" type="curve"/>
      <point x="778" y="333" type="line"/>
      <point x="747" y="333"/>
      <point x="722" y="358"/>
      <point x="722" y="389" type="curve"/>
    </contour>
    <contour>
      <point x="222" y="500" type="line"/>
      <point x="222" y="500"/>
      <point x="278" y="556"/>
      <point x="278" y="556" type="curve"/>
      <point x="278" y="556"/>
      <point x="333" y="500"/>
      <point x="333" y="500" type="curve"/>
      <point x="278" y="500" type="line"/>
      <point x="278" y="500"/>
      <point x="333" y="444"/>
      <point x="333" y="444" type="curve"/>
      <point x="222" y="444" type="line"/>
      <point x="222" y="444"/>
      <point x="278" y="500"/>
      <point x="278" y="500" type="curve"/>
    </contour>
    <contour>
      <point x="667" y="444" type="line"/>
      <point x="667" y="556" type="line"/>
      <point x="778" y="556" type="line"/>
      <point x="778" y="444" type="line"/>
    </contour>
    <contour>
      <point x="278" y="667" type="line"/>
      <point x="278" y="667"/>
      <point x="333" y="611"/>
      <point x="333" y="611" type="curve"/>
      <point x="333" y="611"/>
      <point x="278" y="556"/>
      <point x="278" y="556" type="curve"/>
      <point x="278" y="611" type="line"/>
      <point x="278" y="611"/>
      <point x="222" y="556"/>
      <point x="222" y="556" type="curve"/>
      <point x="222" y="667" type="line"/>
      <point x="222" y="667"/>
      <point x="278" y="611"/>
      <point x="278" y="611" type="curve"/>
    </contour>
    <contour>
      <point x="778" y="667" type="line"/>
      <point x="778" y="556" type="line"/>
      <point x="716" y="556"/>
      <point x="667" y="604"/>
      <point x="667" y="667" type="curve"/>
    </contour>
    <contour>
      <point x="111" y="667" type="line"/>
      <point x="111" y="778" type="line"/>
      <point x="222" y="778" type="line"/>
      <point x="222" y="667" type="line"/>
    </contour>
    <contour>
      <point x="222" y="722" type="curve"/>
      <point x="278" y="722" type="line"/>
      <point x="247" y="722"/>
      <point x="222" y="747"/>
      <point x="222" y="778" type="curve"/>
      <point x="333" y="778" type="line"/>
      <point x="333" y="747"/>
      <point x="309" y="722"/>
      <point x="278" y="722" type="curve"/>
      <point x="333" y="722" type="line"/>
      <point x="333" y="691"/>
      <point x="309" y="667"/>
      <point x="278" y="667" type="curve" smooth="yes"/>
      <point x="247" y="667"/>
      <point x="222" y="691"/>
    </contour>
    <contour>
      <point x="667" y="667" type="line"/>
      <point x="667" y="778" type="line"/>
      <point x="778" y="778" type="line"/>
      <point x="778" y="667" type="line"/>
    </contour>
    <contour>
      <point x="778" y="722" type="curve" smooth="yes"/>
      <point x="778" y="753"/>
      <point x="802" y="778"/>
      <point x="833" y="778" type="curve" smooth="yes"/>
      <point x="864" y="778"/>
      <point x="889" y="753"/>
      <point x="889" y="722" type="curve" smooth="yes"/>
      <point x="889" y="691"/>
      <point x="864" y="667"/>
      <point x="833" y="667" type="curve" smooth="yes"/>
      <point x="802" y="667"/>
      <point x="778" y="691"/>
    </contour>
  </outline>
</glyph>
<glyph name="V" format="1">
  <advance width="1000"/>
  <unicode hex="0056"/>
  <outline>
    <contour>
      <point x="444" y="56" type="line"/>
      <point x="444" y="56"/>
      <point x="500" y="111"/>
      <point x="500" y="111" type="curve"/>
      <point x="500" y="111"/>
      <point x="556" y="56"/>
      <point x="556" y="56" type="curve"/>
      <point x="500" y="56" type="line"/>
      <point x="500" y="56"/>
      <point x="556" y="0"/>
      <point x="556" y="0" type="curve"/>
      <point x="444" y="0" type="line"/>
      <point x="444" y="0"/>
      <point x="500" y="56"/>
      <point x="500" y="56" type="curve"/>
    </contour>
    <contour>
      <point x="389" y="222" type="line"/>
      <point x="420" y="222"/>
      <point x="444" y="198"/>
      <point x="444" y="167" type="curve" smooth="yes"/>
      <point x="444" y="136"/>
      <point x="420" y="111"/>
      <point x="389" y="111" type="curve"/>
      <point x="389" y="167" type="line"/>
      <point x="389" y="136"/>
      <point x="364" y="111"/>
      <point x="333" y="111" type="curve"/>
      <point x="333" y="222" type="line"/>
      <point x="364" y="222"/>
      <point x="389" y="198"/>
      <point x="389" y="167" type="curve"/>
    </contour>
    <contour>
      <point x="556" y="111" type="line"/>
      <point x="556" y="222" type="line"/>
      <point x="618" y="222"/>
      <point x="667" y="173"/>
      <point x="667" y="111" type="curve"/>
    </contour>
    <contour>
      <point x="222" y="278" type="curve"/>
      <point x="278" y="278" type="line"/>
      <point x="247" y="278"/>
      <point x="222" y="302"/>
      <point x="222" y="333" type="curve"/>
      <point x="333" y="333" type="line"/>
      <point x="333" y="302"/>
      <point x="309" y="278"/>
      <point x="278" y="278" type="curve"/>
      <point x="333" y="278" type="line"/>
      <point x="333" y="247"/>
      <point x="309" y="222"/>
      <point x="278" y="222" type="curve" smooth="yes"/>
      <point x="247" y="222"/>
      <point x="222" y="247"/>
    </contour>
    <contour>
      <point x="667" y="222" type="line"/>
      <point x="667" y="333" type="line"/>
      <point x="778" y="333" type="line"/>
      <point x="778" y="222" type="line"/>
    </contour>
    <contour>
      <point x="278" y="444" type="line"/>
      <point x="309" y="444"/>
      <point x="333" y="420"/>
      <point x="333" y="389" type="curve" smooth="yes"/>
      <point x="333" y="358"/>
      <point x="309" y="333"/>
      <point x="278" y="333" type="curve"/>
      <point x="278" y="389" type="line"/>
      <point x="278" y="358"/>
      <point x="253" y="333"/>
      <point x="222" y="333" type="curve"/>
      <point x="222" y="444" type="line"/>
      <point x="253" y="444"/>
      <point x="278" y="420"/>
      <point x="278" y="389" type="curve"/>
    </contour>
    <contour>
      <point x="667" y="389" type="line"/>
      <point x="667" y="420"/>
      <point x="691" y="444"/>
      <point x="722" y="444" type="curve" smooth="yes"/>
      <point x="753" y="444"/>
      <point x="778" y="420"/>
      <point x="778" y="389" type="curve"/>
      <point x="722" y="389" type="line"/>
      <point x="753" y="389"/>
      <point x="778" y="364"/>
      <point x="778" y="333" type="curve"/>
      <point x="667" y="333" type="line"/>
      <point x="667" y="364"/>
      <point x="691" y="389"/>
      <point x="722" y="389" type="curve"/>
    </contour>
    <contour>
      <point x="333" y="444" type="line"/>
      <point x="222" y="444" type="line"/>
      <point x="222" y="507"/>
      <point x="271" y="556"/>
      <point x="333" y="556" type="curve"/>
    </contour>
    <contour>
      <point x="722" y="444" type="line"/>
      <point x="691" y="444"/>
      <point x="667" y="469"/>
      <point x="667" y="500" type="curve" smooth="yes"/>
      <point x="667" y="531"/>
      <point x="691" y="556"/>
      <point x="722" y="556" type="curve"/>
      <point x="722" y="500" type="line"/>
      <point x="722" y="531"/>
      <point x="747" y="556"/>
      <point x="778" y="556" type="curve"/>
      <point x="778" y="444" type="line"/>
      <point x="747" y="444"/>
      <point x="722" y="469"/>
      <point x="722" y="500" type="curve"/>
    </contour>
    <contour>
      <point x="222" y="611" type="curve"/>
      <point x="278" y="611" type="line"/>
      <point x="247" y="611"/>
      <point x="222" y="636"/>
      <point x="222" y="667" type="curve"/>
      <point x="333" y="667" type="line"/>
      <point x="333" y="636"/>
      <point x="309" y="611"/>
      <point x="278" y="611" type="curve"/>
      <point x="333" y="611" type="line"/>
      <point x="333" y="580"/>
      <point x="309" y="556"/>
      <point x="278" y="556" type="curve" smooth="yes"/>
      <point x="247" y="556"/>
      <point x="222" y="580"/>
    </contour>
    <contour>
      <point x="667" y="611" type="curve"/>
      <point x="722" y="611" type="line"/>
      <point x="722" y="611"/>
      <point x="667" y="667"/>
      <point x="667" y="667" type="curve"/>
      <point x="778" y="667" type="line"/>
      <point x="778" y="667"/>
      <point x="722" y="611"/>
      <point x="722" y="611" type="curve"/>
      <point x="778" y="611" type="line"/>
      <point x="778" y="611"/>
      <point x="722" y="556"/>
      <point x="722" y="556" type="curve"/>
      <point x="722" y="556"/>
      <point x="667" y="611"/>
    </contour>
    <contour>
      <point x="111" y="722" type="curve" smooth="yes"/>
      <point x="111" y="753"/>
      <point x="136" y="778"/>
      <point x="167" y="778" type="curve" smooth="yes"/>
      <point x="198" y="778"/>
      <point x="222" y="753"/>
      <point x="222" y="722" type="curve" smooth="yes"/>
      <point x="222" y="691"/>
      <point x="198" y="667"/>
      <point x="167" y="667" type="curve" smooth="yes"/>
      <point x="136" y="667"/>
      <point x="111" y="691"/>
    </contour>
    <contour>
      <point x="222" y="722" type="curve"/>
      <point x="278" y="722" type="line"/>
      <point x="278" y="722"/>
      <point x="222" y="778"/>
      <point x="222" y="778" type="curve"/>
      <point x="333" y="778" type="line"/>
      <point x="333" y="778"/>
      <point x="278" y="722"/>
      <point x="278" y="722" type="curve"/>
      <point x="333" y="722" type="line"/>
      <point x="333" y="722"/>
      <point x="278" y="667"/>
      <point x="278" y="667" type="curve"/>
      <point x="278" y="667"/>
      <point x="222" y="722"/>
    </contour>
    <contour>
      <point x="667" y="722" type="curve"/>
      <point x="722" y="722" type="line"/>
      <point x="722" y="722"/>
      <point x="667" y="778"/>
      <point x="667" y="778" type="curve"/>
      <point x="778" y="778" type="line"/>
      <point x="778" y="778"/>
      <point x="722" y="722"/>
      <point x="722" y="722" type="curve"/>
      <point x="778" y="722" type="line"/>
      <point x="778" y="722"/>
      <point x="722" y="667"/>
      <point x="722" y="667" type="curve"/>
      <point x="722" y="667"/>
      <point x="667" y="722"/>
    </contour>
    <contour>
      <point x="778" y="722" type="curve" smooth="yes"/>
      <point x="778" y="753"/>
      <point x="802" y="778"/>
      <point x="833" y="778" type="curve" smooth="yes"/>
      <point x="864" y="778"/>
      <point x="889" y="753"/>
      <point x="889" y="722" type="curve" smooth="yes"/>
      <point x="889" y="691"/>
      <point x="864" y="667"/>
      <point x="833" y="667" type="curve" smooth="yes"/>
      <point x="802" y="667"/>
      <point x="778" y="691"/>
    </contour>
  </outline>
</glyph>
<glyph name="Y" format="1">
  <advance width="1000.0"/>
  <unicode hex="0059"/>
  <outline>
    <contour>
      <point x="333" y="0" type="line"/>
      <point x="333" y="111" type="line"/>
      <point x="444" y="111" type="line"/>
      <point x="444" y="0" type="line"/>
    </contour>
    <contour>
      <point x="444" y="56" type="curve" smooth="yes"/>
      <point x="444" y="87"/>
      <point x="469" y="111"/>
      <point x="500" y="111" type="curve" smooth="yes"/>
      <point x="531" y="111"/>
      <point x="556" y="87"/>
      <point x="556" y="56" type="curve" smooth="yes"/>
      <point x="556" y="24"/>
      <point x="531" y="0"/>
      <point x="500" y="0" type="curve" smooth="yes"/>
      <point x="469" y="0"/>
      <point x="444" y="24"/>
    </contour>
    <contour>
      <point x="556" y="111" type="line"/>
      <point x="667" y="111" type="line"/>
      <point x="667" y="49"/>
      <point x="618" y="0"/>
      <point x="556" y="0" type="curve"/>
    </contour>
    <contour>
      <point x="444" y="111" type="line"/>
      <point x="444" y="222" type="line"/>
      <point x="556" y="222" type="line"/>
      <point x="556" y="111" type="line"/>
    </contour>
    <contour>
      <point x="556" y="222" type="line"/>
      <point x="444" y="222" type="line"/>
      <point x="444" y="284"/>
      <point x="493" y="333"/>
      <point x="556" y="333" type="curve"/>
    </contour>
    <contour>
      <point x="333" y="389" type="curve" smooth="yes"/>
      <point x="333" y="420"/>
      <point x="358" y="444"/>
      <point x="389" y="444" type="curve" smooth="yes"/>
      <point x="420" y="444"/>
      <point x="444" y="420"/>
      <point x="444" y="389" type="curve" smooth="yes"/>
      <point x="444" y="358"/>
      <point x="420" y="333"/>
      <point x="389" y="333" type="curve" smooth="yes"/>
      <point x="358" y="333"/>
      <point x="333" y="358"/>
    </contour>
    <contour>
      <point x="556" y="389" type="curve"/>
      <point x="611" y="389" type="line"/>
      <point x="611" y="389"/>
      <point x="556" y="444"/>
      <point x="556" y="444" type="curve"/>
      <point x="667" y="444" type="line"/>
      <point x="667" y="444"/>
      <point x="611" y="389"/>
      <point x="611" y="389" type="curve"/>
      <point x="667" y="389" type="line"/>
      <point x="667" y="389"/>
      <point x="611" y="333"/>
      <point x="611" y="333" type="curve"/>
      <point x="611" y="333"/>
      <point x="556" y="389"/>
    </contour>
    <contour>
      <point x="222" y="500" type="line"/>
      <point x="222" y="531"/>
      <point x="247" y="556"/>
      <point x="278" y="556" type="curve" smooth="yes"/>
      <point x="309" y="556"/>
      <point x="333" y="531"/>
      <point x="333" y="500" type="curve"/>
      <point x="278" y="500" type="line"/>
      <point x="309" y="500"/>
      <point x="333" y="476"/>
      <point x="333" y="444" type="curve"/>
      <point x="222" y="444" type="line"/>
      <point x="222" y="476"/>
      <point x="247" y="500"/>
      <point x="278" y="500" type="curve"/>
    </contour>
    <contour>
      <point x="722" y="444" type="line"/>
      <point x="691" y="444"/>
      <point x="667" y="469"/>
      <point x="667" y="500" type="curve" smooth="yes"/>
      <point x="667" y="531"/>
      <point x="691" y="556"/>
      <point x="722" y="556" type="curve"/>
      <point x="722" y="500" type="line"/>
      <point x="722" y="531"/>
      <point x="747" y="556"/>
      <point x="778" y="556" type="curve"/>
      <point x="778" y="444" type="line"/>
      <point x="747" y="444"/>
      <point x="722" y="469"/>
      <point x="722" y="500" type="curve"/>
    </contour>
    <contour>
      <point x="278" y="667" type="line"/>
      <point x="309" y="667"/>
      <point x="333" y="642"/>
      <point x="333" y="611" type="curve" smooth="yes"/>
      <point x="333" y="580"/>
      <point x="309" y="556"/>
      <point x="278" y="556" type="curve"/>
      <point x="278" y="611" type="line"/>
      <point x="278" y="580"/>
      <point x="253" y="556"/>
      <point x="222" y="556" type="curve"/>
      <point x="222" y="667" type="line"/>
      <point x="253" y="667"/>
      <point x="278" y="642"/>
      <point x="278" y="611" type="curve"/>
    </contour>
    <contour>
      <point x="667" y="611" type="curve" smooth="yes"/>
      <point x="667" y="642"/>
      <point x="691" y="667"/>
      <point x="722" y="667" type="curve" smooth="yes"/>
      <point x="753" y="667"/>
      <point x="778" y="642"/>
      <point x="778" y="611" type="curve" smooth="yes"/>
      <point x="778" y="580"/>
      <point x="753" y="556"/>
      <point x="722" y="556" type="curve" smooth="yes"/>
      <point x="691" y="556"/>
      <point x="667" y="580"/>
    </contour>
    <contour>
      <point x="111" y="722" type="curve" smooth="yes"/>
      <point x="111" y="753"/>
      <point x="136" y="778"/>
      <point x="167" y="778" type="curve" smooth="yes"/>
      <point x="198" y="778"/>
      <point x="222" y="753"/>
      <point x="222" y="722" type="curve" smooth="yes"/>
      <point x="222" y="691"/>
      <point x="198" y="667"/>
      <point x="167" y="667" type="curve" smooth="yes"/>
      <point x="136" y="667"/>
      <point x="111" y="691"/>
    </contour>
    <contour>
      <point x="278" y="667" type="line"/>
      <point x="278" y="667"/>
      <point x="222" y="722"/>
      <point x="222" y="722" type="curve"/>
      <point x="222" y="722"/>
      <point x="278" y="778"/>
      <point x="278" y="778" type="curve"/>
      <point x="278" y="722" type="line"/>
      <point x="278" y="722"/>
      <point x="333" y="778"/>
      <point x="333" y="778" type="curve"/>
      <point x="333" y="667" type="line"/>
      <point x="333" y="667"/>
      <point x="278" y="722"/>
      <point x="278" y="722" type="curve"/>
    </contour>
    <contour>
      <point x="778" y="667" type="line"/>
      <point x="667" y="667" type="line"/>
      <point x="667" y="729"/>
      <point x="716" y="778"/>
      <point x="778" y="778" type="curve"/>
    </contour>
    <contour>
      <point x="833" y="667" type="line"/>
      <point x="802" y="667"/>
      <point x="778" y="691"/>
      <point x="778" y="722" type="curve" smooth="yes"/>
      <point x="778" y="753"/>
      <point x="802" y="778"/>
      <point x="833" y="778" type="curve"/>
      <point x="833" y="722" type="line"/>
      <point x="833" y="753"/>
      <point x="858" y="778"/>
      <point x="889" y="778" type="curve"/>
      <point x="889" y="667" type="line"/>
      <point x="858" y="667"/>
      <point x="833" y="691"/>
      <point x="833" y="722" type="curve"/>
    </contour>
  </outline>
</glyph>
<glyph name="backslash" format="1">
  <advance width="1000.0"/>
  <unicode hex="005C"/>
  <outline>
    <contour>
      <point x="778" y="0" type="line"/>
      <point x="778" y="111" type="line"/>
      <point x="889" y="111" type="line"/>
      <point x="889" y="0" type="line"/>
    </contour>
    <contour>
      <point x="667" y="111" type="line"/>
      <point x="667" y="222" type="line"/>
      <point x="778" y="222" type="line"/>
      <point x="778" y="111" type="line"/>
    </contour>
    <contour>
      <point x="611" y="222" type="line"/>
      <point x="611" y="222"/>
      <point x="556" y="278"/>
      <point x="556" y="278" type="curve"/>
      <point x="556" y="278"/>
      <point x="611" y="333"/>
      <point x="611" y="333" type="curve"/>
      <point x="611" y="278" type="line"/>
      <point x="611" y="278"/>
      <point x="667" y="333"/>
      <point x="667" y="333" type="curve"/>
      <point x="667" y="222" type="line"/>
      <point x="667" y="222"/>
      <point x="611" y="278"/>
      <point x="611" y="278" type="curve"/>
    </contour>
    <contour>
      <point x="500" y="444" type="line"/>
      <point x="500" y="444"/>
      <point x="556" y="389"/>
      <point x="556" y="389" type="curve"/>
      <point x="556" y="389"/>
      <point x="500" y="333"/>
      <point x="500" y="333" type="curve"/>
      <point x="500" y="389" type="line"/>
      <point x="500" y="389"/>
      <point x="444" y="333"/>
      <point x="444" y="333" type="curve"/>
      <point x="444" y="444" type="line"/>
      <point x="444" y="444"/>
      <point x="500" y="389"/>
      <point x="500" y="389" type="curve"/>
    </contour>
    <contour>
      <point x="333" y="444" type="line"/>
      <point x="333" y="556" type="line"/>
      <point x="444" y="556" type="line"/>
      <point x="444" y="444" type="line"/>
    </contour>
    <contour>
      <point x="222" y="611" type="curve" smooth="yes"/>
      <point x="222" y="642"/>
      <point x="247" y="667"/>
      <point x="278" y="667" type="curve" smooth="yes"/>
      <point x="309" y="667"/>
      <point x="333" y="642"/>
      <point x="333" y="611" type="curve" smooth="yes"/>
      <point x="333" y="580"/>
      <point x="309" y="556"/>
      <point x="278" y="556" type="curve" smooth="yes"/>
      <point x="247" y="556"/>
      <point x="222" y="580"/>
    </contour>
    <contour>
      <point x="222" y="778" type="line"/>
      <point x="222" y="667" type="line"/>
      <point x="160" y="667"/>
      <point x="111" y="716"/>
      <point x="111" y="778" type="curve"/>
    </contour>
  </outline>
</glyph>
<glyph name="a" format="1">
  <advance width="777.7777777777778"/>
  <unicode hex="0061"/>
  <outline>
    <contour>
      <point x="222" y="111" type="line"/>
      <point x="333" y="111" type="line"/>
      <point x="333" y="49"/>
      <point x="284" y="0"/>
      <point x="222" y="0" type="curve"/>
    </contour>
    <contour>
      <point x="333" y="0" type="line"/>
      <point x="333" y="111" type="line"/>
      <point x="444" y="111" type="line"/>
      <point x="444" y="0" type="line"/>
    </contour>
    <contour>
      <point x="667" y="111" type="line"/>
      <point x="667" y="0" type="line"/>
      <point x="604" y="0"/>
      <point x="556" y="49"/>
      <point x="556" y="111" type="curve"/>
    </contour>
    <contour>
      <point x="111" y="167" type="line"/>
      <point x="111" y="198"/>
      <point x="136" y="222"/>
      <point x="167" y="222" type="curve" smooth="yes"/>
      <point x="198" y="222"/>
      <point x="222" y="198"/>
      <point x="222" y="167" type="curve"/>
      <point x="167" y="167" type="line"/>
      <point x="198" y="167"/>
      <point x="222" y="142"/>
      <point x="222" y="111" type="curve"/>
      <point x="111" y="111" type="line"/>
      <point x="111" y="142"/>
      <point x="136" y="167"/>
      <point x="167" y="167" type="curve"/>
    </contour>
    <contour>
      <point x="444" y="167" type="curve" smooth="yes"/>
      <point x="444" y="198"/>
      <point x="469" y="222"/>
      <point x="500" y="222" type="curve" smooth="yes"/>
      <point x="531" y="222"/>
      <point x="556" y="198"/>
      <point x="556" y="167" type="curve" smooth="yes"/>
      <point x="556" y="136"/>
      <point x="531" y="111"/>
      <point x="500" y="111" type="curve" smooth="yes"/>
      <point x="469" y="111"/>
      <point x="444" y="136"/>
    </contour>
    <contour>
      <point x="111" y="278" type="line"/>
      <point x="111" y="278"/>
      <point x="167" y="333"/>
      <point x="167" y="333" type="curve"/>
      <point x="167" y="333"/>
      <point x="222" y="278"/>
      <point x="222" y="278" type="curve"/>
      <point x="167" y="278" type="line"/>
      <point x="167" y="278"/>
      <point x="222" y="222"/>
      <point x="222" y="222" type="curve"/>
      <point x="111" y="222" type="line"/>
      <point x="111" y="222"/>
      <point x="167" y="278"/>
      <point x="167" y="278" type="curve"/>
    </contour>
    <contour>
      <point x="333" y="222" type="line"/>
      <point x="222" y="222" type="line"/>
      <point x="222" y="284"/>
      <point x="271" y="333"/>
      <point x="333" y="333" type="curve"/>
    </contour>
    <contour>
      <point x="333" y="278" type="curve" smooth="yes"/>
      <point x="333" y="309"/>
      <point x="358" y="333"/>
      <point x="389" y="333" type="curve" smooth="yes"/>
      <point x="420" y="333"/>
      <point x="444" y="309"/>
      <point x="444" y="278" type="curve" smooth="yes"/>
      <point x="444" y="247"/>
      <point x="420" y="222"/>
      <point x="389" y="222" type="curve" smooth="yes"/>
      <point x="358" y="222"/>
      <point x="333" y="247"/>
    </contour>
    <contour>
      <point x="444" y="222" type="line"/>
      <point x="444" y="333" type="line"/>
      <point x="556" y="333" type="line"/>
      <point x="556" y="222" type="line"/>
    </contour>
    <contour>
      <point x="500" y="333" type="line"/>
      <point x="500" y="333"/>
      <point x="444" y="389"/>
      <point x="444" y="389" type="curve"/>
      <point x="444" y="389"/>
      <point x="500" y="444"/>
      <point x="500" y="444" type="curve"/>
      <point x="500" y="389" type="line"/>
      <point x="500" y="389"/>
      <point x="556" y="444"/>
      <point x="556" y="444" type="curve"/>
      <point x="556" y="333" type="line"/>
      <point x="556" y="333"/>
      <point x="500" y="389"/>
      <point x="500" y="389" type="curve"/>
    </contour>
    <contour>
      <point x="111" y="500" type="curve" smooth="yes"/>
      <point x="111" y="531"/>
      <point x="136" y="556"/>
      <point x="167" y="556" type="curve" smooth="yes"/>
      <point x="198" y="556"/>
      <point x="222" y="531"/>
      <point x="222" y="500" type="curve" smooth="yes"/>
      <point x="222" y="469"/>
      <point x="198" y="444"/>
      <point x="167" y="444" type="curve" smooth="yes"/>
      <point x="136" y="444"/>
      <point x="111" y="469"/>
    </contour>
    <contour>
      <point x="222" y="500" type="curve" smooth="yes"/>
      <point x="222" y="531"/>
      <point x="247" y="556"/>
      <point x="278" y="556" type="curve" smooth="yes"/>
      <point x="309" y="556"/>
      <point x="333" y="531"/>
      <point x="333" y="500" type="curve" smooth="yes"/>
      <point x="333" y="469"/>
      <point x="309" y="444"/>
      <point x="278" y="444" type="curve" smooth="yes"/>
      <point x="247" y="444"/>
      <point x="222" y="469"/>
    </contour>
    <contour>
      <point x="333" y="500" type="curve" smooth="yes"/>
      <point x="333" y="531"/>
      <point x="358" y="556"/>
      <point x="389" y="556" type="curve" smooth="yes"/>
      <point x="420" y="556"/>
      <point x="444" y="531"/>
      <point x="444" y="500" type="curve" smooth="yes"/>
      <point x="444" y="469"/>
      <point x="420" y="444"/>
      <point x="389" y="444" type="curve" smooth="yes"/>
      <point x="358" y="444"/>
      <point x="333" y="469"/>
    </contour>
  </outline>
</glyph>
